<svg xmlns="http://www.w3.org/2000/svg">
<defs>
<font id="Britanica-BoldSemiExpanded" horiz-adv-x="863" >
  <font-face
    font-primary="Britanica-BoldSemiExpanded"
    font-weight="400"
    font-stretch="semi-expanded"
    units-per-em="1000"
    panose-1="0 0 8 5 0 0 0 0 0 0"
    ascent="781"
    descent="-219"
    x-height="450"
    cap-height="643"
    bbox="-311 -187 2481 859"
    underline-thickness="50"
    underline-position="-100"
    unicode-range="U+0020-1F5C0"
  />
<missing-glyph horiz-adv-x="714"
d="M121 547q97 98 235 98t236 -98t98 -236t-98 -235.5t-236 -97.5t-235.5 97.5t-97.5 235.5t98 236zM37 312q0 -132 94 -226t226 -94q133 0 226.5 94t93.5 226q0 133 -93.5 226.5t-226.5 93.5q-132 0 -226 -93.5t-94 -226.5zM193 330q0 17 12.5 29.5t29.5 12.5q22 0 36 -19
q12 19 35 19q8 0 16 -3l-19 123q-1 4 -1 8q0 14 9.5 27.5t26.5 17.5q3 1 7 1q11 0 23 -8q16 -11 19 -30l23 -147l22 147q3 19 19 30q12 8 23 8q4 0 7 -1q17 -4 26.5 -17.5t9.5 -27.5q0 -4 -1 -8l-28 -176q10 -12 10 -25v-53q0 -64 -45 -109q-46 -44 -107 -44h-4
q-61 2 -106 47q-43 45 -43 108v90zM206 246v-6q0 -57 40 -99q40 -40 97 -42h5q55 0 95 40q42 40 42 99v51q0 12 -8 20l-1 1q-8 8 -20 8h-76q-12 0 -20.5 -8.5t-8.5 -20.5t8.5 -20.5t20.5 -8.5h45q6 0 6 -7q0 -6 -6 -6q-30 0 -51 -21t-21 -51q0 -7 -7 -7t-7 7q0 47 40 72
q-19 0 -33 16q-9 -28 -40 -28q-23 0 -35 19q-14 -19 -36 -19q-16 0 -29 11zM418 331h38q12 0 20 -5l27 168v6q0 10 -6 19.5t-18 11.5q-3 1 -6 1q-7 0 -14 -5q-11 -8 -13 -21zM316 494l22 -136q11 -11 11 -28v-12q11 13 31 13h21l-28 175q-2 13 -13 21q-7 5 -14 5q-3 0 -6 -1
q-12 -2 -18 -11.5t-6 -19.5v-6zM277 330v-53q0 -12 8.5 -20.5t20.5 -8.5t20.5 8.5t8.5 20.5v53q0 12 -8 20q0 1 -1 1q-8 8 -20 8t-20.5 -8.5t-8.5 -20.5zM206 330v-53q0 -12 8.5 -20.5t20.5 -8.5t20.5 8.5t8.5 20.5v53q0 12 -8.5 20.5t-20.5 8.5t-20.5 -8.5t-8.5 -20.5z" />
    <glyph glyph-name="f_f" unicode="ff" horiz-adv-x="751"
d="M570 576q-17 0 -22.5 -6t-5.5 -24v-96h185v-66h-185v-384h-78v384h-88v2h-7v-2h-185v-384h-78v384h-88v66h88v96q0 56 23.5 76.5t83.5 20.5h156v-67h-156q-17 0 -23 -6.5t-6 -23.5v-96h280v96q0 56 23.5 76.5t82.5 20.5h157v-67h-157z" />
    <glyph glyph-name="fi" unicode="fi" horiz-adv-x="597"
d="M492 654q23 0 40 -16.5t17 -40.5q0 -23 -17 -39.5t-40 -16.5t-39.5 16.5t-16.5 39.5q0 24 16.5 40.5t39.5 16.5zM532 450v-450h-79v384h-269v-384h-78v384h-88v66h88v96q0 56 23.5 76.5t83.5 20.5h156v-67h-156q-17 0 -23 -6.5t-6 -23.5v-96h348z" />
    <glyph glyph-name="f_f_i" unicode="ffi" horiz-adv-x="954"
d="M849 654q24 0 40.5 -16.5t16.5 -40.5q0 -23 -16.5 -39.5t-40.5 -16.5q-23 0 -39.5 16.5t-16.5 39.5q0 24 16.5 40.5t39.5 16.5zM889 450v-450h-78v384h-269v-384h-78v384h-88v2h-7v-2h-185v-384h-78v384h-88v66h88v96q0 56 23.5 76.5t83.5 20.5h156v-67h-156
q-17 0 -23 -6.5t-6 -23.5v-96h280v96q0 56 23.5 76.5t82.5 20.5h157v-67h-157q-17 0 -22.5 -6t-5.5 -24v-96h347z" />
    <glyph glyph-name="fl" unicode="fl" horiz-adv-x="652"
d="M568 67h68v-67h-68q-59 0 -82.5 20.5t-23.5 76.5v479h-249q-17 0 -23 -6.5t-6 -23.5v-96h185v-66h-185v-384h-78v384h-88v66h88v96q0 56 23.5 76.5t83.5 20.5h327v-546q0 -17 6 -23.5t22 -6.5z" />
    <glyph glyph-name=".notdef" horiz-adv-x="714"
d="M121 547q97 98 235 98t236 -98t98 -236t-98 -235.5t-236 -97.5t-235.5 97.5t-97.5 235.5t98 236zM37 312q0 -132 94 -226t226 -94q133 0 226.5 94t93.5 226q0 133 -93.5 226.5t-226.5 93.5q-132 0 -226 -93.5t-94 -226.5zM193 330q0 17 12.5 29.5t29.5 12.5q22 0 36 -19
q12 19 35 19q8 0 16 -3l-19 123q-1 4 -1 8q0 14 9.5 27.5t26.5 17.5q3 1 7 1q11 0 23 -8q16 -11 19 -30l23 -147l22 147q3 19 19 30q12 8 23 8q4 0 7 -1q17 -4 26.5 -17.5t9.5 -27.5q0 -4 -1 -8l-28 -176q10 -12 10 -25v-53q0 -64 -45 -109q-46 -44 -107 -44h-4
q-61 2 -106 47q-43 45 -43 108v90zM206 246v-6q0 -57 40 -99q40 -40 97 -42h5q55 0 95 40q42 40 42 99v51q0 12 -8 20l-1 1q-8 8 -20 8h-76q-12 0 -20.5 -8.5t-8.5 -20.5t8.5 -20.5t20.5 -8.5h45q6 0 6 -7q0 -6 -6 -6q-30 0 -51 -21t-21 -51q0 -7 -7 -7t-7 7q0 47 40 72
q-19 0 -33 16q-9 -28 -40 -28q-23 0 -35 19q-14 -19 -36 -19q-16 0 -29 11zM418 331h38q12 0 20 -5l27 168v6q0 10 -6 19.5t-18 11.5q-3 1 -6 1q-7 0 -14 -5q-11 -8 -13 -21zM316 494l22 -136q11 -11 11 -28v-12q11 13 31 13h21l-28 175q-2 13 -13 21q-7 5 -14 5q-3 0 -6 -1
q-12 -2 -18 -11.5t-6 -19.5v-6zM277 330v-53q0 -12 8.5 -20.5t20.5 -8.5t20.5 8.5t8.5 20.5v53q0 12 -8 20q0 1 -1 1q-8 8 -20 8t-20.5 -8.5t-8.5 -20.5zM206 330v-53q0 -12 8.5 -20.5t20.5 -8.5t20.5 8.5t8.5 20.5v53q0 12 -8.5 20.5t-20.5 8.5t-20.5 -8.5t-8.5 -20.5z" />
    <glyph glyph-name=".null" horiz-adv-x="0"
 />
    <glyph glyph-name="uni000D" horiz-adv-x="333"
 />
    <glyph glyph-name="space" unicode=" " horiz-adv-x="290"
 />
    <glyph glyph-name="exclam" unicode="!" horiz-adv-x="209"
d="M148 643l-11 -460h-64l-11 460h86zM48 51q0 24 16.5 40.5t39.5 16.5q24 0 40.5 -16.5t16.5 -40.5q0 -23 -16.5 -39.5t-40.5 -16.5q-23 0 -39.5 16.5t-16.5 39.5z" />
    <glyph glyph-name="quotedbl" unicode="&#x22;" horiz-adv-x="294"
d="M177 643h78l-11 -193h-56zM117 643l-11 -193h-56l-11 193h78z" />
    <glyph glyph-name="numbersign" unicode="#" horiz-adv-x="809"
d="M48 160v67h144l56 156h-120v67h144l69 193h80l-69 -193h209l69 193h81l-69 -193h119v-67h-143l-56 -156h119v-67h-143l-57 -160h-81l57 160h-209l-57 -160h-80l57 160h-120zM272 227h209l56 156h-209z" />
    <glyph glyph-name="dollar" unicode="$" horiz-adv-x="723"
d="M111 194q0 -3 1 -8t6.5 -19t14.5 -27t28.5 -28.5t45 -27t66 -19t90.5 -7.5q127 0 186 39.5t59 86.5q0 43 -40.5 69.5t-102 36.5t-133.5 21.5t-134.5 24t-105 45t-45.5 82.5v8q0 79 72.5 127t201.5 54v75h80v-75q72 -4 126.5 -23t80.5 -40t41.5 -46.5t18.5 -37.5t3 -19
h-87q-1 4 -3 10.5t-15.5 24t-35.5 30.5t-68 23.5t-107 10.5q-106 0 -165 -31t-59 -79v-8q3 -34 46.5 -54.5t106 -28t134.5 -19.5t133.5 -28t102 -54.5t40.5 -97.5q0 -88 -77.5 -138t-215.5 -56v-72h-80v72q-77 5 -135.5 27t-88 48.5t-47.5 57.5t-22 47t-4 23h87z" />
    <glyph glyph-name="percent" unicode="%" horiz-adv-x="799"
d="M54 489q0 74 44 119.5t122 45.5q81 0 123.5 -45t42.5 -120q0 -74 -42.5 -119t-123.5 -45q-78 0 -122 46t-44 118zM411 151q0 74 43.5 119.5t121.5 45.5q81 0 123.5 -45t42.5 -120q0 -74 -42.5 -119t-123.5 -45q-77 0 -121 45.5t-44 118.5zM486 59q33 -37 90 -37
q59 0 91 36t32 93t-32 93.5t-91 36.5q-58 0 -90.5 -36.5t-32.5 -93.5q0 -56 33 -92zM97 489q0 -56 33 -92.5t90 -36.5q59 0 91 36q31 36 31 93t-31.5 93.5t-90.5 36.5q-58 0 -90.5 -36.5t-32.5 -93.5zM64 0l618 643h60l-617 -643h-61z" />
    <glyph glyph-name="ampersand" unicode="&#x26;" horiz-adv-x="776"
d="M169 341q-94 36 -94 126q0 81 78.5 128.5t215.5 47.5q79 0 138.5 -17.5t88.5 -40.5t46 -51.5t20 -43t3 -23.5h-85q0 4 -2.5 13t-15 27t-33 32.5t-62.5 26t-98 11.5q-209 0 -212 -110v-5q0 -34 28.5 -65t78.5 -31h461v-5h3v-61h-63v-202q0 -18 5.5 -24t22.5 -6h35v-68h-37
q-60 0 -83.5 20.5t-23.5 77.5v3q-35 -51 -95 -80t-138 -30h-5q-138 0 -218 52t-80 143q0 114 121 155zM135 187q0 -56 54 -92t162 -38q109 2 171 46t62 117v80h-301q-68 0 -108 -29.5t-40 -83.5z" />
    <glyph glyph-name="quotesingle" unicode="'" horiz-adv-x="156"
d="M117 643l-11 -193h-56l-11 193h78z" />
    <glyph glyph-name="parenleft" unicode="(" horiz-adv-x="301"
d="M48 305q0 78 15.5 148.5t38 115.5t44.5 79t38 49l15 15h54q-5 -5 -14 -15.5t-32 -47.5t-40 -80.5t-31.5 -114.5t-14.5 -149q0 -77 13.5 -147.5t33 -115t39 -78.5t33.5 -49l13 -15h-54q-6 5 -16.5 15.5t-36.5 47.5t-45.5 80t-36 114t-16.5 148z" />
    <glyph glyph-name="parenright" unicode=")" horiz-adv-x="301"
d="M102 712q6 -5 16.5 -15.5t36.5 -47.5t45.5 -80.5t36 -114.5t16.5 -149q0 -77 -15.5 -147.5t-37.5 -115t-44.5 -78.5t-37.5 -49l-16 -15h-54q5 5 14 15.5t32 47.5t40 80t31.5 114t14.5 148q0 78 -13.5 148.5t-33 115.5t-39 79t-32.5 49l-14 15h54z" />
    <glyph glyph-name="asterisk" unicode="*" horiz-adv-x="376"
d="M337 529l-109 -28l76 -81l-41 -30l-75 89l-76 -88l-41 29l76 81l-108 29l16 48l111 -36l-3 101h51l-2 -100l110 35z" />
    <glyph glyph-name="plus" unicode="+" horiz-adv-x="686"
d="M114 331h192v155h74v-155h191v-67h-191v-155h-74v155h-192v67z" />
    <glyph glyph-name="comma" unicode="," horiz-adv-x="223"
d="M82 103h99l-91 -182h-48z" />
    <glyph glyph-name="hyphen" unicode="-" horiz-adv-x="686"
d="M571 216h-457v67h457v-67z" />
    <glyph glyph-name="period" unicode="." horiz-adv-x="196"
d="M42 51q0 24 16.5 40.5t39.5 16.5t40 -16.5t17 -40.5q0 -23 -17 -39.5t-40 -16.5t-39.5 16.5t-16.5 39.5z" />
    <glyph glyph-name="slash" unicode="/" horiz-adv-x="540"
d="M127 0h-79l365 643h79z" />
    <glyph glyph-name="zero" unicode="0" horiz-adv-x="718"
d="M112 562q89 91 247 91q164 0 249.5 -90.5t85.5 -241.5q0 -150 -85.5 -240.5t-249.5 -90.5q-158 0 -247 91.5t-89 239.5q0 149 89 241zM177 134q66 -75 182 -75q118 0 183 74t65 188q0 115 -65 189t-183 74q-117 0 -182.5 -73.5t-65.5 -189.5q0 -113 66 -187z" />
    <glyph glyph-name="one" unicode="1" horiz-adv-x="528"
d="M23 544h159q25 0 33.5 12.5t8.5 40.5v46h81v-576h200v-67h-482v67h201v417q-23 -7 -42 -7h-159v67z" />
    <glyph glyph-name="two" unicode="2" horiz-adv-x="689"
d="M76 112q27 50 70.5 82t96.5 58t106 47t97.5 41.5t73 47.5t29.5 61v5q0 58 -49.5 94t-146.5 36q-54 0 -94 -13.5t-58.5 -32t-29.5 -37.5t-13 -33l-1 -13h-85q0 9 2.5 23.5t18 48t42.5 59.5t84 46.5t134 20.5q138 0 210 -54.5t72 -144.5v-5q-1 -57 -45 -99.5t-109 -70
t-132 -53.5t-123.5 -66.5t-74.5 -92.5h490v-67h-593q0 62 28 112z" />
    <glyph glyph-name="three" unicode="3" horiz-adv-x="649"
d="M111 194q0 -5 1 -14.5t12 -32.5t30 -41t61 -32.5t99 -14.5q107 0 163.5 36.5t56.5 97.5q0 40 -28.5 67.5t-72 38t-78.5 13t-52 2.5q-34 0 -66 -5v70q21 -1 41 -1q48 0 96 8t83.5 33t35.5 64q0 46 -44.5 74t-136.5 28q-52 0 -89.5 -13t-54.5 -31.5t-26 -37t-10 -31.5v-13
h-87q0 4 0.5 11t5.5 27t13.5 38.5t28.5 41t47 38.5t72 27t100 11q127 0 196.5 -49.5t69.5 -120.5q0 -89 -122 -132q164 -33 165 -159v-2q0 -85 -81 -142.5t-226 -57.5q-59 0 -107.5 11.5t-78 29t-51 39.5t-31.5 44t-16 39.5t-6 28.5l-1 12h88z" />
    <glyph glyph-name="four" unicode="4" horiz-adv-x="749"
d="M48 212l429 431h81v-431h143v-67h-143v-145h-81v145h-429v67zM145 212h332v329z" />
    <glyph glyph-name="five" unicode="5" horiz-adv-x="706"
d="M48 196h84q0 -6 2 -15t14 -32.5t32.5 -41.5t64.5 -33t103 -15q100 0 162 45.5t62 120.5q0 86 -65.5 130.5t-157.5 45.5q-77 0 -139.5 -28.5t-78.5 -76.5h-78l57 347h507v-68h-440l-30 -182q81 67 219 67h6q73 0 136 -23.5t106.5 -78.5t43.5 -133q0 -108 -86 -171.5
t-224 -63.5q-59 0 -107.5 11.5t-79 29.5t-53 40t-33.5 44t-18 40t-8 29z" />
    <glyph glyph-name="six" unicode="6" horiz-adv-x="655"
d="M23 292q1 53 10.5 101.5t32.5 97t57 83.5t88 57t122 22q69 0 122 -15t80 -36t44 -42t21 -36l5 -15h-88q-1 3 -3.5 8.5t-15 19.5t-30.5 24.5t-53.5 19.5t-80.5 9q-58 0 -102.5 -22.5t-67.5 -53t-37 -69t-17.5 -64.5t-3.5 -46q2 4 7 10.5t23.5 24t42 30.5t64.5 23.5
t88 10.5q134 0 217 -58.5t83 -154.5v-2q0 -100 -80.5 -164.5t-219.5 -64.5q-144 0 -226 80.5t-82 218.5v3zM177 107q59 -48 154 -48q100 0 157.5 48t57.5 113v2q0 66 -59.5 107.5t-155.5 41.5q-101 0 -157 -43t-58 -104q1 -69 61 -117z" />
    <glyph glyph-name="seven" unicode="7" horiz-adv-x="662"
d="M48 643h566v-64q-7 -4 -18 -12.5t-43.5 -37t-62.5 -60.5t-67 -84t-65 -107t-48.5 -128.5t-23.5 -149.5h-92q6 98 39.5 192t84.5 168t95.5 124t92.5 92h-458v67z" />
    <glyph glyph-name="eight" unicode="8" horiz-adv-x="655"
d="M64 280q40 42 115 63q-120 36 -120 132q0 79 71.5 128.5t197.5 49.5q125 0 196.5 -49.5t71.5 -128.5q0 -94 -119 -131q75 -21 115 -63t40 -98q0 -91 -78.5 -142t-225.5 -51q-148 0 -226.5 51t-78.5 142q0 55 41 97zM167 92q57 -37 161 -37t160.5 36.5t56.5 95.5
q0 61 -60.5 93.5t-156.5 32.5q-95 0 -156.5 -32.5t-61.5 -93.5q0 -59 57 -95zM142 476q0 -46 53 -76.5t133 -30.5q81 0 133 30.5t52 76.5q0 51 -48.5 83.5t-136.5 32.5q-89 0 -137.5 -32.5t-48.5 -83.5z" />
    <glyph glyph-name="nine" unicode="9" horiz-adv-x="655"
d="M23 425q1 100 81 164.5t219 64.5q145 0 226.5 -80t81.5 -215v-7q0 -67 -16.5 -127.5t-50.5 -114.5t-96.5 -86.5t-146.5 -32.5q-68 0 -121 15t-80 36t-44.5 42t-21.5 36l-4 15h87q1 -3 3.5 -8.5t15.5 -19.5t31 -24.5t53.5 -19.5t80.5 -9q58 0 102.5 22.5t67.5 53t37 69
t17.5 64.5t3.5 46q-2 -4 -7 -10.5t-24 -24t-42 -30.5t-64 -23.5t-89 -10.5q-133 0 -216.5 59t-83.5 156zM168 315q60 -42 155 -42q101 0 157 42.5t59 104.5q-1 69 -61 117t-155 48q-99 0 -156.5 -48t-58.5 -113q0 -67 60 -109z" />
    <glyph glyph-name="colon" unicode=":" horiz-adv-x="196"
d="M42 339q0 24 16.5 40.5t39.5 16.5t40 -16.5t17 -40.5q0 -23 -17 -39.5t-40 -16.5t-39.5 16.5t-16.5 39.5zM59 92q16 16 39 16t40 -16.5t17 -40.5q0 -23 -17 -39.5t-40 -16.5t-39.5 16.5t-16.5 39.5q0 24 17 41z" />
    <glyph glyph-name="semicolon" unicode=";" horiz-adv-x="232"
d="M82 103h99l-91 -182h-48zM78 339q0 24 16.5 40.5t39.5 16.5t40 -16.5t17 -40.5q0 -23 -17 -39.5t-40 -16.5t-39.5 16.5t-16.5 39.5z" />
    <glyph glyph-name="less" unicode="&#x3c;" horiz-adv-x="686"
d="M571 454v-67l-361 -94l361 -94v-68l-457 122v80z" />
    <glyph glyph-name="equal" unicode="=" horiz-adv-x="686"
d="M571 420v-67h-457v67h457zM114 173v67h457v-67h-457z" />
    <glyph glyph-name="greater" unicode="&#x3e;" horiz-adv-x="686"
d="M475 293l-361 94v67l457 -121v-80l-457 -122v68z" />
    <glyph glyph-name="question" unicode="?" horiz-adv-x="622"
d="M135 610q65 42 174 43h9q120 0 187.5 -52.5t67.5 -122.5v-12q-2 -40 -28 -70.5t-60 -50.5l-69 -41q-35 -21 -59 -53.5t-24 -76.5h-73v5q0 52 21 91t53 61.5t64.5 41t57.5 41.5t29 52q1 7 1 13q0 44 -42.5 76t-129.5 32h-5q-52 -1 -89 -15.5t-53 -34.5t-25 -39.5
t-10 -33.5v-14h-84q0 106 87 160zM241 51q0 24 16.5 40.5t39.5 16.5t40 -16.5t17 -40.5q0 -23 -17 -39.5t-40 -16.5t-39.5 16.5t-16.5 39.5z" />
    <glyph glyph-name="at" unicode="@" horiz-adv-x="997"
d="M25 313q16 170 151 269t337 99h4q199 0 326.5 -95.5t130.5 -259.5v-6q0 -98 -58 -168t-141 -70h-13q-99 7 -119 85q-63 -80 -171 -81h-7q-96 0 -157.5 51t-61.5 129q0 8 1 17q6 90 75 147t170 57h11q107 -2 162 -74l6 49h59l-24 -200q-3 -35 -3 -64t17 -48t52 -19h2
q60 0 94 56.5t34 130.5v8q-2 137 -107.5 218t-278.5 81h-4q-177 0 -289 -88.5t-122 -231.5q-1 -18 -1 -34q0 -143 105 -237t307 -94q60 0 110.5 8.5t80 20t50.5 23.5t29 20l8 9h88q-4 -6 -11.5 -15t-38.5 -32.5t-69 -41.5t-105 -33t-144 -15q-232 0 -359.5 111t-127.5 274
q0 21 2 44zM360 180q41 -39 113 -39h7q73 1 118 47t50 104q1 9 1 17q0 58 -38.5 91t-110.5 35h-3q-76 0 -124.5 -43t-52.5 -109v-10q0 -56 40 -93z" />
    <glyph glyph-name="A" unicode="A" horiz-adv-x="761"
d="M4 0l335 643h90l328 -643h-89l-68 137h-438l-69 -137h-89zM567 204l-184 372l-187 -372h371z" />
    <glyph glyph-name="B" unicode="B" horiz-adv-x="713"
d="M48 0v643h359q252 0 252 -173q0 -90 -101 -125q127 -37 127 -161q0 -85 -63 -134.5t-189 -49.5h-385zM432 67q167 0 167 118q0 61 -42 87.5t-125 26.5h-303v-232h303zM129 366l50 -1h252q71 0 109 26.5t38 77.5q0 107 -171 107h-278v-210z" />
    <glyph glyph-name="C" unicode="C" horiz-adv-x="784"
d="M23 321q0 147 106.5 239.5t283.5 92.5q223 0 314 -133q21 -31 33 -72h-87q-2 6 -6 15t-23.5 32.5t-45.5 41.5t-75.5 32.5t-109.5 14.5q-145 0 -224.5 -75.5t-79.5 -187.5q0 -110 81 -186t223 -76q61 0 110 14t75.5 34t44 40t22.5 34l5 14h87q-1 -8 -7 -25t-29 -50
t-57.5 -60.5t-100.5 -48.5t-150 -21q-178 0 -284 92t-106 239z" />
    <glyph glyph-name="D" unicode="D" horiz-adv-x="768"
d="M395 643q162 0 255.5 -88t93.5 -234q0 -145 -93.5 -233t-255.5 -88h-347v643h347zM395 67q130 1 198 74.5t68 179.5q0 116 -66.5 185.5t-199.5 69.5h-266v-509h266z" />
    <glyph glyph-name="E" unicode="E" horiz-adv-x="658"
d="M48 643h568v-67h-487v-219h440v-67h-440v-223h497v-67h-578v643z" />
    <glyph glyph-name="F" unicode="F" horiz-adv-x="631"
d="M598 643v-67h-469v-230h419v-67h-419v-279h-81v643h550z" />
    <glyph glyph-name="G" unicode="G" horiz-adv-x="794"
d="M128 561q104 92 282 92q48 0 90 -7t73 -17t58.5 -27t45 -30.5t33 -34t23 -31.5t15 -28.5t8.5 -19.5l2 -10h-87q-2 6 -5.5 15t-22.5 32.5t-45 41.5t-76 32.5t-112 14.5q-145 0 -223.5 -75.5t-78.5 -187.5q0 -109 80 -185.5t222 -76.5q70 0 123 18t83.5 48.5t46 63.5
t19.5 68h-296v67h382v-16q0 -41 -9 -82.5t-35 -86t-66 -77t-104 -52.5t-144 -20q-173 0 -280 92t-107 239q0 148 105 240z" />
    <glyph glyph-name="H" unicode="H" horiz-adv-x="772"
d="M129 643v-288h514v288h81v-643h-81v288h-514v-288h-81v643h81z" />
    <glyph glyph-name="I" unicode="I" horiz-adv-x="634"
d="M23 67h254v509h-251v67h582v-67h-251v-509h254v-67h-588v67z" />
    <glyph glyph-name="J" unicode="J" horiz-adv-x="665"
d="M30 273h84q0 -22 6 -47.5t21 -55.5t38 -54.5t60.5 -40.5t84.5 -16q116 0 166.5 55.5t50.5 156.5v372h81v-372q0 -281 -298 -281q-143 0 -218.5 73.5t-75.5 209.5z" />
    <glyph glyph-name="K" unicode="K" horiz-adv-x="712"
d="M48 0v643h81v-361l426 361h103l-326 -282l368 -361h-100l-326 312l-145 -126v-186h-81z" />
    <glyph glyph-name="L" unicode="L" horiz-adv-x="608"
d="M129 67h450v-67h-531v643h81v-576z" />
    <glyph glyph-name="M" unicode="M" horiz-adv-x="929"
d="M48 643l10 -1v1h82l324 -572l324 572h83v-1l10 1v-643h-81v518l-294 -518h-84l-293 518v-518h-81v643z" />
    <glyph glyph-name="N" unicode="N" horiz-adv-x="777"
d="M48 643h99l501 -556l1 556h80v-643h-96l-504 558v-558h-81v643z" />
    <glyph glyph-name="O" unicode="O" horiz-adv-x="828"
d="M130 558q107 95 284 95q179 0 284.5 -95t105.5 -237t-105.5 -236.5t-284.5 -94.5q-177 0 -284 95t-107 236q0 142 107 237zM189 136q80 -77 225 -77q147 0 226 77t79 185q0 109 -79 186t-226 77q-145 0 -225.5 -77.5t-80.5 -185.5t81 -185z" />
    <glyph glyph-name="P" unicode="P" horiz-adv-x="682"
d="M394 643q131 0 198 -53t67 -145q0 -87 -68 -142.5t-197 -55.5h-265v-247h-81v643h346zM129 576v-262h265q91 0 136.5 37t45.5 94q0 62 -44.5 96.5t-137.5 34.5h-265z" />
    <glyph glyph-name="Q" unicode="Q" horiz-adv-x="828"
d="M130 558q107 95 284 95q179 0 284.5 -95t105.5 -237q0 -133 -94.5 -226t-256.5 -104v-28q0 -18 5.5 -24t22.5 -6h99v-65h-99q-58 0 -81.5 20.5t-23.5 74.5v28q-161 11 -257 104t-96 226q0 142 107 237zM178 147q70 -75 198 -86v104h76l1 -104q129 11 197.5 85t68.5 175
q0 109 -79 186t-226 77q-145 0 -225.5 -77.5t-80.5 -185.5q0 -100 70 -174z" />
    <glyph glyph-name="R" unicode="R" horiz-adv-x="693"
d="M48 643h346q131 0 198 -53t67 -145q0 -117 -112 -169q43 -7 65 -28.5t22 -66.5v-181h-80v181q0 37 -18 51.5t-58 14.5h-349v-247h-81v643zM129 314h265q91 0 136.5 37t45.5 94q0 62 -44.5 96.5t-137.5 34.5h-265v-262z" />
    <glyph glyph-name="S" unicode="S" horiz-adv-x="723"
d="M24 194h87q0 -3 1 -8t6.5 -19t14.5 -27t28.5 -28.5t45 -27t66 -19t90.5 -7.5q127 0 186 39.5t59 86.5q0 43 -40.5 69.5t-102 36.5t-133.5 21.5t-134.5 24t-105 45t-45.5 82.5v8q0 84 82 133t226 49q85 0 148.5 -17t94 -39t49 -49.5t21.5 -41t3 -20.5h-87q-1 4 -3 10.5
t-15.5 24t-35.5 30.5t-68 23.5t-107 10.5q-106 0 -165 -31t-59 -79v-8q3 -34 46.5 -54.5t106 -28t134.5 -19.5t133.5 -28t102 -54.5t40.5 -97.5q0 -93 -88 -144t-243 -51q-88 0 -155 21t-100.5 48t-54 60t-25 50t-4.5 25z" />
    <glyph glyph-name="T" unicode="T" horiz-adv-x="716"
d="M23 643h670v-67h-295v-576h-81v576h-294v67z" />
    <glyph glyph-name="U" unicode="U" horiz-adv-x="763"
d="M124 643v-371q0 -95 61.5 -154t195.5 -59q135 0 196 59t61 154v371h81v-371q0 -59 -16 -106.5t-52.5 -89t-105 -64t-164.5 -22.5q-95 0 -163 23t-104.5 63.5t-53 88.5t-16.5 107v371h80z" />
    <glyph glyph-name="V" unicode="V" horiz-adv-x="784"
d="M105 643l290 -576l284 576h89l-328 -643h-89l-335 643h89z" />
    <glyph glyph-name="W" unicode="W" horiz-adv-x="1225"
d="M105 643l240 -565l230 565h75l231 -564l239 564h89l-284 -643h-89l-223 554l-223 -554h-89l-285 643h89z" />
    <glyph glyph-name="X" unicode="X" horiz-adv-x="835"
d="M369 328l-330 315h103l274 -262l277 262h102l-326 -312l346 -331h-103l-290 277l-298 -277h-103z" />
    <glyph glyph-name="Y" unicode="Y" horiz-adv-x="766"
d="M111 643l272 -323l272 323h95l-327 -389v-254h-80v254l-327 389h95z" />
    <glyph glyph-name="Z" unicode="Z" horiz-adv-x="802"
d="M146 67h620v-67h-729v67l614 509h-592v67h702v-64z" />
    <glyph glyph-name="bracketleft" unicode="[" horiz-adv-x="305"
d="M257 734v-60h-137v-721h137v-59h-209v840h209z" />
    <glyph glyph-name="backslash" unicode="\" horiz-adv-x="411"
d="M284 0l-365 643h79l365 -643h-79z" />
    <glyph glyph-name="bracketright" unicode="]" horiz-adv-x="305"
d="M48 674v60h209v-840h-209v59h137v721h-137z" />
    <glyph glyph-name="asciicircum" unicode="^" horiz-adv-x="482"
d="M201 658h80l161 -286h-68l-133 238l-133 -238h-69z" />
    <glyph glyph-name="underscore" unicode="_" horiz-adv-x="825"
d="M710 -72h-596v67h596v-67z" />
    <glyph glyph-name="grave" unicode="`" horiz-adv-x="293"
d="M160 617l85 -117h-62l-135 117h112z" />
    <glyph glyph-name="a" unicode="a" horiz-adv-x="621"
d="M34 115q0 28 17 52t40.5 40t61.5 29t69.5 20.5t75 13.5t67 8t58 4t35.5 2q-1 116 -157 116q-41 0 -72.5 -8t-46 -19.5t-23.5 -23t-11 -19.5l-1 -8h-84q2 10 4.5 19t18 33.5t38.5 41t69.5 30.5t108.5 14q114 0 174 -45.5t60 -130.5v-188q0 -17 5.5 -23t21.5 -6h40v-67h-41
q-56 0 -79 18.5t-25 68.5q-73 -97 -236 -97q-93 0 -140.5 34t-47.5 89v2zM149 68q32 -17 80 -17h6q48 0 98 14.5t87 46t38 71.5v44q-337 -17 -340 -113v-2q0 -28 31 -44z" />
    <glyph glyph-name="b" unicode="b" horiz-adv-x="628"
d="M127 643v-270q73 85 198 87h4q126 0 201.5 -66t75.5 -171q0 -107 -75.5 -170t-196.5 -63h-15q-123 3 -195 92v-82h-76v643h79zM179 101q54 -49 141 -49q85 0 145 48t60 123q0 80 -59 127.5t-146 47.5t-141.5 -48t-54.5 -125q0 -75 55 -124z" />
    <glyph glyph-name="c" unicode="c" horiz-adv-x="579"
d="M98 396q75 64 205 64q64 0 113.5 -14.5t74.5 -35.5t40.5 -42t19.5 -36l4 -14h-85q-1 3 -3.5 8.5t-14.5 19.5t-28.5 24.5t-48.5 19.5t-72 9q-92 0 -145.5 -47.5t-53.5 -124.5q0 -78 54 -127t145 -49q40 0 72 10t49 24.5t28 29.5t14 25l4 10h84q-1 -7 -4 -17.5t-19.5 -38
t-41 -48.5t-74 -38.5t-112.5 -17.5q-131 0 -206 63.5t-75 173.5q0 105 76 169z" />
    <glyph glyph-name="d" unicode="d" horiz-adv-x="628"
d="M98 395q75 65 201 65h4q127 -2 198 -88v271h79v-643h-76v83q-72 -90 -195 -93h-15q-121 0 -196.5 63t-75.5 170q0 105 76 172zM163 100q60 -48 145 -48q88 0 142 49t54 124q0 77 -54 125t-142 48q-87 0 -146 -47.5t-59 -127.5q0 -75 60 -123z" />
    <glyph glyph-name="e" unicode="e" horiz-adv-x="575"
d="M22 224q0 105 71 170.5t199 65.5q95 0 157.5 -39t83 -90t20.5 -101q0 -15 -2 -31h-449q5 -66 54 -107t137 -41q40 0 72.5 9t49.5 22t29 26.5t16 22.5l3 9h81q-1 -6 -4.5 -16t-20.5 -36t-42 -46t-74 -36t-111 -16q-124 0 -197 63.5t-73 170.5zM474 260q0 58 -48.5 98.5
t-132.5 40.5q-88 0 -136.5 -41t-54.5 -98h372z" />
    <glyph glyph-name="f" unicode="f" horiz-adv-x="394"
d="M106 450v96q0 56 23.5 76.5t83.5 20.5h156v-67h-156q-17 0 -23 -6.5t-6 -23.5v-96h185v-66h-185v-384h-78v384h-88v66h88z" />
    <glyph glyph-name="g" unicode="g" horiz-adv-x="628"
d="M22 223q0 105 75.5 171t201.5 66h4q129 -2 201 -91v81h76v-536q0 -56 -24 -76.5t-83 -20.5h-411v67h411q16 0 22 6t6 23v167q-71 -87 -192 -90h-15q-121 0 -196.5 63t-75.5 170zM103 223q0 -75 60 -123t145 -48q88 0 142 49t54 124q0 77 -54 125t-142 48
q-87 0 -146 -47.5t-59 -127.5z" />
    <glyph glyph-name="h" unicode="h" horiz-adv-x="595"
d="M48 643h79v-280q23 43 70.5 69.5t113.5 27.5h6q236 0 236 -216v-244h-78v244q0 81 -42 116.5t-124 35.5q-182 0 -182 -176v-220h-79v643z" />
    <glyph glyph-name="i" unicode="i" horiz-adv-x="209"
d="M144 450v-450h-79v450h79zM48 597q0 24 16.5 40.5t39.5 16.5q24 0 40.5 -16.5t16.5 -40.5q0 -23 -16.5 -39.5t-40.5 -16.5q-23 0 -39.5 16.5t-16.5 39.5z" />
    <glyph glyph-name="j" unicode="j" horiz-adv-x="213"
d="M42 -116q17 0 22.5 6t5.5 24v536h79v-536q0 -56 -24 -76.5t-83 -20.5h-103v67h103zM53 597q0 24 16 40.5t39 16.5q24 0 40.5 -16.5t16.5 -40.5q0 -23 -16.5 -39.5t-40.5 -16.5q-22 0 -38.5 16.5t-16.5 39.5z" />
    <glyph glyph-name="k" unicode="k" horiz-adv-x="553"
d="M48 0v643h79v-437l290 244h104l-221 -186l246 -264h-97l-205 217l-117 -98v-119h-79z" />
    <glyph glyph-name="l" unicode="l" horiz-adv-x="241"
d="M51 643h78v-546q0 -17 6 -23.5t22 -6.5h67v-67h-67q-59 0 -82.5 20.5t-23.5 76.5v546z" />
    <glyph glyph-name="m" unicode="m" horiz-adv-x="978"
d="M123 450v-93q20 46 67 74t114 29h6q154 0 202 -108q22 46 75 76.5t122 31.5h8q103 0 161.5 -53.5t58.5 -162.5v-244h-79v244q0 152 -153 152q-173 0 -173 -175v-221h-79v244q0 152 -154 152q-173 0 -173 -177v-219h-79v450h76z" />
    <glyph glyph-name="n" unicode="n" horiz-adv-x="594"
d="M47 0v450h76v-94q21 46 69.5 74.5t117.5 29.5h7q236 0 236 -216v-244h-79v244q0 81 -41.5 116.5t-123.5 35.5q-88 0 -135.5 -44t-47.5 -132v-220h-79z" />
    <glyph glyph-name="o" unicode="o" horiz-adv-x="615"
d="M22 225q0 102 78.5 168.5t207.5 66.5q128 0 206.5 -66.5t78.5 -168.5q0 -104 -78 -169q-78 -66 -207 -66t-207.5 66t-78.5 169zM159 100q56 -49 149 -49q91 0 147.5 49t56.5 125q0 75 -56.5 124.5t-147.5 49.5q-92 0 -148.5 -49t-56.5 -125q0 -77 56 -125z" />
    <glyph glyph-name="p" unicode="p" horiz-adv-x="629"
d="M125 450v-80q71 88 200 90h4q127 0 202 -65.5t75 -171.5q0 -107 -75.5 -170t-195.5 -63h-15q-122 3 -193 90v-263h-78v633h76zM179 101q54 -49 142 -49q85 0 144.5 48t59.5 123q0 80 -58.5 127.5t-145.5 47.5q-89 0 -142.5 -48t-53.5 -125q0 -75 54 -124z" />
    <glyph glyph-name="q" unicode="q" horiz-adv-x="626"
d="M98 395q75 65 201 65h4q129 -2 201 -91v81h76v-633h-79v263q-71 -87 -192 -90h-15q-121 0 -196.5 63t-75.5 170q0 105 76 172zM163 100q60 -48 145 -48q88 0 142 49t54 124q0 77 -54 125t-142 48q-87 0 -146 -47.5t-59 -127.5q0 -75 60 -123z" />
    <glyph glyph-name="r" unicode="r" horiz-adv-x="385"
d="M47 0v450h76l1 -92q42 92 149 92h91v-66h-89q-41 0 -69 -11t-43.5 -28t-24 -51t-10.5 -67t-2 -89v-138h-79z" />
    <glyph glyph-name="s" unicode="s" horiz-adv-x="540"
d="M106 140q0 -4 1.5 -10t11.5 -21t25.5 -27t49 -21.5t78.5 -9.5q81 0 122 22t41 58v4q-2 31 -43.5 47t-99.5 22.5t-116 15.5t-98.5 35.5t-41.5 72.5q0 50 57.5 91t171.5 41q59 0 104.5 -13.5t67.5 -28.5t38 -38.5t17.5 -30t4.5 -17.5h-84q0 3 -2 7.5t-11 16.5t-23.5 21.5
t-44 17t-67.5 7.5q-70 0 -109.5 -20t-39.5 -51v-3q1 -27 42 -40.5t99.5 -20t117 -16.5t100 -38.5t43.5 -77.5v-4q0 -61 -59 -101t-187 -40q-65 0 -114.5 15.5t-74 35.5t-39.5 44t-18.5 37t-3.5 18h84z" />
    <glyph glyph-name="t" unicode="t" horiz-adv-x="392"
d="M9 450h90v131h78v-131h184v-66h-184v-287q0 -17 6 -23.5t23 -6.5h152v-67h-152q-60 0 -83.5 20.5t-23.5 76.5v287h-90v66z" />
    <glyph glyph-name="u" unicode="u" horiz-adv-x="580"
d="M40 199v251h79v-251q0 -145 158 -145q79 0 127.5 43t48.5 126v227h79v-450h-77v95q-22 -43 -68 -73.5t-112 -31.5h-7q-228 0 -228 209z" />
    <glyph glyph-name="v" unicode="v" horiz-adv-x="573"
d="M95 450l192 -380l191 380h86l-235 -450h-86l-234 450h86z" />
    <glyph glyph-name="w" unicode="w" horiz-adv-x="901"
d="M95 450l157 -378l162 378h74l160 -378l158 378h86l-202 -450h-85l-155 371l-155 -371h-85l-201 450h86z" />
    <glyph glyph-name="x" unicode="x" horiz-adv-x="636"
d="M268 232l-236 218h102l181 -167l181 167h102l-231 -216l253 -234h-102l-198 183l-202 -183h-102z" />
    <glyph glyph-name="y" unicode="y" horiz-adv-x="552"
d="M102 450l177 -375l178 375h86l-260 -535q-28 -57 -43 -72q-27 -26 -83 -26h-123v67h123q21 0 28 5.5t18 25.5l40 84l-226 451h85z" />
    <glyph glyph-name="z" unicode="z" horiz-adv-x="575"
d="M133 66h419v-66h-526v66l403 318h-389v66h498v-63z" />
    <glyph glyph-name="braceleft" unicode="{" horiz-adv-x="295"
d="M48 323q28 0 44.5 12t16.5 50v251q0 39 20 57.5t65 18.5h53v-56h-52q-21 0 -21 -22v-249q0 -58 -36 -82q36 -26 36 -83v-242q0 -22 21 -22h52v-56h-53q-45 0 -65 18.5t-20 57.5v244q0 38 -16 50t-45 12v41z" />
    <glyph glyph-name="bar" unicode="|" horiz-adv-x="170"
d="M122 -70h-74v783h74v-783z" />
    <glyph glyph-name="braceright" unicode="}" horiz-adv-x="295"
d="M48 -44h52q21 0 21 22v242q0 57 36 83q-36 24 -36 82v249q0 22 -21 22h-52v56h53q45 0 64.5 -18t19.5 -58v-251q0 -38 17 -50t45 -12v-41q-29 0 -45.5 -12t-16.5 -50v-244q0 -40 -19.5 -58t-64.5 -18h-53v56z" />
    <glyph glyph-name="asciitilde" unicode="~" horiz-adv-x="745"
d="M156 336q42 41 114 41q51 0 111.5 -30.5t92.5 -30.5q26 0 46.5 6t31.5 14.5t18.5 17.5t9.5 15l2 6h49q0 -40 -42.5 -82t-113.5 -42q-47 0 -107.5 31t-96.5 31q-26 0 -47 -6t-32 -15t-18 -18t-9 -15l-2 -6h-49q0 41 42 83z" />
    <glyph glyph-name="exclamdown" unicode="&#xa1;" horiz-adv-x="195"
d="M62 0l11 460h64l11 -460h-86zM48 592q0 23 16.5 39.5t39.5 16.5q24 0 40.5 -16.5t16.5 -39.5q0 -24 -16.5 -40.5t-40.5 -16.5q-23 0 -39.5 16.5t-16.5 40.5z" />
    <glyph glyph-name="cent" unicode="&#xa2;" horiz-adv-x="579"
d="M86 386q63 62 174 72v73h80v-72q54 -4 96.5 -20t63.5 -36t34.5 -39.5t17.5 -32.5l3 -13h-85q-1 3 -3.5 8.5t-14.5 19.5t-28.5 24.5t-48.5 19.5t-72 9q-92 0 -145.5 -47.5t-53.5 -124.5q0 -78 54 -127t145 -49q40 0 72 10t49 24.5t28 29.5t14 25l4 10h84q-1 -6 -3.5 -15.5
t-16.5 -35t-35 -45.5t-63 -39t-96 -23v-73h-80v73q-112 10 -175 72t-63 163q0 96 64 159z" />
    <glyph glyph-name="sterling" unicode="&#xa3;" horiz-adv-x="657"
d="M48 255v68h55q-13 102 -13 135v3q0 78 61 135t193 57q78 0 133.5 -21t80 -50.5t37.5 -59.5t13 -51l1 -21h-87q0 5 -0.5 14.5t-9 32.5t-25 40.5t-54 32t-89.5 14.5q-92 0 -131.5 -34.5t-39.5 -88.5v-3q0 -12 2 -32.5t5.5 -50.5t5.5 -52h250v-68h-246v-11q0 -125 -46 -176
h456v-68h-546v68q56 56 56 162q0 12 -1 25h-61z" />
    <glyph glyph-name="currency" unicode="&#xa4;" horiz-adv-x="574"
d="M29 492l54 55l58 -57q63 38 146 38q86 0 152 -42l33 43l65 -29l-46 -60q42 -53 42 -119q0 -64 -40 -115l52 -51l-56 -55l-54 54q-64 -40 -148 -40t-148 40l-54 -54l-56 55l51 50q-41 52 -41 116q0 65 42 118zM109 321q0 -58 50.5 -98.5t126.5 -40.5q78 0 128.5 40.5
t50.5 98.5q0 59 -51 99.5t-128 40.5t-127 -40.5t-50 -99.5z" />
    <glyph glyph-name="yen" unicode="&#xa5;" horiz-adv-x="766"
d="M16 643h95l272 -323l272 323h95l-293 -349h181v-67h-215v-69h215v-67h-215v-91h-80v91h-214v67h214v69h-214v67h180z" />
    <glyph glyph-name="brokenbar" unicode="&#xa6;" horiz-adv-x="170"
d="M122 713v-325h-74v325h74zM48 -69v325h74v-325h-74z" />
    <glyph glyph-name="section" unicode="&#xa7;" horiz-adv-x="585"
d="M48 141h77q0 -4 2 -10t12 -22.5t26 -29t49.5 -22.5t76.5 -10q87 0 127.5 24t41.5 62q0 27 -28.5 43.5t-72 22t-94.5 13.5t-95 17.5t-74 34t-32 62.5v5q0 27 20 54.5t62 45.5q-79 27 -80 89v3q0 50 56.5 90t162.5 40q67 0 117.5 -14.5t74.5 -36.5t34.5 -40.5t10.5 -33.5
h-77q-1 3 -3 7.5t-12.5 16t-26 20.5t-47 16.5t-71.5 7.5q-72 0 -110 -22t-38 -50v-3q2 -26 44.5 -40t101 -20.5t116.5 -17t98 -38.5t40 -76q0 -70 -76 -97q74 -33 74 -96v-2q0 -67 -62.5 -105.5t-181.5 -38.5q-116 0 -179 47t-64 104zM135 328q4 -14 19 -24t41.5 -16.5
t51.5 -10.5t63.5 -9.5t62.5 -10.5q88 13 88 71q0 20 -13.5 33.5t-42 21t-54.5 12t-69 10t-68 9.5q-44 -11 -63 -30.5t-19 -39.5q0 -8 3 -16z" />
    <glyph glyph-name="dieresis" unicode="&#xa8;" horiz-adv-x="366"
d="M63 595q15 15 37 15q23 0 38 -15t15 -38q0 -21 -15.5 -36t-37.5 -15t-37 15t-15 36q0 23 15 38zM214 557q0 23 15.5 38t36.5 15q22 0 37 -15t15 -38q0 -21 -15 -36t-37 -15q-21 0 -36.5 15t-15.5 36z" />
    <glyph glyph-name="copyright" unicode="&#xa9;" horiz-adv-x="836"
d="M23 321q0 148 113 251q112 102 282 102t282 -102.5t112 -250.5t-112 -250t-282 -102t-282.5 102.5t-112.5 249.5zM180 114q94 -86 238 -86t238 85.5t94 207.5q0 124 -94 209t-238 85t-238 -86t-94 -208t94 -207zM199 324q0 87 62 139.5t169 52.5q52 0 93 -12t61.5 -29
t33.5 -34.5t16 -29.5l3 -12h-69q-1 3 -3 7.5t-12 16t-23.5 20.5t-40 16t-59.5 7q-76 0 -120.5 -39t-44.5 -103q0 -65 45 -105.5t120 -40.5q33 0 59.5 8.5t40.5 20.5t23 24t12 21l3 8h69q-1 -5 -3.5 -14t-16 -32t-34 -40.5t-61 -32t-92.5 -14.5q-108 0 -169.5 53t-61.5 144z
" />
    <glyph glyph-name="guillemotleft" unicode="&#xab;" horiz-adv-x="741"
d="M114 229l214 189h89l-214 -189l214 -191h-89zM325 229l214 189h88l-214 -189l214 -191h-88z" />
    <glyph glyph-name="logicalnot" unicode="&#xac;" horiz-adv-x="686"
d="M571 302h1v-125h-75v86h-383v67h457v-28z" />
    <glyph glyph-name="registered" unicode="&#xae;" horiz-adv-x="444"
d="M91 610q52 47 131 47t131 -47.5t52 -116.5q0 -68 -52 -115.5t-131 -47.5t-131 47.5t-52 115.5q0 69 52 117zM61 493q0 -60 45.5 -101t115.5 -41q71 0 116.5 41t45.5 101q0 61 -45.5 102.5t-116.5 41.5q-70 0 -115.5 -42t-45.5 -102zM151 412v168h89q69 0 69 -52
q0 -31 -28 -44q22 -3 22 -25v-47h-21v47q0 17 -20 17h-90v-64h-21zM172 563v-69h68q48 0 48 34q0 35 -48 35h-68z" />
    <glyph glyph-name="macron" unicode="&#xaf;" horiz-adv-x="429"
d="M381 509h-333v55h333v-55z" />
    <glyph glyph-name="degree" unicode="&#xb0;" horiz-adv-x="425"
d="M39 510q0 56 49 94.5t124 38.5q76 0 124.5 -38.5t48.5 -94.5t-49 -94.5t-124 -38.5t-124 38.5t-49 94.5zM98 510q0 -32 31.5 -54t82.5 -22t82.5 22t31.5 54q0 33 -31 55q-32 22 -83 22t-82.5 -22.5t-31.5 -54.5z" />
    <glyph glyph-name="plusminus" unicode="&#xb1;" horiz-adv-x="686"
d="M114 315v67h192v164h74v-164h191v-67h-191v-95h-74v95h-192zM114 168h457v-67h-457v67z" />
    <glyph glyph-name="twosuperior" unicode="&#xb2;" horiz-adv-x="408"
d="M68 412q28 34 68.5 53t81.5 34.5t70 35t30 44.5v2q0 34 -27.5 53.5t-81.5 19.5q-30 0 -52 -7.5t-32.5 -18t-16.5 -20.5t-7 -18l-1 -7h-47q0 5 1 13t10 26.5t24 33t46.5 26t74.5 11.5q77 0 116.5 -30t39.5 -79v-5q-1 -32 -25.5 -55.5t-60.5 -38.5t-73 -29.5t-68 -37
t-41 -51.5h272v-37h-330q0 47 29 82z" />
    <glyph glyph-name="threesuperior" unicode="&#xb3;" horiz-adv-x="410"
d="M87 438q0 -3 0.5 -8t7 -18t17 -23t34 -18t55.5 -8q59 0 90.5 20t31.5 54q0 29 -27 46t-55 18.5t-46 1.5q-19 0 -38 -1v39q13 -1 26 -1q45 0 81 13t36 46q0 25 -25 40.5t-76 15.5q-29 0 -49.5 -7t-30 -17.5t-14.5 -21t-5 -17.5v-7h-49q0 4 0.5 11.5t8.5 26t22 33t44.5 26
t72.5 11.5q70 0 109 -27.5t39 -66.5q0 -50 -68 -74q92 -18 92 -88v-2q0 -47 -45 -79t-125 -32q-45 0 -78.5 11.5t-49 28.5t-24 34t-9.5 28l-1 12h48z" />
    <glyph glyph-name="acute" unicode="&#xb4;" horiz-adv-x="293"
d="M133 617h112l-135 -117h-62z" />
    <glyph glyph-name="paragraph" unicode="&#xb6;" horiz-adv-x="441"
d="M48 503q0 58 41 99t97 41h77v-643h-77v365q-56 0 -97 41t-41 97zM393 643v-643h-77v643h77z" />
    <glyph glyph-name="periodcentered" unicode="&#xb7;" horiz-adv-x="209"
d="M48 271q0 24 16.5 40.5t39.5 16.5q24 0 40.5 -16.5t16.5 -40.5q0 -23 -16.5 -39t-40.5 -16q-23 0 -39.5 16t-16.5 39z" />
    <glyph glyph-name="cedilla" unicode="&#xb8;" horiz-adv-x="288"
d="M48 -65h97q16 0 21 5.5t5 21.5v50h69v-50q0 -49 -21.5 -67t-73.5 -18h-97v58z" />
    <glyph glyph-name="onesuperior" unicode="&#xb9;" horiz-adv-x="347"
d="M39 367h112v232q-14 -4 -23 -4h-89v37h89q23 0 23 30v25h45v-320h111v-37h-268v37z" />
    <glyph glyph-name="guillemotright" unicode="&#xbb;" horiz-adv-x="741"
d="M114 38l214 191l-214 189h89l214 -189l-214 -191h-89zM539 229l-214 189h88l214 -189l-214 -191h-88z" />
    <glyph glyph-name="onequarter" unicode="&#xbc;" horiz-adv-x="821"
d="M359 117l239 240h45v-240h79v-36h-79v-81h-45v81h-239v36zM712 643h61l-618 -643h-60zM160 323v232q-9 -4 -23 -4h-89v37h89q23 0 23 30v25h45v-320h111v-37h-268v37h112zM598 117v184l-185 -184h185z" />
    <glyph glyph-name="onehalf" unicode="&#xbd;" horiz-adv-x="857"
d="M478 0q0 47 28.5 81.5t69 53.5t81 34.5t69.5 35t30 44.5v4q0 31 -27 51t-81 20q-30 0 -52 -7.5t-32.5 -17t-16.5 -22t-7 -17.5t-1 -8h-47q0 5 1 13.5t10 27t24 33t46.5 26t74.5 11.5q77 0 116.5 -30t39.5 -79v-5q-1 -32 -25.5 -55.5t-60.5 -38.5t-73 -29.5t-68.5 -37
t-41.5 -51.5h273v-37h-330zM714 643h60l-617 -643h-61zM137 588q23 0 23 30v25h45v-320h111v-37h-268v37h112v232q-9 -4 -23 -4h-89v37h89z" />
    <glyph glyph-name="threequarters" unicode="&#xbe;" horiz-adv-x="853"
d="M629 357h45v-240h79v-36h-79v-81h-45v81h-239v36zM48 390h48q0 -3 0.5 -8t7 -18t17 -23t33.5 -18t55 -8q60 0 91 20t31 54q0 22 -15.5 37.5t-40 21t-45 7t-31.5 1.5q-17 0 -33 -2v39q13 -1 25 -1q45 0 81.5 13.5t36.5 45.5q0 56 -101 56q-29 0 -50 -7t-30 -17.5t-14 -21
t-6 -17.5v-7h-48q0 4 0.5 11.5t8.5 26t21.5 33t44.5 26t73 11.5q70 0 109 -27.5t39 -66.5q0 -50 -69 -74q92 -18 93 -88v-2q0 -47 -45.5 -79t-125.5 -32q-45 0 -78.5 11.5t-48.5 28.5t-23.5 34t-9.5 28zM127 0l618 643h60l-617 -643h-61zM629 117v184l-185 -184h185z" />
    <glyph glyph-name="questiondown" unicode="&#xbf;" horiz-adv-x="622"
d="M49 179q2 40 28 70.5t61 51.5l69 41q34 20 58 52.5t24 76.5h73v-5q0 -52 -21 -91t-53 -61.5t-64.5 -41t-57.5 -41.5t-29 -52q-1 -7 -1 -13q0 -44 42.5 -76t129.5 -32h5q52 1 89 15.5t53 34.5t25 39.5t10 33.5v14h84q0 -106 -87 -160q-66 -42 -174 -43h-9
q-120 0 -187.5 52.5t-67.5 122.5v12zM285 634q17 16 40 16t39.5 -16.5t16.5 -39.5q0 -24 -16.5 -40.5t-39.5 -16.5t-40 16.5t-17 40.5q0 23 17 40z" />
    <glyph glyph-name="Agrave" unicode="&#xc0;" horiz-adv-x="761"
d="M339 643h90l328 -643h-89l-68 137h-438l-69 -137h-89zM567 204l-184 372l-187 -372h371zM324 810l85 -117h-62l-135 117h112z" />
    <glyph glyph-name="Aacute" unicode="&#xc1;" horiz-adv-x="761"
d="M339 643h90l328 -643h-89l-68 137h-438l-69 -137h-89zM567 204l-184 372l-187 -372h371zM449 810h112l-135 -117h-62z" />
    <glyph glyph-name="Acircumflex" unicode="&#xc2;" horiz-adv-x="761"
d="M339 643h90l328 -643h-89l-68 137h-438l-69 -137h-89zM567 204l-184 372l-187 -372h371zM187 696l150 114h91l151 -114h-83l-113 84l-113 -84h-83z" />
    <glyph glyph-name="Atilde" unicode="&#xc3;" horiz-adv-x="761"
d="M339 643h90l328 -643h-89l-68 137h-438l-69 -137h-89zM567 204l-184 372l-187 -372h371zM180 701q0 38 33 67.5t85 29.5h3q42 -1 91.5 -21t81.5 -21h10q19 0 36 3.5t26 9.5t14.5 12.5t6.5 10.5l1 5h26q0 -39 -33.5 -68t-84.5 -29h-4q-42 1 -91.5 19.5t-80.5 19.5h-12
q-29 0 -50.5 -8.5t-26.5 -18.5l-5 -11h-26z" />
    <glyph glyph-name="Adieresis" unicode="&#xc4;" horiz-adv-x="761"
d="M339 643h90l328 -643h-89l-68 137h-438l-69 -137h-89zM567 204l-184 372l-187 -372h371zM411 747q0 23 15.5 38t36.5 15q23 0 38 -15t15 -38q0 -21 -15.5 -36t-37.5 -15q-21 0 -36.5 15t-15.5 36zM245 747q0 23 15.5 38t36.5 15q23 0 38 -15t15 -38q0 -21 -15.5 -36
t-37.5 -15q-21 0 -36.5 15t-15.5 36z" />
    <glyph glyph-name="Aring" unicode="&#xc5;" horiz-adv-x="761"
d="M339 643h90l328 -643h-89l-68 137h-438l-69 -137h-89zM567 204l-184 372l-187 -372h371zM267 774q0 36 33.5 60.5t83.5 24.5q49 0 83 -25t34 -60q0 -36 -34 -61t-83 -25q-50 0 -83.5 25t-33.5 61zM329 740q21 -14 55 -14q33 0 55 14t22 34t-22 34t-55 14
q-34 0 -55.5 -13.5t-21.5 -34.5t22 -34z" />
    <glyph glyph-name="AE" unicode="&#xc6;" horiz-adv-x="1082"
d="M4 0l426 643h610v-67h-487v-219h440v-67h-440v-223h497v-67h-578v120h-303l-80 -120h-85zM472 187v391l-259 -391h259z" />
    <glyph glyph-name="Ccedilla" unicode="&#xc7;" horiz-adv-x="784"
d="M130 561q106 92 283 92q223 0 314 -133q21 -31 33 -72h-87q-2 6 -6 15t-23.5 32.5t-45.5 41.5t-75.5 32.5t-109.5 14.5q-145 0 -224.5 -75.5t-79.5 -187.5q0 -110 81 -186t223 -76q61 0 110 14t75.5 34t44 40t22.5 34l5 14h87q-1 -7 -6.5 -23t-26.5 -47.5t-52.5 -58
t-90.5 -49t-134 -26.5v-30q0 -48 -21.5 -66t-72.5 -18h-98v58h98q15 0 20.5 5.5t5.5 20.5v30q-164 9 -260 99.5t-96 230.5q0 147 107 240z" />
    <glyph glyph-name="Egrave" unicode="&#xc8;" horiz-adv-x="658"
d="M48 643h568v-67h-487v-219h440v-67h-440v-223h497v-67h-578v643zM275 810l85 -117h-62l-135 117h112z" />
    <glyph glyph-name="Eacute" unicode="&#xc9;" horiz-adv-x="658"
d="M48 643h568v-67h-487v-219h440v-67h-440v-223h497v-67h-578v643zM315 693l85 117h111l-135 -117h-61z" />
    <glyph glyph-name="Ecircumflex" unicode="&#xca;" horiz-adv-x="658"
d="M616 643v-67h-487v-219h440v-67h-440v-223h497v-67h-578v643h568zM288 810h91l151 -114h-83l-113 84l-114 -84h-83z" />
    <glyph glyph-name="Edieresis" unicode="&#xcb;" horiz-adv-x="658"
d="M48 643h568v-67h-487v-219h440v-67h-440v-223h497v-67h-578v643zM362 747q0 23 15.5 38t36.5 15q23 0 38 -15t15 -38q0 -21 -15.5 -36t-37.5 -15q-21 0 -36.5 15t-15.5 36zM196 747q0 23 15.5 38t36.5 15q23 0 38 -15t15 -38q0 -21 -15.5 -36t-37.5 -15q-21 0 -36.5 15
t-15.5 36z" />
    <glyph glyph-name="Igrave" unicode="&#xcc;" horiz-adv-x="634"
d="M277 67v509h-251v67h582v-67h-251v-509h254v-67h-588v67h254zM145 810h112l85 -117h-62z" />
    <glyph glyph-name="Iacute" unicode="&#xcd;" horiz-adv-x="634"
d="M23 0v67h254v509h-251v67h582v-67h-251v-509h254v-67h-588zM297 693l85 117h112l-135 -117h-62z" />
    <glyph glyph-name="Icircumflex" unicode="&#xce;" horiz-adv-x="634"
d="M23 67h254v509h-251v67h582v-67h-251v-509h254v-67h-588v67zM270 810h92l150 -114h-83l-113 84l-113 -84h-83z" />
    <glyph glyph-name="Idieresis" unicode="&#xcf;" horiz-adv-x="634"
d="M277 67v509h-251v67h582v-67h-251v-509h254v-67h-588v67h254zM194 785q15 15 36 15q23 0 38 -15t15 -38q0 -21 -15 -36t-38 -15q-21 0 -36 15t-15 36q0 23 15 38zM345 747q0 23 15 38t36 15q23 0 38 -15t15 -38q0 -21 -15.5 -36t-37.5 -15q-20 0 -35.5 15t-15.5 36z" />
    <glyph glyph-name="Eth" unicode="&#xd0;" horiz-adv-x="872"
d="M48 297v53h105v293h347q162 0 255.5 -88t93.5 -234q0 -144 -94 -232.5t-255 -88.5h-347v297h-105zM233 350h220l1 -53h-221v-230h267q130 1 198 74.5t68 179.5q0 116 -67 185.5t-199 69.5h-267v-226z" />
    <glyph glyph-name="Ntilde" unicode="&#xd1;" horiz-adv-x="777"
d="M48 643h99l501 -556l1 556h80v-643h-96l-504 558v-558h-81v643zM205 701q0 38 33 67.5t85 29.5h3q42 -1 91.5 -21t81.5 -21h10q19 0 36 3.5t26 9.5t14.5 12.5t6.5 10.5l1 5h26q0 -39 -33.5 -68t-84.5 -29h-4q-42 1 -91.5 19.5t-80.5 19.5h-12q-29 0 -50.5 -8.5
t-26.5 -18.5l-5 -11h-26z" />
    <glyph glyph-name="Ograve" unicode="&#xd2;" horiz-adv-x="828"
d="M130 558q107 95 284 95q179 0 284.5 -95t105.5 -237t-105.5 -236.5t-284.5 -94.5q-177 0 -284 95t-107 236q0 142 107 237zM108 321q0 -108 80.5 -185t225.5 -77q147 0 226 77t79 185q0 109 -79 186t-226 77q-145 0 -225.5 -77.5t-80.5 -185.5zM354 810l85 -117h-61
l-136 117h112z" />
    <glyph glyph-name="Oacute" unicode="&#xd3;" horiz-adv-x="828"
d="M130 558q107 95 284 95q179 0 284.5 -95t105.5 -237t-105.5 -236.5t-284.5 -94.5q-177 0 -284 95t-107 236q0 142 107 237zM108 321q0 -108 80.5 -185t225.5 -77q147 0 226 77t79 185q0 109 -79 186t-226 77q-145 0 -225.5 -77.5t-80.5 -185.5zM394 693l85 117h112
l-135 -117h-62z" />
    <glyph glyph-name="Ocircumflex" unicode="&#xd4;" horiz-adv-x="828"
d="M23 321q0 142 107 237t284 95q179 0 284.5 -95t105.5 -237t-105.5 -236.5t-284.5 -94.5q-177 0 -284 95t-107 236zM189 136q80 -77 225 -77q147 0 226 77t79 185q0 109 -79 186t-226 77q-145 0 -225.5 -77.5t-80.5 -185.5t81 -185zM368 810h91l151 -114h-84l-113 84
l-113 -84h-83z" />
    <glyph glyph-name="Otilde" unicode="&#xd5;" horiz-adv-x="828"
d="M23 321q0 142 107 237t284 95q179 0 284.5 -95t105.5 -237t-105.5 -236.5t-284.5 -94.5q-177 0 -284 95t-107 236zM189 136q80 -77 225 -77q147 0 226 77t79 185q0 109 -79 186t-226 77q-145 0 -225.5 -77.5t-80.5 -185.5t81 -185zM210 701q0 38 33 67.5t85 29.5h4
q41 -1 91 -21t82 -21h10q19 0 35.5 3.5t25.5 9.5t15 12.5t7 10.5l1 5h25q0 -39 -33.5 -68t-84.5 -29h-3q-42 1 -91.5 19.5t-80.5 19.5h-12q-29 0 -51 -8.5t-27 -18.5l-5 -11h-26z" />
    <glyph glyph-name="Odieresis" unicode="&#xd6;" horiz-adv-x="828"
d="M23 321q0 142 107 237t284 95q179 0 284.5 -95t105.5 -237t-105.5 -236.5t-284.5 -94.5q-177 0 -284 95t-107 236zM108 321q0 -108 80.5 -185t225.5 -77q147 0 226 77t79 185q0 109 -79 186t-226 77q-145 0 -225.5 -77.5t-80.5 -185.5zM276 747q0 23 15 38t37 15
q23 0 38 -15t15 -38q0 -21 -15.5 -36t-37.5 -15t-37 15t-15 36zM458 785q15 15 36 15q22 0 37 -15t15 -38q0 -21 -15 -36t-37 -15q-21 0 -36.5 15t-15.5 36q0 23 16 38z" />
    <glyph glyph-name="multiply" unicode="&#xd7;" horiz-adv-x="621"
d="M507 421l-145 -123l144 -122l-44 -50l-151 128l-152 -128l-44 49l144 123l-145 123l45 49l152 -129l151 129z" />
    <glyph glyph-name="Oslash" unicode="&#xd8;" horiz-adv-x="828"
d="M23 321q0 142 107 237t284 95q154 0 257 -73l70 60l38 -37l-67 -58q92 -90 92 -224q0 -142 -105.5 -236.5t-284.5 -94.5q-153 0 -256 73l-69 -60l-39 39l65 57q-92 90 -92 222zM175 150l437 379q-78 55 -198 55q-145 0 -225.5 -78t-80.5 -185q0 -100 67 -171zM217 114
q79 -55 197 -55q147 0 226 77t79 185q0 100 -66 172z" />
    <glyph glyph-name="Ugrave" unicode="&#xd9;" horiz-adv-x="763"
d="M44 643h80v-371q0 -95 61.5 -154t195.5 -59q135 0 196 59t61 154v371h81v-371q0 -59 -16 -106.5t-52.5 -89t-105 -64t-164.5 -22.5q-95 0 -163 23t-104.5 63.5t-53 88.5t-16.5 107v371zM209 810h112l85 -117h-62z" />
    <glyph glyph-name="Uacute" unicode="&#xda;" horiz-adv-x="763"
d="M44 643h80v-371q0 -95 61.5 -154t195.5 -59q135 0 196 59t61 154v371h81v-371q0 -59 -16 -106.5t-52.5 -89t-105 -64t-164.5 -22.5q-95 0 -163 23t-104.5 63.5t-53 88.5t-16.5 107v371zM446 810h112l-135 -117h-62z" />
    <glyph glyph-name="Ucircumflex" unicode="&#xdb;" horiz-adv-x="763"
d="M44 272v371h80v-371q0 -95 61.5 -154t195.5 -59q135 0 196 59t61 154v371h81v-371q0 -59 -16 -106.5t-52.5 -89t-105 -64t-164.5 -22.5q-95 0 -163 23t-104.5 63.5t-53 88.5t-16.5 107zM334 810h91l151 -114h-83l-113 84l-113 -84h-83z" />
    <glyph glyph-name="Udieresis" unicode="&#xdc;" horiz-adv-x="763"
d="M44 643h80v-371q0 -95 61.5 -154t195.5 -59q135 0 196 59t61 154v371h81v-371q0 -59 -16 -106.5t-52.5 -89t-105 -64t-164.5 -22.5q-95 0 -163 23t-104.5 63.5t-53 88.5t-16.5 107v371zM424 785q15 15 36 15q23 0 38 -15t15 -38q0 -21 -15.5 -36t-37.5 -15
q-21 0 -36.5 15t-15.5 36q0 23 16 38zM258 785q15 15 36 15q23 0 38 -15t15 -38q0 -21 -15.5 -36t-37.5 -15q-21 0 -36.5 15t-15.5 36q0 23 16 38z" />
    <glyph glyph-name="Yacute" unicode="&#xdd;" horiz-adv-x="766"
d="M111 643l272 -323l272 323h95l-327 -389v-254h-80v254l-327 389h95zM365 693l85 117h111l-135 -117h-61z" />
    <glyph glyph-name="Thorn" unicode="&#xde;" horiz-adv-x="661"
d="M48 643h81v-126h244q133 0 199 -51.5t66 -143.5q0 -88 -67 -142t-198 -54h-244v-126h-81v643zM129 193h244q85 0 132 36.5t47 92.5q0 60 -46 94t-133 34h-244v-257z" />
    <glyph glyph-name="germandbls" unicode="&#xdf;" horiz-adv-x="660"
d="M114 586q66 67 203 67q117 0 185.5 -50t68.5 -117v-4q-3 -89 -112 -127q172 -36 173 -166v-2q0 -89 -81 -138t-217 -49h-81v68h81q102 0 156.5 30.5t54.5 88.5v2q-1 42 -32 69.5t-81 38t-83 12.5t-57 2q-19 0 -39 -1v69q17 -1 34 -1q44 0 87 7t77 31.5t35 65.5v2
q0 47 -44.5 74t-124.5 27q-92 0 -137 -47t-45 -131v-407h-87v407q0 112 66 179z" />
    <glyph glyph-name="agrave" unicode="&#xe0;" horiz-adv-x="621"
d="M34 115q0 28 17 52t40.5 40t61.5 29t69.5 20.5t75 13.5t67 8t58 4t35.5 2q-1 116 -157 116q-41 0 -72.5 -8t-46 -19.5t-23.5 -23t-11 -19.5l-1 -8h-84q2 10 4.5 19t18 33.5t38.5 41t69.5 30.5t108.5 14q114 0 174 -45.5t60 -130.5v-188q0 -17 5.5 -23t21.5 -6h40v-67h-41
q-56 0 -79 18.5t-25 68.5q-73 -97 -236 -97q-93 0 -140.5 34t-47.5 89v2zM149 68q32 -17 80 -17h6q48 0 98 14.5t87 46t38 71.5v44q-337 -17 -340 -113v-2q0 -28 31 -44zM131 617h112l85 -117h-62z" />
    <glyph glyph-name="aacute" unicode="&#xe1;" horiz-adv-x="621"
d="M34 115q0 28 17 52t40.5 40t61.5 29t69.5 20.5t75 13.5t67 8t58 4t35.5 2q-1 116 -157 116q-41 0 -72.5 -8t-46 -19.5t-23.5 -23t-11 -19.5l-1 -8h-84q2 10 4.5 19t18 33.5t38.5 41t69.5 30.5t108.5 14q114 0 174 -45.5t60 -130.5v-188q0 -17 5.5 -23t21.5 -6h40v-67h-41
q-56 0 -79 18.5t-25 68.5q-73 -97 -236 -97q-93 0 -140.5 34t-47.5 89v2zM149 68q32 -17 80 -17h6q48 0 98 14.5t87 46t38 71.5v44q-337 -17 -340 -113v-2q0 -28 31 -44zM368 617h112l-135 -117h-62z" />
    <glyph glyph-name="acircumflex" unicode="&#xe2;" horiz-adv-x="621"
d="M34 115q0 28 17 52t40.5 40t61.5 29t69.5 20.5t75 13.5t67 8t58 4t35.5 2q-1 116 -157 116q-41 0 -72.5 -8t-46 -19.5t-23.5 -23t-11 -19.5l-1 -8h-84q2 10 4.5 19t18 33.5t38.5 41t69.5 30.5t108.5 14q114 0 174 -45.5t60 -130.5v-188q0 -17 5.5 -23t21.5 -6h40v-67h-41
q-56 0 -79 18.5t-25 68.5q-73 -97 -236 -97q-93 0 -140.5 34t-47.5 89v2zM149 68q32 -17 80 -17h6q48 0 98 14.5t87 46t38 71.5v44q-337 -17 -340 -113v-2q0 -28 31 -44zM106 503l150 114h92l150 -114h-83l-113 84l-113 -84h-83z" />
    <glyph glyph-name="atilde" unicode="&#xe3;" horiz-adv-x="621"
d="M34 115q0 28 17 52t40.5 40t61.5 29t69.5 20.5t75 13.5t67 8t58 4t35.5 2q-1 116 -157 116q-41 0 -72.5 -8t-46 -19.5t-23.5 -23t-11 -19.5l-1 -8h-84q2 10 4.5 19t18 33.5t38.5 41t69.5 30.5t108.5 14q114 0 174 -45.5t60 -130.5v-188q0 -17 5.5 -23t21.5 -6h40v-67h-41
q-56 0 -79 18.5t-25 68.5q-73 -97 -236 -97q-93 0 -140.5 34t-47.5 89v2zM149 68q32 -17 80 -17h6q48 0 98 14.5t87 46t38 71.5v44q-337 -17 -340 -113v-2q0 -28 31 -44zM99 508q0 38 33 67.5t85 29.5h4q41 -1 91 -21t82 -21h10q19 0 35.5 3.5t25.5 9.5t14.5 12.5t6.5 11.5
l1 4h26q0 -39 -33.5 -68t-84.5 -29h-4q-42 1 -91.5 19.5t-80.5 19.5h-12q-29 0 -50.5 -8.5t-26.5 -19.5l-5 -10h-26z" />
    <glyph glyph-name="adieresis" unicode="&#xe4;" horiz-adv-x="621"
d="M34 115q0 28 17 52t40.5 40t61.5 29t69.5 20.5t75 13.5t67 8t58 4t35.5 2q-1 116 -157 116q-41 0 -72.5 -8t-46 -19.5t-23.5 -23t-11 -19.5l-1 -8h-84q2 10 4.5 19t18 33.5t38.5 41t69.5 30.5t108.5 14q114 0 174 -45.5t60 -130.5v-188q0 -17 5.5 -23t21.5 -6h40v-67h-41
q-56 0 -79 18.5t-25 68.5q-73 -97 -236 -97q-93 0 -140.5 34t-47.5 89v2zM149 68q32 -17 80 -17h6q48 0 98 14.5t87 46t38 71.5v44q-337 -17 -340 -113v-2q0 -28 31 -44zM346 592q15 15 36 15q23 0 38 -15t15 -38q0 -21 -15.5 -36t-37.5 -15q-21 0 -36.5 15t-15.5 36
q0 23 16 38zM180 592q15 15 36 15q23 0 38 -15t15 -38q0 -21 -15 -36t-38 -15q-21 0 -36 15t-15 36q0 23 15 38z" />
    <glyph glyph-name="aring" unicode="&#xe5;" horiz-adv-x="621"
d="M34 115q0 28 17 52t40.5 40t61.5 29t69.5 20.5t75 13.5t67 8t58 4t35.5 2q-1 116 -157 116q-41 0 -72.5 -8t-46 -19.5t-23.5 -23t-11 -19.5l-1 -8h-84q2 10 4.5 19t18 33.5t38.5 41t69.5 30.5t108.5 14q114 0 174 -45.5t60 -130.5v-188q0 -17 5.5 -23t21.5 -6h40v-67h-41
q-56 0 -79 18.5t-25 68.5q-73 -97 -236 -97q-93 0 -140.5 34t-47.5 89v2zM149 68q32 -17 80 -17h6q48 0 98 14.5t87 46t38 71.5v44q-337 -17 -340 -113v-2q0 -28 31 -44zM186 581q0 36 33.5 60.5t83.5 24.5t83.5 -24.5t33.5 -60.5t-33 -61q-34 -25 -84 -25t-83.5 25
t-33.5 61zM248 547q21 -14 55 -14q33 0 55 14t22 34t-22 34t-55 14q-34 0 -55.5 -13.5t-21.5 -34.5t22 -34z" />
    <glyph glyph-name="ae" unicode="&#xe6;" horiz-adv-x="1011"
d="M34 115q0 37 26 64.5t67 42t90 25t96 12t76 3t43 1.5t24 -1v23q0 57 -42.5 86t-111.5 29q-43 0 -75 -8t-47.5 -19.5t-24.5 -23t-11 -19.5l-1 -8h-84q1 7 2 11.5t8 20.5t16 27.5t28 27.5t43.5 26t62.5 17.5t84 7.5q153 0 200 -93q72 93 224 93q72 0 126 -22.5t84 -60
t40.5 -76.5t10.5 -74q0 -14 -1 -28h-450q5 -67 54 -107.5t137 -40.5q40 0 72.5 9t49.5 22t29 26.5t15 22.5l4 9h82q-1 -3 -2.5 -8.5t-9 -21t-18 -29.5t-30.5 -31.5t-45 -30t-63.5 -21t-84.5 -8.5q-169 0 -237 111q-35 -52 -106 -81.5t-161 -29.5q-93 0 -141 34t-48 89v2z
M538 260h371v2q0 57 -48 97t-133 40q-87 0 -135.5 -40.5t-54.5 -98.5zM149 67q32 -16 82 -16q81 1 153 38.5t72 94.5v15h-10q-35 0 -58 -0.5t-67.5 -2.5t-75 -7.5t-62.5 -14.5t-49 -24.5t-17 -35.5q0 -31 32 -47z" />
    <glyph glyph-name="ccedilla" unicode="&#xe7;" horiz-adv-x="579"
d="M98 396q75 64 205 64q64 0 113.5 -14.5t74.5 -35.5t40.5 -42t19.5 -36l4 -14h-85q-1 3 -3.5 8.5t-14.5 19.5t-28.5 24.5t-48.5 19.5t-72 9q-92 0 -145.5 -47.5t-53.5 -124.5q0 -78 54 -127t145 -49q40 0 72 10t49 24.5t28 29.5t14 25l4 10h84q-1 -6 -3.5 -15.5t-17 -35
t-35.5 -46t-63.5 -39.5t-96.5 -23v-29q0 -49 -21 -67t-73 -18h-97v58h97q16 0 21 5.5t5 21.5v29q-117 8 -182.5 70.5t-65.5 165.5q0 105 76 169z" />
    <glyph glyph-name="egrave" unicode="&#xe8;" horiz-adv-x="575"
d="M22 224q0 105 71 170.5t199 65.5q95 0 157.5 -39t83 -90t20.5 -101q0 -15 -2 -31h-449q5 -66 54 -107t137 -41q40 0 72.5 9t49.5 22t29 26.5t16 22.5l3 9h81q-1 -6 -4.5 -16t-20.5 -36t-42 -46t-74 -36t-111 -16q-124 0 -197 63.5t-73 170.5zM102 260h372
q0 58 -48.5 98.5t-132.5 40.5q-88 0 -136.5 -41t-54.5 -98zM119 617h112l85 -117h-62z" />
    <glyph glyph-name="eacute" unicode="&#xe9;" horiz-adv-x="575"
d="M22 224q0 105 71 170.5t199 65.5q95 0 157.5 -39t83 -90t20.5 -101q0 -15 -2 -31h-449q5 -66 54 -107t137 -41q40 0 72.5 9t49.5 22t29 26.5t16 22.5l3 9h81q-1 -6 -4.5 -16t-20.5 -36t-42 -46t-74 -36t-111 -16q-124 0 -197 63.5t-73 170.5zM102 260h372
q0 58 -48.5 98.5t-132.5 40.5q-88 0 -136.5 -41t-54.5 -98zM356 617h112l-136 -117h-61z" />
    <glyph glyph-name="ecircumflex" unicode="&#xea;" horiz-adv-x="575"
d="M93 395q71 65 199 65q95 0 157.5 -39t83 -90t20.5 -101q0 -15 -2 -31h-449q5 -66 54 -107t137 -41q40 0 72.5 9t49.5 22t29 26.5t16 22.5l3 9h81q-1 -6 -4.5 -16t-20.5 -36t-42 -46t-74 -36t-111 -16q-124 0 -197 63.5t-73 170.5q0 105 71 171zM102 260h372
q0 58 -48.5 98.5t-132.5 40.5q-88 0 -136.5 -41t-54.5 -98zM93 503l151 114h91l151 -114h-83l-113 84l-113 -84h-84z" />
    <glyph glyph-name="edieresis" unicode="&#xeb;" horiz-adv-x="575"
d="M22 224q0 105 71 170.5t199 65.5q95 0 157.5 -39t83 -90t20.5 -101q0 -15 -2 -31h-449q5 -66 54 -107t137 -41q40 0 72.5 9t49.5 22t29 26.5t16 22.5l3 9h81q-1 -6 -4.5 -16t-20.5 -36t-42 -46t-74 -36t-111 -16q-124 0 -197 63.5t-73 170.5zM474 260q0 58 -48.5 98.5
t-132.5 40.5q-88 0 -136.5 -41t-54.5 -98h372zM318 554q0 23 15.5 38t36.5 15q23 0 38 -15t15 -38q0 -21 -15.5 -36t-37.5 -15q-21 0 -36.5 15t-15.5 36zM152 554q0 23 15.5 38t36.5 15q23 0 38 -15t15 -38q0 -21 -15.5 -36t-37.5 -15q-21 0 -36.5 15t-15.5 36z" />
    <glyph glyph-name="igrave" unicode="&#xec;" horiz-adv-x="307"
d="M160 617l85 -117h-62l-135 117h112zM259 0h-79v450h79v-450z" />
    <glyph glyph-name="iacute" unicode="&#xed;" horiz-adv-x="312"
d="M153 617h111l-135 -117h-61zM127 0h-79v450h79v-450z" />
    <glyph glyph-name="icircumflex" unicode="&#xee;" horiz-adv-x="489"
d="M285 450v-450h-79v450h79zM199 617h91l151 -114h-84l-113 84l-113 -84h-83z" />
    <glyph glyph-name="idieresis" unicode="&#xef;" horiz-adv-x="366"
d="M147 450h79v-450h-79v450zM48 554q0 23 15 38t37 15q23 0 38 -15t15 -38q0 -21 -15.5 -36t-37.5 -15t-37 15t-15 36zM214 554q0 23 15.5 38t36.5 15q22 0 37 -15t15 -38q0 -21 -15 -36t-37 -15q-21 0 -36.5 15t-15.5 36z" />
    <glyph glyph-name="eth" unicode="&#xf0;" horiz-adv-x="647"
d="M624 293q3 -141 -79 -223t-226 -82q-139 0 -217 64.5t-79 165.5q0 97 82 156.5t214 59.5q48 0 89 -10.5t65.5 -25.5t42 -30t24.5 -26l7 -10q-4 44 -27 95t-67 91l-151 -47l-21 48l117 37q-86 46 -203 36l1 63q167 13 283 -74l103 32l22 -48l-80 -25q95 -101 100 -247z
M319 57q94 0 154.5 49t61.5 118q-3 62 -59 104.5t-157 42.5q-96 0 -155.5 -42.5t-59.5 -110.5q0 -65 57.5 -113t157.5 -48z" />
    <glyph glyph-name="ntilde" unicode="&#xf1;" horiz-adv-x="594"
d="M47 0v450h76v-94q21 46 69.5 74.5t117.5 29.5h7q236 0 236 -216v-244h-79v244q0 81 -41.5 116.5t-123.5 35.5q-88 0 -135.5 -44t-47.5 -132v-220h-79zM106 516q0 39 33 68.5t85 29.5h3q42 -1 91.5 -21t81.5 -21h11q18 0 35 3t26 9t14.5 12.5t6.5 11.5l1 4h26
q0 -38 -33.5 -67.5t-85.5 -29.5h-3q-41 1 -91 20t-81 20h-12q-29 0 -50.5 -8.5t-27.5 -19.5l-5 -11h-25z" />
    <glyph glyph-name="ograve" unicode="&#xf2;" horiz-adv-x="615"
d="M22 225q0 102 78.5 168.5t207.5 66.5q128 0 206.5 -66.5t78.5 -168.5q0 -104 -78 -169q-78 -66 -207 -66t-207.5 66t-78.5 169zM159 100q56 -49 149 -49q91 0 147.5 49t56.5 125q0 75 -56.5 124.5t-147.5 49.5q-92 0 -148.5 -49t-56.5 -125q0 -77 56 -125zM136 617h111
l86 -117h-62z" />
    <glyph glyph-name="oacute" unicode="&#xf3;" horiz-adv-x="615"
d="M22 225q0 102 78.5 168.5t207.5 66.5q128 0 206.5 -66.5t78.5 -168.5q0 -104 -78 -169q-78 -66 -207 -66t-207.5 66t-78.5 169zM103 225q0 -77 56 -125.5t149 -48.5q91 0 147.5 49t56.5 125q0 75 -56.5 124.5t-147.5 49.5q-92 0 -148.5 -49t-56.5 -125zM288 500l85 117
h111l-135 -117h-61z" />
    <glyph glyph-name="ocircumflex" unicode="&#xf4;" horiz-adv-x="615"
d="M101 394q78 66 207 66q128 0 206.5 -66.5t78.5 -168.5q0 -104 -78 -169.5t-207 -65.5t-207.5 66t-78.5 169q0 102 79 169zM159 100q56 -49 149 -49q91 0 147.5 49t56.5 125q0 75 -56.5 124.5t-147.5 49.5q-92 0 -148.5 -49t-56.5 -125q0 -77 56 -125zM110 503l151 114h91
l151 -114h-83l-113 84l-114 -84h-83z" />
    <glyph glyph-name="otilde" unicode="&#xf5;" horiz-adv-x="615"
d="M101 394q78 66 207 66q128 0 206.5 -66.5t78.5 -168.5q0 -104 -78 -169q-78 -66 -207 -66t-207.5 66t-78.5 169q0 102 79 169zM159 100q56 -49 149 -49q91 0 147.5 49t56.5 125q0 75 -56.5 124.5t-147.5 49.5q-92 0 -148.5 -49t-56.5 -125q0 -77 56 -125zM138 576
q32 29 84 29h3q42 -1 91.5 -21t81.5 -21h10q19 0 36 3.5t26 9.5t14.5 12.5t6.5 11.5l1 4h25q0 -39 -33 -68t-84 -29h-4q-42 1 -91.5 19.5t-80.5 19.5h-12q-29 0 -50.5 -8.5t-27.5 -19.5l-5 -10h-25q0 38 34 68z" />
    <glyph glyph-name="odieresis" unicode="&#xf6;" horiz-adv-x="615"
d="M101 394q78 66 207 66q128 0 206.5 -66.5t78.5 -168.5q0 -104 -78 -169q-78 -66 -207 -66t-207.5 66t-78.5 169q0 102 79 169zM103 225q0 -77 56 -125.5t149 -48.5q91 0 147.5 49t56.5 125q0 75 -56.5 124.5t-147.5 49.5q-92 0 -148.5 -49t-56.5 -125zM184 592
q15 15 37 15q23 0 38 -15t15 -38q0 -21 -15.5 -36t-37.5 -15t-37 15t-15 36q0 23 15 38zM351 592q15 15 36 15q22 0 37.5 -15t15.5 -38q0 -21 -15.5 -36t-37.5 -15q-21 0 -36.5 15t-15.5 36q0 23 16 38z" />
    <glyph glyph-name="divide" unicode="&#xf7;" horiz-adv-x="686"
d="M399 453q0 -23 -16.5 -39.5t-40.5 -16.5q-23 0 -39.5 16.5t-16.5 39.5q0 24 16.5 40.5t39.5 16.5q24 0 40.5 -16.5t16.5 -40.5zM571 264h-457v67h457v-67zM399 147q0 -23 -16.5 -39.5t-40.5 -16.5q-23 0 -39.5 16.5t-16.5 39.5q0 24 16.5 40.5t39.5 16.5q24 0 40.5 -16.5
t16.5 -40.5z" />
    <glyph glyph-name="oslash" unicode="&#xf8;" horiz-adv-x="615"
d="M22 225q0 102 78.5 168.5t207.5 66.5q106 0 181 -48l43 36l39 -38l-39 -33q61 -63 61 -152q0 -104 -78 -169.5t-207 -65.5q-107 0 -182 47l-42 -35l-39 39l38 32q-61 63 -61 152zM181 84q53 -33 127 -33q91 0 147.5 49t56.5 125q0 60 -37 105zM139 120l295 246
q-53 33 -126 33q-92 0 -148.5 -49t-56.5 -125q0 -61 36 -105z" />
    <glyph glyph-name="ugrave" unicode="&#xf9;" horiz-adv-x="580"
d="M40 450h79v-251q0 -145 158 -145q79 0 127.5 43t48.5 126v227h79v-450h-77v95q-22 -43 -68 -73.5t-112 -31.5h-7q-228 0 -228 209v251zM227 617l85 -117h-62l-135 117h112z" />
    <glyph glyph-name="uacute" unicode="&#xfa;" horiz-adv-x="580"
d="M119 450v-251q0 -145 158 -145q79 0 127.5 43t48.5 126v227h79v-450h-77v95q-22 -43 -68 -73.5t-112 -31.5h-7q-228 0 -228 209v251h79zM352 617h112l-136 -117h-61z" />
    <glyph glyph-name="ucircumflex" unicode="&#xfb;" horiz-adv-x="580"
d="M119 450v-251q0 -145 158 -145q79 0 127.5 43t48.5 126v227h79v-450h-77v95q-22 -43 -68 -73.5t-112 -31.5h-7q-228 0 -228 209v251h79zM89 503l151 114h91l151 -114h-83l-113 84l-113 -84h-84z" />
    <glyph glyph-name="udieresis" unicode="&#xfc;" horiz-adv-x="580"
d="M40 199v251h79v-251q0 -145 158 -145q79 0 127.5 43t48.5 126v227h79v-450h-77v95q-22 -43 -68 -73.5t-112 -31.5h-7q-228 0 -228 209zM314 554q0 23 15.5 38t36.5 15q23 0 38 -15t15 -38q0 -21 -15.5 -36t-37.5 -15q-21 0 -36.5 15t-15.5 36zM148 554q0 23 15.5 38
t36.5 15q23 0 38 -15t15 -38q0 -21 -15.5 -36t-37.5 -15q-21 0 -36.5 15t-15.5 36z" />
    <glyph glyph-name="yacute" unicode="&#xfd;" horiz-adv-x="552"
d="M102 450l177 -375l178 375h86l-260 -535q-28 -57 -43 -72q-27 -26 -83 -26h-123v67h123q21 0 28 5.5t18 25.5l40 84l-226 451h85zM264 500l85 117h112l-135 -117h-62z" />
    <glyph glyph-name="thorn" unicode="&#xfe;" horiz-adv-x="627"
d="M48 643h79v-269q72 84 197 86h4q126 0 201.5 -66t75.5 -171q0 -107 -75.5 -170t-196.5 -63h-15q-119 3 -191 88v-261h-79v826zM178 101q54 -49 142 -49q85 0 144.5 48t59.5 123q0 80 -58.5 127.5t-145.5 47.5q-89 0 -142.5 -48t-53.5 -125q0 -75 54 -124z" />
    <glyph glyph-name="ydieresis" unicode="&#xff;" horiz-adv-x="552"
d="M102 450l177 -375l178 375h86l-260 -535q-28 -57 -43 -72q-27 -26 -83 -26h-123v67h123q21 0 28 5.5t18 25.5l40 84l-226 451h85zM146 554q0 23 15 38t36 15q23 0 38 -15t15 -38q0 -21 -15 -36t-38 -15q-21 0 -36 15t-15 36zM312 554q0 23 15 38t36 15q23 0 38 -15
t15 -38q0 -21 -15.5 -36t-37.5 -15q-20 0 -35.5 15t-15.5 36z" />
    <glyph glyph-name="Amacron" unicode="&#x100;" horiz-adv-x="761"
d="M4 0l335 643h90l328 -643h-89l-68 137h-438l-69 -137h-89zM567 204l-184 372l-187 -372h371zM550 757v-55h-333v55h333z" />
    <glyph glyph-name="amacron" unicode="&#x101;" horiz-adv-x="621"
d="M34 115q0 28 17 52t40.5 40t61.5 29t69.5 20.5t75 13.5t67 8t58 4t35.5 2q-1 116 -157 116q-41 0 -72.5 -8t-46 -19.5t-23.5 -23t-11 -19.5l-1 -8h-84q2 10 4.5 19t18 33.5t38.5 41t69.5 30.5t108.5 14q114 0 174 -45.5t60 -130.5v-188q0 -17 5.5 -23t21.5 -6h40v-67h-41
q-56 0 -79 18.5t-25 68.5q-73 -97 -236 -97q-93 0 -140.5 34t-47.5 89v2zM149 68q32 -17 80 -17h6q48 0 98 14.5t87 46t38 71.5v44q-337 -17 -340 -113v-2q0 -28 31 -44zM136 509v55h333v-55h-333z" />
    <glyph glyph-name="Abreve" unicode="&#x102;" horiz-adv-x="761"
d="M4 0l335 643h90l328 -643h-89l-68 137h-438l-69 -137h-89zM196 204h371l-184 372zM250 811q1 -2 3.5 -6.5t12.5 -15t23.5 -18.5t38.5 -14.5t56 -6.5t56 6.5t38.5 15t23.5 17.5t13 15l3 7h49q-1 -5 -3 -12.5t-14 -27t-30 -34.5t-54 -27t-82 -12t-82 11.5t-54.5 28
t-30 33.5t-13.5 29l-3 11h49z" />
    <glyph glyph-name="abreve" unicode="&#x103;" horiz-adv-x="621"
d="M34 115q0 28 17 52t40.5 40t61.5 29t69.5 20.5t75 13.5t67 8t58 4t35.5 2q-1 116 -157 116q-41 0 -72.5 -8t-46 -19.5t-23.5 -23t-11 -19.5l-1 -8h-84q2 10 4.5 19t18 33.5t38.5 41t69.5 30.5t108.5 14q114 0 174 -45.5t60 -130.5v-188q0 -17 5.5 -23t21.5 -6h40v-67h-41
q-56 0 -79 18.5t-25 68.5q-73 -97 -236 -97q-93 0 -140.5 34t-47.5 89v2zM149 68q32 -17 80 -17h6q48 0 98 14.5t87 46t38 71.5v44q-337 -17 -340 -113v-2q0 -28 31 -44zM169 618q1 -2 3.5 -6.5t12.5 -15t23.5 -18.5t38.5 -14.5t56 -6.5q48 0 81.5 15.5t43.5 30.5l9 15h49
q-1 -5 -3 -12.5t-14 -27t-30 -34.5t-54 -27t-82 -12t-82 11.5t-54.5 28t-30 33.5t-14.5 28l-2 12h49z" />
    <glyph glyph-name="Aogonek" unicode="&#x104;" horiz-adv-x="804"
d="M339 643h90l328 -643h-43v-25q0 -19 19 -19h66v-43h-66q-41 0 -56.5 12t-15.5 50v39l-61 123h-438l-69 -137h-89zM567 204l-184 372l-187 -372h371z" />
    <glyph glyph-name="aogonek" unicode="&#x105;" horiz-adv-x="621"
d="M34 115q0 28 17 52t40.5 40t61.5 29t69.5 20.5t75 13.5t67 8t58 4t35.5 2q-1 116 -157 116q-41 0 -72.5 -8t-46 -19.5t-23.5 -23t-11 -19.5l-1 -8h-84q2 10 4.5 19t18 33.5t38.5 41t69.5 30.5t108.5 14q114 0 174 -45.5t60 -130.5v-188q0 -17 5.5 -23t21.5 -6h40v-67h-45
v-25q0 -19 19 -19h66v-43h-66q-41 0 -56 12t-15 50v32q-45 14 -48 80q-73 -97 -236 -97q-93 0 -140.5 34t-47.5 89v2zM149 68q32 -17 80 -17h6q48 0 98 14.5t87 46t38 71.5v44q-337 -17 -340 -113v-2q0 -28 31 -44z" />
    <glyph glyph-name="Cacute" unicode="&#x106;" horiz-adv-x="784"
d="M23 321q0 147 106.5 239.5t283.5 92.5q223 0 314 -133q21 -31 33 -72h-87q-2 6 -6 15t-23.5 32.5t-45.5 41.5t-75.5 32.5t-109.5 14.5q-145 0 -224.5 -75.5t-79.5 -187.5q0 -110 81 -186t223 -76q61 0 110 14t75.5 34t44 40t22.5 34l5 14h87q-1 -8 -7 -25t-29 -50
t-57.5 -60.5t-100.5 -48.5t-150 -21q-178 0 -284 92t-106 239zM474 810h112l-136 -117h-61z" />
    <glyph glyph-name="cacute" unicode="&#x107;" horiz-adv-x="579"
d="M98 396q75 64 205 64q64 0 113.5 -14.5t74.5 -35.5t40.5 -42t19.5 -36l4 -14h-85q-1 3 -3.5 8.5t-14.5 19.5t-28.5 24.5t-48.5 19.5t-72 9q-92 0 -145.5 -47.5t-53.5 -124.5q0 -78 54 -127t145 -49q40 0 72 10t49 24.5t28 29.5t14 25l4 10h84q-1 -7 -4 -17.5t-19.5 -38
t-41 -48.5t-74 -38.5t-112.5 -17.5q-131 0 -206 63.5t-75 173.5q0 105 76 169zM277 500l85 117h112l-135 -117h-62z" />
    <glyph glyph-name="Cdotaccent" unicode="&#x10a;" horiz-adv-x="784"
d="M130 561q106 92 283 92q223 0 314 -133q21 -31 33 -72h-87q-2 6 -6 15t-23.5 32.5t-45.5 41.5t-75.5 32.5t-109.5 14.5q-145 0 -224.5 -75.5t-79.5 -187.5q0 -110 81 -186t223 -76q61 0 110 14t75.5 34t44 40t22.5 34l5 14h87q-1 -8 -7 -25t-29 -50t-57.5 -60.5
t-100.5 -48.5t-150 -21q-178 0 -284 92t-106 239t107 240zM355 751q0 22 15.5 38t37.5 16t38 -15.5t16 -38.5q0 -22 -16 -37.5t-38 -15.5t-37.5 15.5t-15.5 37.5z" />
    <glyph glyph-name="cdotaccent" unicode="&#x10b;" horiz-adv-x="579"
d="M22 227q0 105 75.5 169t205.5 64q64 0 113.5 -14.5t74.5 -35.5t40.5 -42t19.5 -36l4 -14h-85q-1 3 -3.5 8.5t-14.5 19.5t-28.5 24.5t-48.5 19.5t-72 9q-92 0 -145.5 -47.5t-53.5 -124.5q0 -78 54 -127t145 -49q40 0 72 10t49 24.5t28 29.5t14 25l4 10h84q-1 -7 -4 -17.5
t-19.5 -38t-41 -48.5t-74 -38.5t-112.5 -17.5q-131 0 -206 63.5t-75 173.5zM260 596q15 16 37 16q23 0 39 -16q15 -16 15 -38t-16 -37.5t-38 -15.5t-37.5 15.5t-15.5 37.5t16 38z" />
    <glyph glyph-name="Ccaron" unicode="&#x10c;" horiz-adv-x="784"
d="M130 561q106 92 283 92q223 0 314 -133q21 -31 33 -72h-87q-2 6 -6 15t-23.5 32.5t-45.5 41.5t-75.5 32.5t-109.5 14.5q-145 0 -224.5 -75.5t-79.5 -187.5q0 -110 81 -186t223 -76q61 0 110 14t75.5 34t44 40t22.5 34l5 14h87q-1 -8 -7 -25t-29 -50t-57.5 -60.5
t-100.5 -48.5t-150 -21q-178 0 -284 92t-106 239t107 240zM209 807h84l113 -84l113 84h83l-151 -114h-91z" />
    <glyph glyph-name="ccaron" unicode="&#x10d;" horiz-adv-x="579"
d="M98 396q75 64 205 64q64 0 113.5 -14.5t74.5 -35.5t40.5 -42t19.5 -36l4 -14h-85q-1 3 -3.5 8.5t-14.5 19.5t-28.5 24.5t-48.5 19.5t-72 9q-92 0 -145.5 -47.5t-53.5 -124.5q0 -78 54 -127t145 -49q40 0 72 10t49 24.5t28 29.5t14 25l4 10h84q-1 -7 -4 -17.5t-19.5 -38
t-41 -48.5t-74 -38.5t-112.5 -17.5q-131 0 -206 63.5t-75 173.5q0 105 76 169zM98 614h83l113 -84l113 84h83l-150 -114h-91z" />
    <glyph glyph-name="Dcaron" unicode="&#x10e;" horiz-adv-x="768"
d="M48 643h347q162 0 255.5 -88t93.5 -234q0 -145 -93.5 -233t-255.5 -88h-347v643zM395 67q130 1 198 74.5t68 179.5q0 116 -66.5 185.5t-199.5 69.5h-266v-509h266zM215 812l113 -84l113 84h83l-150 -114h-92l-150 114h83z" />
    <glyph glyph-name="dcaron" unicode="&#x10f;" horiz-adv-x="867"
d="M22 223q0 105 75.5 171t201.5 66h4q127 -2 198 -88v271h79v-643h-76v83q-72 -90 -195 -93h-15q-121 0 -196.5 63t-75.5 170zM103 223q0 -75 60 -123t145 -48q88 0 142 49t54 124q0 77 -54 125t-142 48q-87 0 -146 -47.5t-59 -127.5zM622 526l85 117h112l-135 -117h-62z
" />
    <glyph glyph-name="Dcroat" unicode="&#x110;" horiz-adv-x="872"
d="M48 297v53h105v293h347q162 0 255.5 -88t93.5 -234q0 -144 -94 -232.5t-255 -88.5h-347v297h-105zM233 350h221v-53h-221v-230h267q130 1 198 74.5t68 179.5q0 116 -67 185.5t-199 69.5h-267v-226z" />
    <glyph glyph-name="dcroat" unicode="&#x111;" horiz-adv-x="705"
d="M22 223q0 105 75.5 171t201.5 66h4q127 -2 198 -88v145h-166v52h166v74h79v-74h77v-52h-77v-517h-76v83q-72 -90 -195 -93h-15q-121 0 -196.5 63t-75.5 170zM103 223q0 -75 60 -123t145 -48q88 0 142 49t54 124q0 77 -54 125t-142 48q-87 0 -146 -47.5t-59 -127.5z" />
    <glyph glyph-name="Emacron" unicode="&#x112;" horiz-adv-x="658"
d="M48 643h568v-67h-487v-219h440v-67h-440v-223h497v-67h-578v643zM501 757v-55h-333v55h333z" />
    <glyph glyph-name="emacron" unicode="&#x113;" horiz-adv-x="575"
d="M22 224q0 105 71 170.5t199 65.5q95 0 157.5 -39t83 -90t20.5 -101q0 -15 -2 -31h-449q5 -66 54 -107t137 -41q40 0 72.5 9t49.5 22t29 26.5t16 22.5l3 9h81q-1 -6 -4.5 -16t-20.5 -36t-42 -46t-74 -36t-111 -16q-124 0 -197 63.5t-73 170.5zM102 260h372
q0 58 -48.5 98.5t-132.5 40.5q-88 0 -136.5 -41t-54.5 -98zM124 509v55h333v-55h-333z" />
    <glyph glyph-name="Edotaccent" unicode="&#x116;" horiz-adv-x="658"
d="M48 643h568v-67h-487v-219h440v-67h-440v-223h497v-67h-578v643zM297 789q15 16 37 16t38 -15.5t16 -38.5q0 -22 -16 -37q-16 -16 -38 -16t-37.5 15.5t-15.5 37.5t16 38z" />
    <glyph glyph-name="edotaccent" unicode="&#x117;" horiz-adv-x="575"
d="M93 395q71 65 199 65q95 0 157.5 -39t83 -90t20.5 -101q0 -15 -2 -31h-449q5 -66 54 -107t137 -41q40 0 72.5 9t49.5 22t29 26.5t16 22.5l3 9h81q-1 -6 -4.5 -16t-20.5 -36t-42 -46t-74 -36t-111 -16q-124 0 -197 63.5t-73 170.5q0 105 71 171zM102 260h372
q0 58 -48.5 98.5t-132.5 40.5q-88 0 -136.5 -41t-54.5 -98zM253 597q15 15 37 15t38 -16t16 -38t-16 -37q-16 -16 -38 -16t-37 15.5t-15 37.5q0 23 15 39z" />
    <glyph glyph-name="Eogonek" unicode="&#x118;" horiz-adv-x="658"
d="M48 0v643h568v-67h-487v-219h440v-67h-440v-223h497v-67h-111v-25q0 -19 19 -19h67v-43h-67q-41 0 -56 12t-15 50v25h-415z" />
    <glyph glyph-name="eogonek" unicode="&#x119;" horiz-adv-x="575"
d="M22 224q0 105 71 170.5t199 65.5q95 0 157.5 -39t83 -90t20.5 -101q0 -15 -2 -31h-449q5 -66 54 -107t137 -41q40 0 72.5 9t49.5 22t29 26.5t16 22.5l3 9h81l-2 -10q-2 -6 -11.5 -24t-22.5 -33.5t-38 -34t-56 -29.5v-34q0 -19 19 -19h67v-43h-67q-41 0 -56 12t-15 50v21
q-32 -6 -70 -6q-124 0 -197 63.5t-73 170.5zM102 260h372q0 58 -48.5 98.5t-132.5 40.5q-88 0 -136.5 -41t-54.5 -98z" />
    <glyph glyph-name="Ecaron" unicode="&#x11a;" horiz-adv-x="658"
d="M616 643v-67h-487v-219h440v-67h-440v-223h497v-67h-578v643h568zM135 807h84l113 -84l113 84h83l-151 -114h-91z" />
    <glyph glyph-name="ecaron" unicode="&#x11b;" horiz-adv-x="575"
d="M93 395q71 65 199 65q95 0 157.5 -39t83 -90t20.5 -101q0 -15 -2 -31h-449q5 -66 54 -107t137 -41q40 0 72.5 9t49.5 22t29 26.5t16 22.5l3 9h81q-1 -6 -4.5 -16t-20.5 -36t-42 -46t-74 -36t-111 -16q-124 0 -197 63.5t-73 170.5q0 105 71 171zM102 260h372
q0 58 -48.5 98.5t-132.5 40.5q-88 0 -136.5 -41t-54.5 -98zM91 614h84l113 -84l113 84h83l-151 -114h-91z" />
    <glyph glyph-name="Gbreve" unicode="&#x11e;" horiz-adv-x="794"
d="M23 321q0 148 104.5 240t282.5 92q48 0 90 -7t73 -17t58.5 -27t45 -30.5t33 -34t23 -31.5t15 -28.5t8.5 -19.5l2 -10h-87q-2 6 -5.5 15t-22.5 32.5t-45 41.5t-76 32.5t-112 14.5q-145 0 -223.5 -75.5t-78.5 -187.5q0 -109 80 -185.5t222 -76.5q70 0 123 18t83.5 48.5
t46 63.5t19.5 68h-296v67h382v-16q0 -41 -9 -82.5t-35 -86t-66 -77t-104 -52.5t-144 -20q-173 0 -280 92t-107 239zM222 811h49q1 -2 3.5 -6.5t12.5 -15t23.5 -18.5t38.5 -14.5t56 -6.5t56 6.5t38.5 15t23.5 17.5t13 15l3 7h49q-1 -5 -3 -12.5t-14 -27t-30 -34.5t-54 -27
t-82 -12t-82 11.5t-54.5 28t-30 33.5t-14.5 29z" />
    <glyph glyph-name="gbreve" unicode="&#x11f;" horiz-adv-x="628"
d="M98 395q75 65 201 65h4q129 -2 201 -91v81h76v-536q0 -56 -24 -76.5t-83 -20.5h-411v67h411q16 0 22 6t6 23v167q-71 -87 -192 -90h-15q-121 0 -196.5 63t-75.5 170q0 105 76 172zM163 100q60 -48 145 -48q88 0 142 49t54 124q0 77 -54 125t-142 48q-87 0 -146 -47.5
t-59 -127.5q0 -75 60 -123zM127 618h50q1 -2 3.5 -6.5t12.5 -15t23.5 -18.5t38.5 -14.5t56 -6.5q48 0 81.5 15.5t43.5 30.5l9 15h49q-1 -5 -3 -12.5t-14 -27t-30 -34.5t-54 -27t-82 -12t-82.5 11.5t-54.5 28t-29.5 33.5t-14.5 28z" />
    <glyph glyph-name="Gdotaccent" unicode="&#x120;" horiz-adv-x="794"
d="M128 561q104 92 282 92q48 0 90 -7t73 -17t58.5 -27t45 -30.5t33 -34t23 -31.5t15 -28.5t8.5 -19.5l2 -10h-87q-2 6 -5.5 15t-22.5 32.5t-45 41.5t-76 32.5t-112 14.5q-145 0 -223.5 -75.5t-78.5 -187.5q0 -109 80 -185.5t222 -76.5q70 0 123 18t83.5 48.5t46 63.5
t19.5 68h-296v67h382v-16q0 -41 -9 -82.5t-35 -86t-66 -77t-104 -52.5t-144 -20q-173 0 -280 92t-107 239q0 148 105 240zM368 789q15 16 36 16q22 0 38 -15.5t16 -38.5q0 -22 -16 -37.5t-38 -15.5q-21 0 -36.5 15.5t-15.5 37.5t16 38z" />
    <glyph glyph-name="gdotaccent" unicode="&#x121;" horiz-adv-x="628"
d="M22 223q0 105 75.5 171t201.5 66h4q129 -2 201 -91v81h76v-536q0 -56 -24 -76.5t-83 -20.5h-411v67h411q16 0 22 6t6 23v167q-71 -87 -192 -90h-15q-121 0 -196.5 63t-75.5 170zM103 223q0 -75 60 -123t145 -48q88 0 142 49t54 124q0 77 -54 125t-142 48
q-87 0 -146 -47.5t-59 -127.5zM273 596q15 16 37 16t38 -16t16 -38t-16 -37q-16 -16 -38 -16t-37.5 15.5t-15.5 37.5t16 38z" />
    <glyph glyph-name="uni0122" unicode="&#x122;" horiz-adv-x="794"
d="M23 321q0 148 104.5 240t282.5 92q48 0 90 -7t73 -17t58.5 -27t45 -30.5t33 -34t23 -31.5t15 -28.5t8.5 -19.5l2 -10h-87q-2 6 -5.5 15t-22.5 32.5t-45 41.5t-76 32.5t-112 14.5q-145 0 -223.5 -75.5t-78.5 -187.5q0 -109 80 -185.5t222 -76.5q70 0 123 18t83.5 48.5
t46 63.5t19.5 68h-296v67h382v-16q0 -41 -9 -82.5t-35 -86t-66 -77t-104 -52.5t-144 -20q-173 0 -280 92t-107 239zM322 -155l49 117h81l-86 -117h-44z" />
    <glyph glyph-name="uni0123" unicode="&#x123;" horiz-adv-x="628"
d="M22 223q0 105 75.5 171t201.5 66h4q129 -2 201 -91v81h76v-536q0 -56 -24 -76.5t-83 -20.5h-411v67h411q16 0 22 6t6 23v167q-71 -87 -192 -90h-15q-121 0 -196.5 63t-75.5 170zM163 100q60 -48 145 -48q88 0 142 49t54 124q0 77 -54 125t-142 48q-87 0 -146 -47.5
t-59 -127.5q0 -75 60 -123zM339 619h82l-87 -117h-44z" />
    <glyph glyph-name="Hbar" unicode="&#x126;" horiz-adv-x="851"
d="M48 464v52h43v127h80v-127h515v127h80v-127h37v-52h-37v-464h-80v288h-515v-288h-80v464h-43zM171 355h515v109h-515v-109z" />
    <glyph glyph-name="hbar" unicode="&#x127;" horiz-adv-x="670"
d="M124 570v73h78v-73h166v-52h-166v-156q23 43 70.5 70t113.5 28h7q236 0 236 -216v-244h-79v244q0 81 -41.5 116.5t-123.5 35.5q-88 0 -135.5 -44t-47.5 -132v-220h-78v518h-76v52h76z" />
    <glyph glyph-name="Imacron" unicode="&#x12a;" horiz-adv-x="634"
d="M277 67v509h-251v67h582v-67h-251v-509h254v-67h-588v67h254zM150 757h333v-55h-333v55z" />
    <glyph glyph-name="imacron" unicode="&#x12b;" horiz-adv-x="429"
d="M381 509h-333v55h333v-55zM254 0h-79v450h79v-450z" />
    <glyph glyph-name="Iogonek" unicode="&#x12e;" horiz-adv-x="634"
d="M277 67v509h-251v67h582v-67h-251v-509h254v-67h-268v-25q0 -19 19 -19h67v-43h-67q-41 0 -56 12t-15 50v25h-268v67h254z" />
    <glyph glyph-name="iogonek" unicode="&#x12f;" horiz-adv-x="222"
d="M101 505q-22 0 -37.5 15.5t-15.5 37.5t15.5 38t37.5 16q23 0 38.5 -16t15.5 -38t-16 -37.5t-38 -15.5zM147 -44h67v-43h-67q-41 0 -56 12t-15 50v25h-14v450h79v-450h-13v-25q0 -19 19 -19z" />
    <glyph glyph-name="Idotaccent" unicode="&#x130;" horiz-adv-x="634"
d="M277 67v509h-251v67h582v-67h-251v-509h254v-67h-588v67h254zM264 751q0 22 15.5 38t37.5 16q23 0 38.5 -15.5t15.5 -38.5q0 -22 -16 -37q-16 -16 -38 -16t-37.5 15.5t-15.5 37.5z" />
    <glyph glyph-name="dotlessi" unicode="&#x131;" horiz-adv-x="175"
d="M127 0h-79v450h79v-450z" />
    <glyph glyph-name="jcircumflex" unicode="&#x135;" horiz-adv-x="177"
d="M136 617l151 -114h-83l-113 84l-114 -84h-83l151 114h91zM51 -85v535h78v-535q0 -52 -24 -74.5t-84 -22.5h-82v67h82q30 0 30 30z" />
    <glyph glyph-name="uni0136" unicode="&#x136;" horiz-adv-x="712"
d="M48 0v643h81v-361l426 361h103l-326 -282l368 -361h-100l-326 312l-145 -126v-186h-81zM282 -38h81l-86 -117h-44z" />
    <glyph glyph-name="uni0137" unicode="&#x137;" horiz-adv-x="553"
d="M48 0v643h79v-437l290 244h104l-221 -186l246 -264h-97l-205 217l-117 -98v-119h-79zM221 -38h81l-86 -117h-44z" />
    <glyph glyph-name="Lacute" unicode="&#x139;" horiz-adv-x="608"
d="M265 810l-135 -117h-61l85 117h111zM129 67h450v-67h-531v643h81v-576z" />
    <glyph glyph-name="lacute" unicode="&#x13a;" horiz-adv-x="241"
d="M129 643v-546q0 -17 6 -23.5t22 -6.5h67v-67h-67q-59 0 -82.5 20.5t-23.5 76.5v546h78zM78 693l86 117h111l-135 -117h-62z" />
    <glyph glyph-name="uni013B" unicode="&#x13b;" horiz-adv-x="608"
d="M129 67h450v-67h-531v643h81v-576zM221 -155l49 117h81l-86 -117h-44z" />
    <glyph glyph-name="uni013C" unicode="&#x13c;" horiz-adv-x="241"
d="M129 643v-546q0 -17 6 -23.5t22 -6.5h67v-67h-67q-59 0 -82.5 20.5t-23.5 76.5v546h78zM50 -155l49 117h81l-86 -117h-44z" />
    <glyph glyph-name="Lcaron" unicode="&#x13d;" horiz-adv-x="608"
d="M48 643h81v-576h450v-67h-531v643zM189 526l85 117h112l-135 -117h-62z" />
    <glyph glyph-name="lcaron" unicode="&#x13e;" horiz-adv-x="421"
d="M48 643h78v-546q0 -17 6 -23.5t22 -6.5h67v-67h-67q-59 0 -82.5 20.5t-23.5 76.5v546zM176 526l85 117h112l-135 -117h-62z" />
    <glyph glyph-name="Lslash" unicode="&#x141;" horiz-adv-x="704"
d="M48 255l96 49v339h81v-297l192 98v-62l-192 -98v-217h450v-67h-531v243l-96 -49v61z" />
    <glyph glyph-name="lslash" unicode="&#x142;" horiz-adv-x="379"
d="M48 193v61l87 53v336h78v-288l118 72v-61l-118 -72v-197q0 -17 6 -23.5t22 -6.5h68v-67h-68q-59 0 -82.5 20.5t-23.5 76.5v149z" />
    <glyph glyph-name="Nacute" unicode="&#x143;" horiz-adv-x="777"
d="M147 643l501 -556l1 556h80v-643h-96l-504 558v-558h-81v643h99zM389 693l85 117h112l-135 -117h-62z" />
    <glyph glyph-name="nacute" unicode="&#x144;" horiz-adv-x="594"
d="M47 0v450h76v-94q21 46 69.5 74.5t117.5 29.5h7q236 0 236 -216v-244h-79v244q0 81 -41.5 116.5t-123.5 35.5q-88 0 -135.5 -44t-47.5 -132v-220h-79zM375 626h111l-135 -117h-61z" />
    <glyph glyph-name="uni0145" unicode="&#x145;" horiz-adv-x="777"
d="M48 0v643h99l501 -556l1 556h80v-643h-96l-504 558v-558h-81zM334 -38h81l-86 -117h-44z" />
    <glyph glyph-name="uni0146" unicode="&#x146;" horiz-adv-x="594"
d="M47 0v450h76v-94q21 46 69.5 74.5t117.5 29.5h7q236 0 236 -216v-244h-79v244q0 81 -41.5 116.5t-123.5 35.5q-88 0 -135.5 -44t-47.5 -132v-220h-79zM244 -38h82l-86 -117h-44z" />
    <glyph glyph-name="Ncaron" unicode="&#x147;" horiz-adv-x="777"
d="M48 643h99l501 -556l1 556h80v-643h-96l-504 558v-558h-81v643zM210 807h83l113 -84l113 84h83l-151 -114h-91z" />
    <glyph glyph-name="ncaron" unicode="&#x148;" horiz-adv-x="594"
d="M47 0v450h76v-94q21 46 69.5 74.5t117.5 29.5h7q236 0 236 -216v-244h-79v244q0 81 -41.5 116.5t-123.5 35.5q-88 0 -135.5 -44t-47.5 -132v-220h-79zM110 623h84l113 -84l113 84h83l-151 -114h-91z" />
    <glyph glyph-name="Eng" unicode="&#x14a;" horiz-adv-x="764"
d="M635 643h81v-730q0 -51 -25 -73.5t-85 -22.5h-109v67h109q29 0 29 29v88l-506 557v-558h-81v643h99l488 -544v544z" />
    <glyph glyph-name="eng" unicode="&#x14b;" horiz-adv-x="594"
d="M47 450h76v-94q21 46 69.5 74.5t117.5 29.5h7q236 0 236 -216v-329q0 -52 -24.5 -74.5t-84.5 -22.5h-119v67h119q30 0 30 30v329q0 81 -41.5 116.5t-123.5 35.5q-88 0 -135.5 -44t-47.5 -132v-220h-79v450z" />
    <glyph glyph-name="Omacron" unicode="&#x14c;" horiz-adv-x="828"
d="M130 558q107 95 284 95q179 0 284.5 -95t105.5 -237t-105.5 -236.5t-284.5 -94.5q-177 0 -284 95t-107 236q0 142 107 237zM108 321q0 -108 80.5 -185t225.5 -77q147 0 226 77t79 185q0 109 -79 186t-226 77q-145 0 -225.5 -77.5t-80.5 -185.5zM247 757h333v-55h-333v55z
" />
    <glyph glyph-name="omacron" unicode="&#x14d;" horiz-adv-x="615"
d="M22 225q0 102 78.5 168.5t207.5 66.5q128 0 206.5 -66.5t78.5 -168.5q0 -104 -78 -169q-78 -66 -207 -66t-207.5 66t-78.5 169zM103 225q0 -77 56 -125.5t149 -48.5q91 0 147.5 49t56.5 125q0 75 -56.5 124.5t-147.5 49.5q-92 0 -148.5 -49t-56.5 -125zM141 509v55h333
v-55h-333z" />
    <glyph glyph-name="Ohungarumlaut" unicode="&#x150;" horiz-adv-x="828"
d="M130 558q107 95 284 95q179 0 284.5 -95t105.5 -237t-105.5 -236.5t-284.5 -94.5q-177 0 -284 95t-107 236q0 142 107 237zM108 321q0 -108 80.5 -185t225.5 -77q147 0 226 77t79 185q0 109 -79 186t-226 77q-145 0 -225.5 -77.5t-80.5 -185.5zM498 693l85 117h112
l-135 -117h-62zM325 693l85 117h112l-136 -117h-61z" />
    <glyph glyph-name="ohungarumlaut" unicode="&#x151;" horiz-adv-x="615"
d="M22 225q0 102 78.5 168.5t207.5 66.5q128 0 206.5 -66.5t78.5 -168.5q0 -104 -78 -169q-78 -66 -207 -66t-207.5 66t-78.5 169zM103 225q0 -77 56 -125.5t149 -48.5q91 0 147.5 49t56.5 125q0 75 -56.5 124.5t-147.5 49.5q-92 0 -148.5 -49t-56.5 -125zM391 500l85 117
h112l-135 -117h-62zM218 500l85 117h112l-135 -117h-62z" />
    <glyph glyph-name="OE" unicode="&#x152;" horiz-adv-x="1340"
d="M130 558q107 95 284 95q209 0 316 -127v117h568v-67h-487v-219h440v-67h-440v-223h497v-67h-578v117q-107 -127 -316 -127q-177 0 -284 95t-107 236q0 142 107 237zM189 136q80 -77 225 -77q147 0 226 77t79 185q0 109 -79 186t-226 77q-145 0 -225.5 -77.5t-80.5 -185.5
t81 -185z" />
    <glyph glyph-name="oe" unicode="&#x153;" horiz-adv-x="1076"
d="M22 225q0 102 78.5 168.5t207.5 66.5q84 0 148 -30t100 -82q67 112 237 112q95 0 157.5 -39t83 -90t20.5 -101q0 -15 -2 -31h-449q5 -66 54 -107t137 -41q40 0 72.5 9t49.5 22t29 26.5t15 22.5l4 9h81q-1 -6 -4.5 -16t-20.5 -36t-42 -46t-74 -36t-111 -16q-82 0 -143 29
t-94 82q-76 -111 -248 -111q-129 0 -207.5 66t-78.5 169zM159 100q56 -49 149 -49q91 0 147.5 49t56.5 125q0 75 -56.5 124.5t-147.5 49.5q-92 0 -148.5 -49t-56.5 -125q0 -77 56 -125zM603 260h372q0 58 -48.5 98.5t-132.5 40.5q-88 0 -136.5 -41t-54.5 -98z" />
    <glyph glyph-name="Racute" unicode="&#x154;" horiz-adv-x="693"
d="M48 643h346q131 0 198 -53t67 -145q0 -117 -112 -169q43 -7 65 -28.5t22 -66.5v-181h-80v181q0 37 -18 51.5t-58 14.5h-349v-247h-81v643zM129 314h265q91 0 136.5 37t45.5 94q0 62 -44.5 96.5t-137.5 34.5h-265v-262zM281 693l85 117h111l-135 -117h-61z" />
    <glyph glyph-name="racute" unicode="&#x155;" horiz-adv-x="385"
d="M47 450h76l1 -92q42 92 149 92h91v-66h-89q-41 0 -69 -11t-43.5 -28t-24 -51t-10.5 -67t-2 -89v-138h-79v450zM175 500l85 117h112l-135 -117h-62z" />
    <glyph glyph-name="uni0156" unicode="&#x156;" horiz-adv-x="693"
d="M48 643h346q131 0 198 -53t67 -145q0 -117 -112 -169q43 -7 65 -28.5t22 -66.5v-181h-80v181q0 37 -18 51.5t-58 14.5h-349v-247h-81v643zM129 314h265q91 0 136.5 37t45.5 94q0 62 -44.5 96.5t-137.5 34.5h-265v-262zM306 -38h81l-86 -117h-44z" />
    <glyph glyph-name="uni0157" unicode="&#x157;" horiz-adv-x="385"
d="M123 450l1 -92q42 92 149 92h91v-66h-89q-41 0 -69 -11t-43.5 -28t-24 -51t-10.5 -67t-2 -89v-138h-79v450h76zM-4 -155l49 117h81l-86 -117h-44z" />
    <glyph glyph-name="Rcaron" unicode="&#x158;" horiz-adv-x="693"
d="M48 643h346q131 0 198 -53t67 -145q0 -117 -112 -169q43 -7 65 -28.5t22 -66.5v-181h-80v181q0 37 -18 51.5t-58 14.5h-349v-247h-81v643zM129 314h265q91 0 136.5 37t45.5 94q0 62 -44.5 96.5t-137.5 34.5h-265v-262zM101 807h83l114 -84l113 84h83l-151 -114h-91z" />
    <glyph glyph-name="rcaron" unicode="&#x159;" horiz-adv-x="385"
d="M123 450l1 -92q42 92 149 92h91v-66h-89q-41 0 -69 -11t-43.5 -28t-24 -51t-10.5 -67t-2 -89v-138h-79v450h76zM-4 614h83l114 -84l113 84h83l-151 -114h-91z" />
    <glyph glyph-name="Sacute" unicode="&#x15a;" horiz-adv-x="723"
d="M24 194h87q0 -3 1 -8t6.5 -19t14.5 -27t28.5 -28.5t45 -27t66 -19t90.5 -7.5q127 0 186 39.5t59 86.5q0 43 -40.5 69.5t-102 36.5t-133.5 21.5t-134.5 24t-105 45t-45.5 82.5v8q0 84 82 133t226 49q85 0 148.5 -17t94 -39t49 -49.5t21.5 -41t3 -20.5h-87q-1 4 -3 10.5
t-15.5 24t-35.5 30.5t-68 23.5t-107 10.5q-106 0 -165 -31t-59 -79v-8q3 -34 46.5 -54.5t106 -28t134.5 -19.5t133.5 -28t102 -54.5t40.5 -97.5q0 -93 -88 -144t-243 -51q-88 0 -155 21t-100.5 48t-54 60t-25 50t-4.5 25zM419 810h111l-135 -117h-61z" />
    <glyph glyph-name="sacute" unicode="&#x15b;" horiz-adv-x="540"
d="M22 140h84q0 -4 1.5 -10t11.5 -21t25.5 -27t49 -21.5t78.5 -9.5q81 0 122 22t41 58v4q-2 31 -43.5 47t-99.5 22.5t-116 15.5t-98.5 35.5t-41.5 72.5q0 50 57.5 91t171.5 41q59 0 104.5 -13.5t67.5 -28.5t38 -38.5t17.5 -30t4.5 -17.5h-84q0 3 -2 7.5t-11 16.5t-23.5 21.5
t-44 17t-67.5 7.5q-70 0 -109.5 -20t-39.5 -51v-3q1 -27 42 -40.5t99.5 -20t117 -16.5t100 -38.5t43.5 -77.5v-4q0 -61 -59 -101t-187 -40q-65 0 -114.5 15.5t-74 35.5t-39.5 44t-18.5 37t-3.5 18zM245 500l85 117h112l-136 -117h-61z" />
    <glyph glyph-name="Scedilla" unicode="&#x15e;" horiz-adv-x="723"
d="M111 194q0 -3 1 -8t6.5 -19t14.5 -27t28.5 -28.5t45 -27t66 -19t90.5 -7.5q127 0 186 39.5t59 86.5q0 43 -40.5 69.5t-102 36.5t-133.5 21.5t-134.5 24t-105 45t-45.5 82.5v8q0 84 82 133t226 49q85 0 148.5 -17t94 -39t49 -49.5t21.5 -41t3 -20.5h-87q-1 4 -3 10.5
t-15.5 24t-35.5 30.5t-68 23.5t-107 10.5q-106 0 -165 -31t-59 -79v-8q3 -34 46.5 -54.5t106 -28t134.5 -19.5t133.5 -28t102 -54.5t40.5 -97.5q0 -86 -75.5 -136t-210.5 -58v-29q0 -49 -21.5 -67t-73.5 -18h-97v58h97q16 0 21 5.5t5 21.5v28q-82 3 -144 24.5t-93 48.5
t-50.5 58.5t-23.5 48.5t-4 24h87z" />
    <glyph glyph-name="scedilla" unicode="&#x15f;" horiz-adv-x="540"
d="M22 140h84q0 -4 1.5 -10t11.5 -21t25.5 -27t49 -21.5t78.5 -9.5q81 0 122 22t41 58v4q-2 31 -43.5 47t-99.5 22.5t-116 15.5t-98.5 35.5t-41.5 72.5q0 50 57.5 91t171.5 41q59 0 104.5 -13.5t67.5 -28.5t38 -38.5t17.5 -30t4.5 -17.5h-84q0 3 -2 7.5t-11 16.5t-23.5 21.5
t-44 17t-67.5 7.5q-70 0 -109.5 -20t-39.5 -51v-3q1 -27 42 -40.5t99.5 -20t117 -16.5t100 -38.5t43.5 -77.5v-5q0 -55 -48 -93t-153 -46v-29q0 -49 -21 -67t-73 -18h-97v58h97q16 0 21 5.5t5 21.5v28q-59 3 -103.5 19t-67 36t-36.5 43t-17 35t-3 17z" />
    <glyph glyph-name="Scaron" unicode="&#x160;" horiz-adv-x="723"
d="M24 194h87q0 -3 1 -8t6.5 -19t14.5 -27t28.5 -28.5t45 -27t66 -19t90.5 -7.5q127 0 186 39.5t59 86.5q0 43 -40.5 69.5t-102 36.5t-133.5 21.5t-134.5 24t-105 45t-45.5 82.5v8q0 84 82 133t226 49q85 0 148.5 -17t94 -39t49 -49.5t21.5 -41t3 -20.5h-87q-1 4 -3 10.5
t-15.5 24t-35.5 30.5t-68 23.5t-107 10.5q-106 0 -165 -31t-59 -79v-8q3 -34 46.5 -54.5t106 -28t134.5 -19.5t133.5 -28t102 -54.5t40.5 -97.5q0 -93 -88 -144t-243 -51q-88 0 -155 21t-100.5 48t-54 60t-25 50t-4.5 25zM154 807h84l113 -84l113 84h83l-151 -114h-91z" />
    <glyph glyph-name="scaron" unicode="&#x161;" horiz-adv-x="540"
d="M106 140q0 -4 1.5 -10t11.5 -21t25.5 -27t49 -21.5t78.5 -9.5q81 0 122 22t41 58v4q-2 31 -43.5 47t-99.5 22.5t-116 15.5t-98.5 35.5t-41.5 72.5q0 50 57.5 91t171.5 41q59 0 104.5 -13.5t67.5 -28.5t38 -38.5t17.5 -30t4.5 -17.5h-84q0 3 -2 7.5t-11 16.5t-23.5 21.5
t-44 17t-67.5 7.5q-70 0 -109.5 -20t-39.5 -51v-3q1 -27 42 -40.5t99.5 -20t117 -16.5t100 -38.5t43.5 -77.5v-4q0 -61 -59 -101t-187 -40q-65 0 -114.5 15.5t-74 35.5t-39.5 44t-18.5 37t-3.5 18h84zM149 614l113 -84l113 84h83l-151 -114h-91l-151 114h84z" />
    <glyph glyph-name="uni0162" unicode="&#x162;" horiz-adv-x="716"
d="M23 643h670v-67h-295v-576h-6v-38q0 -49 -21 -67t-73 -18h-98v58h98q15 0 20.5 5.5t5.5 21.5v38h-7v576h-294v67z" />
    <glyph glyph-name="uni0163" unicode="&#x163;" horiz-adv-x="392"
d="M9 450h90v131h78v-131h184v-66h-184v-287q0 -17 6 -23.5t23 -6.5h152v-67h-87v-37q0 -48 -21.5 -66t-73.5 -18h-97v58h97q16 0 21 5.5t5 20.5v37q-57 1 -80 21.5t-23 75.5v287h-90v66z" />
    <glyph glyph-name="Tcaron" unicode="&#x164;" horiz-adv-x="716"
d="M693 643v-67h-295v-576h-81v576h-294v67h670zM158 807h83l113 -84l113 84h83l-150 -114h-91z" />
    <glyph glyph-name="tcaron" unicode="&#x165;" horiz-adv-x="392"
d="M9 450h90v131h78v-131h184v-66h-184v-287q0 -17 6 -23.5t23 -6.5h152v-67h-152q-60 0 -83.5 20.5t-23.5 76.5v287h-90v66zM317 643h112l-135 -117h-62z" />
    <glyph glyph-name="Tbar" unicode="&#x166;" horiz-adv-x="716"
d="M693 643v-67h-295v-216h203v-52h-203v-308h-81v308h-201v52h201v216h-294v67h670z" />
    <glyph glyph-name="tbar" unicode="&#x167;" horiz-adv-x="392"
d="M100 280v104h-90v66h90v131h78v-131h183v-66h-183v-104h183v-52h-183v-131q0 -18 5.5 -24t22.5 -6h153v-67h-153q-59 0 -82.5 20.5t-23.5 76.5v131h-91v52h91z" />
    <glyph glyph-name="Umacron" unicode="&#x16a;" horiz-adv-x="763"
d="M44 643h80v-371q0 -95 61.5 -154t195.5 -59q135 0 196 59t61 154v371h81v-371q0 -59 -16 -106.5t-52.5 -89t-105 -64t-164.5 -22.5q-95 0 -163 23t-104.5 63.5t-53 88.5t-16.5 107v371zM214 757h333v-55h-333v55z" />
    <glyph glyph-name="umacron" unicode="&#x16b;" horiz-adv-x="580"
d="M119 450v-251q0 -145 158 -145q79 0 127.5 43t48.5 126v227h79v-450h-77v95q-22 -43 -68 -73.5t-112 -31.5h-7q-228 0 -228 209v251h79zM453 564v-55h-333v55h333z" />
    <glyph glyph-name="Uring" unicode="&#x16e;" horiz-adv-x="763"
d="M44 643h80v-371q0 -95 61.5 -154t195.5 -59q135 0 196 59t61 154v371h81v-371q0 -59 -16 -106.5t-52.5 -89t-105 -64t-164.5 -22.5q-95 0 -163 23t-104.5 63.5t-53 88.5t-16.5 107v371zM298 835q33 24 83 24q49 0 83 -25t34 -60q0 -36 -34 -61t-83 -25q-50 0 -83.5 25
t-33.5 61t34 61zM304 774q0 -21 21.5 -34.5t55.5 -13.5q33 0 55 14t22 34t-22 34t-55 14q-34 0 -55.5 -13.5t-21.5 -34.5z" />
    <glyph glyph-name="uring" unicode="&#x16f;" horiz-adv-x="580"
d="M40 199v251h79v-251q0 -145 158 -145q79 0 127.5 43t48.5 126v227h79v-450h-77v95q-22 -43 -68 -73.5t-112 -31.5h-7q-228 0 -228 209zM204 642q33 24 83 24q49 0 83 -25t34 -60q0 -36 -34 -61t-83 -25q-50 0 -83.5 25t-33.5 61t34 61zM232 547q21 -14 55 -14q33 0 55 14
t22 34t-22 34t-55 14q-34 0 -55.5 -13.5t-21.5 -34.5t22 -34z" />
    <glyph glyph-name="Uhungarumlaut" unicode="&#x170;" horiz-adv-x="763"
d="M124 643v-371q0 -95 61.5 -154t195.5 -59q135 0 196 59t61 154v371h81v-371q0 -59 -16 -106.5t-52.5 -89t-105 -64t-164.5 -22.5q-95 0 -163 23t-104.5 63.5t-53 88.5t-16.5 107v371h80zM376 810h112l-135 -117h-62zM550 810h111l-135 -117h-61z" />
    <glyph glyph-name="uhungarumlaut" unicode="&#x171;" horiz-adv-x="580"
d="M40 450h79v-251q0 -145 158 -145q79 0 127.5 43t48.5 126v227h79v-450h-77v95q-22 -43 -68 -73.5t-112 -31.5h-7q-228 0 -228 209v251zM455 617h112l-135 -117h-62zM282 617h112l-135 -117h-62z" />
    <glyph glyph-name="Uogonek" unicode="&#x172;" horiz-adv-x="763"
d="M124 643v-371q0 -95 61.5 -154t195.5 -59q135 0 196 59t61 154v371h81v-371q0 -57 -15 -103.5t-48.5 -87t-97 -64.5t-151.5 -27v-15q0 -19 19 -19h67v-43h-67q-41 0 -56 12t-15 50v15q-87 3 -150 27t-97 64.5t-49 87t-15 103.5v371h80z" />
    <glyph glyph-name="uogonek" unicode="&#x173;" horiz-adv-x="580"
d="M119 450v-251q0 -145 158 -145q79 0 127.5 43t48.5 126v227h79v-450h-24v-25q0 -11 4 -15t15 -4h66v-44h-66q-41 0 -56.5 12.5t-15.5 50.5v120q-22 -43 -68 -73.5t-112 -31.5h-7q-228 0 -228 209v251h79z" />
    <glyph glyph-name="Wcircumflex" unicode="&#x174;" horiz-adv-x="1225"
d="M105 643l240 -565l230 565h75l231 -564l239 564h89l-284 -643h-89l-223 554l-223 -554h-89l-285 643h89zM565 810h92l150 -114h-83l-113 84l-113 -84h-83z" />
    <glyph glyph-name="wcircumflex" unicode="&#x175;" horiz-adv-x="901"
d="M95 450l157 -378l162 378h74l160 -378l158 378h86l-202 -450h-85l-155 371l-155 -371h-85l-201 450h86zM409 617h91l151 -114h-83l-113 84l-113 -84h-83z" />
    <glyph glyph-name="Ycircumflex" unicode="&#x176;" horiz-adv-x="766"
d="M111 643l272 -323l272 323h95l-327 -389v-254h-80v254l-327 389h95zM338 810h91l151 -114h-83l-113 84l-114 -84h-83z" />
    <glyph glyph-name="ycircumflex" unicode="&#x177;" horiz-adv-x="552"
d="M102 450l177 -375l178 375h86l-260 -535q-28 -57 -43 -72q-27 -26 -83 -26h-123v67h123q21 0 28 5.5t18 25.5l40 84l-226 451h85zM87 503l150 114h92l150 -114h-83l-113 84l-113 -84h-83z" />
    <glyph glyph-name="Ydieresis" unicode="&#x178;" horiz-adv-x="766"
d="M16 643h95l272 -323l272 323h95l-327 -389v-254h-80v254zM261 785q15 15 37 15q23 0 38 -15t15 -38q0 -21 -15 -36q-16 -15 -38 -15t-37 15t-15 36q0 23 15 38zM412 747q0 23 15.5 38t36.5 15q22 0 37.5 -15t15.5 -38q0 -21 -15.5 -36t-37.5 -15q-21 0 -36.5 15t-15.5 36
z" />
    <glyph glyph-name="Zacute" unicode="&#x179;" horiz-adv-x="802"
d="M582 810l-136 -117h-61l85 117h112zM146 67h620v-67h-729v67l614 509h-592v67h702v-64z" />
    <glyph glyph-name="zacute" unicode="&#x17a;" horiz-adv-x="575"
d="M470 617l-135 -117h-61l85 117h111zM133 66h419v-66h-526v66l403 318h-389v66h498v-63z" />
    <glyph glyph-name="Zdotaccent" unicode="&#x17b;" horiz-adv-x="802"
d="M37 0v67l614 509h-592v67h702v-64l-615 -512h620v-67h-729zM351 751q0 22 15.5 38t37.5 16t38 -15.5t16 -38.5q0 -22 -16 -37q-16 -16 -38 -16t-37.5 15.5t-15.5 37.5z" />
    <glyph glyph-name="zdotaccent" unicode="&#x17c;" horiz-adv-x="575"
d="M26 0v66l403 318h-389v66h498v-63l-405 -321h419v-66h-526zM240 558q0 22 15.5 38t37.5 16q23 0 38.5 -16t15.5 -38t-16 -37q-16 -16 -38 -16t-37.5 15.5t-15.5 37.5z" />
    <glyph glyph-name="Zcaron" unicode="&#x17d;" horiz-adv-x="802"
d="M37 0v67l614 509h-592v67h702v-64l-615 -512h620v-67h-729zM205 807h84l113 -84l113 84h83l-151 -114h-91z" />
    <glyph glyph-name="zcaron" unicode="&#x17e;" horiz-adv-x="575"
d="M26 0v66l403 318h-389v66h498v-63l-405 -321h419v-66h-526zM177 614l114 -84l113 84h83l-151 -114h-91l-151 114h83z" />
    <glyph glyph-name="uni018F" unicode="&#x18f;" horiz-adv-x="798"
d="M26 355h663q-6 102 -81 165.5t-218 63.5q-65 0 -116 -14t-78 -34t-44 -39.5t-22 -33.5l-5 -14h-87q4 14 9 27.5t30.5 49t60 60.5t101.5 46t151 21q184 0 283.5 -86.5t100.5 -234.5v-3q0 -148 -98.5 -243.5t-285.5 -95.5q-81 0 -149 22t-120 65t-74.5 106t-22.5 129
q0 21 2 43zM114 239q6 -27 24.5 -60t47.5 -58.5t82.5 -43.5t121.5 -18q132 0 208 64t89 165h-578v-7q0 -20 5 -42z" />
    <glyph glyph-name="AEacute" unicode="&#x1fc;" horiz-adv-x="1082"
d="M430 643h610v-67h-487v-219h440v-67h-440v-223h497v-67h-578v120h-303l-80 -120h-85zM472 187v391l-259 -391h259zM499 693l85 117h112l-135 -117h-62z" />
    <glyph glyph-name="aeacute" unicode="&#x1fd;" horiz-adv-x="1011"
d="M34 115q0 37 26 64.5t67 42t90 25t96 12t76 3t43 1.5t24 -1v23q0 57 -42.5 86t-111.5 29q-43 0 -75 -8t-47.5 -19.5t-24.5 -23t-11 -19.5l-1 -8h-84q1 7 2 11.5t8 20.5t16 27.5t28 27.5t43.5 26t62.5 17.5t84 7.5q153 0 200 -93q72 93 224 93q72 0 126 -22.5t84 -60
t40.5 -76.5t10.5 -74q0 -14 -1 -28h-450q5 -67 54 -107.5t137 -40.5q40 0 72.5 9t49.5 22t29 26.5t15 22.5l4 9h82q-1 -3 -2.5 -8.5t-9 -21t-18 -29.5t-30.5 -31.5t-45 -30t-63.5 -21t-84.5 -8.5q-169 0 -237 111q-35 -52 -106 -81.5t-161 -29.5q-93 0 -141 34t-48 89v2z
M909 260v2q0 57 -48 97t-133 40q-87 0 -135.5 -40.5t-54.5 -98.5h371zM117 114q0 -31 32 -47t82 -16q81 1 153 38.5t72 94.5v15h-10q-35 0 -58 -0.5t-67.5 -2.5t-75 -7.5t-62.5 -14.5t-49 -24.5t-17 -35.5zM584 617h112l-135 -117h-62z" />
    <glyph glyph-name="uni0218" unicode="&#x218;" horiz-adv-x="723"
d="M24 194h87q0 -3 1 -8t6.5 -19t14.5 -27t28.5 -28.5t45 -27t66 -19t90.5 -7.5q127 0 186 39.5t59 86.5q0 43 -40.5 69.5t-102 36.5t-133.5 21.5t-134.5 24t-105 45t-45.5 82.5v8q0 84 82 133t226 49q85 0 148.5 -17t94 -39t49 -49.5t21.5 -41t3 -20.5h-87q-1 4 -3 10.5
t-15.5 24t-35.5 30.5t-68 23.5t-107 10.5q-106 0 -165 -31t-59 -79v-8q3 -34 46.5 -54.5t106 -28t134.5 -19.5t133.5 -28t102 -54.5t40.5 -97.5q0 -93 -88 -144t-243 -51q-88 0 -155 21t-100.5 48t-54 60t-25 50t-4.5 25zM281 -155l49 117h82l-87 -117h-44z" />
    <glyph glyph-name="uni0219" unicode="&#x219;" horiz-adv-x="540"
d="M22 140h84q0 -4 1.5 -10t11.5 -21t25.5 -27t49 -21.5t78.5 -9.5q81 0 122 22t41 58v4q-2 31 -43.5 47t-99.5 22.5t-116 15.5t-98.5 35.5t-41.5 72.5q0 50 57.5 91t171.5 41q59 0 104.5 -13.5t67.5 -28.5t38 -38.5t17.5 -30t4.5 -17.5h-84q0 3 -2 7.5t-11 16.5t-23.5 21.5
t-44 17t-67.5 7.5q-70 0 -109.5 -20t-39.5 -51v-3q1 -27 42 -40.5t99.5 -20t117 -16.5t100 -38.5t43.5 -77.5v-4q0 -61 -59 -101t-187 -40q-65 0 -114.5 15.5t-74 35.5t-39.5 44t-18.5 37t-3.5 18zM240 -38h82l-87 -117h-44z" />
    <glyph glyph-name="uni021A" unicode="&#x21a;" horiz-adv-x="716"
d="M693 643v-67h-295v-576h-81v576h-294v67h670zM315 -38h81l-86 -117h-44z" />
    <glyph glyph-name="uni021B" unicode="&#x21b;" horiz-adv-x="392"
d="M99 450v131h78v-131h184v-66h-184v-287q0 -17 6 -23.5t23 -6.5h152v-67h-152q-60 0 -83.5 20.5t-23.5 76.5v287h-90v66h90zM193 -36h82l-87 -117h-44z" />
    <glyph glyph-name="uni0237" unicode="&#x237;" horiz-adv-x="177"
d="M-61 -182v67h82q30 0 30 30v535h78v-535q0 -52 -24 -74.5t-84 -22.5h-82z" />
    <glyph glyph-name="uni0259" unicode="&#x259;" horiz-adv-x="575"
d="M24 251h450q-5 67 -54.5 107.5t-137.5 40.5q-40 0 -72 -9t-49.5 -22t-29 -26.5t-15.5 -22.5l-3 -9h-82q1 6 4.5 16t20.5 36t42 46t74 36t111 16q124 0 197 -63.5t73 -170.5q0 -105 -71 -170.5t-199 -65.5q-95 0 -157.5 39t-83 90t-20.5 101q0 15 2 31zM150 92
q48 -41 133 -41q87 0 135.5 40.5t54.5 98.5h-372q0 -58 49 -98z" />
    <glyph glyph-name="circumflex" unicode="&#x2c6;" horiz-adv-x="489"
d="M441 503h-84l-113 84l-113 -84h-83l151 114h91z" />
    <glyph glyph-name="caron" unicode="&#x2c7;" horiz-adv-x="489"
d="M357 614h84l-151 -114h-91l-151 114h83l113 -84z" />
    <glyph glyph-name="dotaccent" unicode="&#x2d9;" horiz-adv-x="203"
d="M155 558q0 -22 -16 -37.5t-38 -15.5t-37.5 15.5t-15.5 37.5t15.5 38t37.5 16q23 0 38.5 -16t15.5 -38z" />
    <glyph glyph-name="ring" unicode="&#x2da;" horiz-adv-x="330"
d="M165 666q50 0 83.5 -24.5t33.5 -60.5t-33.5 -61t-83.5 -25t-83.5 25t-33.5 61t33.5 60.5t83.5 24.5zM165 629q-34 0 -55.5 -13.5t-21.5 -34.5t21.5 -34.5t55.5 -13.5q33 0 55 14t22 34t-22 34t-55 14z" />
    <glyph glyph-name="ogonek" unicode="&#x2db;" horiz-adv-x="234"
d="M186 -87v43h-67q-19 0 -19 19v61h-52v-61q0 -38 15 -50t56 -12h67z" />
    <glyph glyph-name="tilde" unicode="&#x2dc;" horiz-adv-x="510"
d="M436 604h26q0 -39 -34 -68.5t-88 -28.5q-42 1 -91.5 19.5t-80.5 19.5q-37 2 -60.5 -7.5t-28.5 -20.5l-5 -10h-26q0 38 33.5 68t87.5 29q42 -1 91.5 -21t81.5 -21q25 -1 44 3t28 10t14.5 12.5t6.5 11.5z" />
    <glyph glyph-name="hungarumlaut" unicode="&#x2dd;" horiz-adv-x="466"
d="M133 617h112l-135 -117h-62zM306 617h112l-135 -117h-62z" />
    <glyph glyph-name="uni0374" unicode="&#x374;" horiz-adv-x="600"
 />
    <glyph glyph-name="uni0375" unicode="&#x375;" horiz-adv-x="600"
 />
    <glyph glyph-name="pi" unicode="&#x3c0;" horiz-adv-x="655"
d="M612 383h-121v-285q0 -31 29 -31h57v-67h-57q-60 0 -84 23t-24 75v285h-184v-383h-78v383h-103v67h565v-67z" />
    <glyph glyph-name="Wgrave" unicode="&#x1e80;" horiz-adv-x="1225"
d="M105 643l240 -565l230 565h75l231 -564l239 564h89l-284 -643h-89l-223 554l-223 -554h-89l-285 643h89zM440 810h112l85 -117h-62z" />
    <glyph glyph-name="wgrave" unicode="&#x1e81;" horiz-adv-x="901"
d="M9 450h86l157 -378l162 378h74l160 -378l158 378h86l-202 -450h-85l-155 371l-155 -371h-85zM284 617h112l85 -117h-62z" />
    <glyph glyph-name="Wacute" unicode="&#x1e82;" horiz-adv-x="1225"
d="M16 643h89l240 -565l230 565h75l231 -564l239 564h89l-284 -643h-89l-223 554l-223 -554h-89zM592 693l85 117h112l-135 -117h-62z" />
    <glyph glyph-name="wacute" unicode="&#x1e83;" horiz-adv-x="901"
d="M9 450h86l157 -378l162 378h74l160 -378l158 378h86l-202 -450h-85l-155 371l-155 -371h-85zM436 500l85 117h112l-135 -117h-62z" />
    <glyph glyph-name="Wdieresis" unicode="&#x1e84;" horiz-adv-x="1225"
d="M105 643l240 -565l230 565h75l231 -564l239 564h89l-284 -643h-89l-223 554l-223 -554h-89l-285 643h89zM489 785q15 15 36 15q23 0 38 -15t15 -38q0 -21 -15 -36t-38 -15q-21 0 -36 15t-15 36q0 23 15 38zM655 785q15 15 36 15q23 0 38 -15t15 -38q0 -21 -15.5 -36
t-37.5 -15q-20 0 -35.5 15t-15.5 36q0 23 15 38z" />
    <glyph glyph-name="wdieresis" unicode="&#x1e85;" horiz-adv-x="901"
d="M95 450l157 -378l162 378h74l160 -378l158 378h86l-202 -450h-85l-155 371l-155 -371h-85l-201 450h86zM499 592q15 15 36 15q23 0 38 -15t15 -38q0 -21 -15.5 -36t-37.5 -15q-21 0 -36.5 15t-15.5 36q0 23 16 38zM333 592q15 15 36 15q23 0 38 -15t15 -38q0 -21 -15 -36
t-38 -15q-21 0 -36 15t-15 36q0 23 15 38z" />
    <glyph glyph-name="Germandbls" unicode="&#x1e9e;" horiz-adv-x="660"
d="M114 586q66 67 203 67q117 0 185.5 -50t68.5 -117v-4q-3 -89 -112 -127q172 -36 173 -166v-2q0 -89 -81 -138t-217 -49h-81v68h81q102 0 156.5 30.5t54.5 88.5v2q-1 42 -32 69.5t-81 38t-83 12.5t-57 2q-19 0 -39 -1v69q17 -1 34 -1q44 0 87 7t77 31.5t35 65.5v2
q0 47 -44.5 74t-124.5 27q-92 0 -137 -47t-45 -131v-407h-87v407q0 112 66 179z" />
    <glyph glyph-name="Ygrave" unicode="&#x1ef2;" horiz-adv-x="766"
d="M111 643l272 -323l272 323h95l-327 -389v-254h-80v254l-327 389h95zM324 810l85 -117h-61l-135 117h111z" />
    <glyph glyph-name="ygrave" unicode="&#x1ef3;" horiz-adv-x="552"
d="M102 450l177 -375l178 375h86l-260 -535q-28 -57 -43 -72q-27 -26 -83 -26h-123v67h123q21 0 28 5.5t18 25.5l40 84l-226 451h85zM224 617l85 -117h-62l-135 117h112z" />
    <glyph glyph-name="uni1EF8" unicode="&#x1ef8;" horiz-adv-x="766"
d="M111 643l272 -323l272 323h95l-327 -389v-254h-80v254l-327 389h95zM181 701q0 38 33 67.5t85 29.5h3q42 -1 91.5 -21t81.5 -21h10q19 0 36 3.5t26 9.5t14.5 12.5t6.5 10.5l1 5h25q0 -39 -33 -68t-84 -29h-4q-42 1 -91.5 19.5t-80.5 19.5h-12q-29 0 -50.5 -8.5
t-26.5 -18.5l-6 -11h-25z" />
    <glyph glyph-name="uni1EF9" unicode="&#x1ef9;" horiz-adv-x="552"
d="M17 450h85l177 -375l178 375h86l-260 -535q-28 -57 -43 -72q-27 -26 -83 -26h-123v67h123q21 0 28 5.5t18 25.5l40 84zM114 576q32 29 84 29h4q41 -1 91 -21t82 -21h10q19 0 35.5 3.5t25.5 9.5t14.5 12.5t6.5 11.5l1 4h26q0 -39 -33.5 -68t-84.5 -29h-4q-42 1 -91.5 19.5
t-80.5 19.5h-12q-29 0 -50.5 -8.5t-26.5 -19.5l-5 -10h-26q0 38 34 68z" />
    <glyph glyph-name="endash" unicode="&#x2013;" horiz-adv-x="825"
d="M710 216h-596v67h596v-67z" />
    <glyph glyph-name="emdash" unicode="&#x2014;" horiz-adv-x="1100"
d="M985 216h-871v67h871v-67z" />
    <glyph glyph-name="quoteleft" unicode="&#x2018;" horiz-adv-x="218"
d="M139 643l40 -182h-48l-92 182h100z" />
    <glyph glyph-name="quoteright" unicode="&#x2019;" horiz-adv-x="218"
d="M80 643h99l-92 -182h-48z" />
    <glyph glyph-name="quotesinglbase" unicode="&#x201a;" horiz-adv-x="223"
d="M82 103h99l-91 -182h-48z" />
    <glyph glyph-name="quotedblleft" unicode="&#x201c;" horiz-adv-x="363"
d="M139 643l40 -182h-48l-92 182h100zM283 643l40 -182h-48l-91 182h99z" />
    <glyph glyph-name="quotedblright" unicode="&#x201d;" horiz-adv-x="363"
d="M80 643h99l-92 -182h-48zM224 643h99l-91 -182h-48z" />
    <glyph glyph-name="quotedblbase" unicode="&#x201e;" horiz-adv-x="367"
d="M82 103h99l-91 -182h-48zM226 103h100l-92 -182h-48z" />
    <glyph glyph-name="dagger" unicode="&#x2020;" horiz-adv-x="400"
d="M360 522v-67h-123v-377h-74v377h-123v67h123v65h74v-65h123z" />
    <glyph glyph-name="daggerdbl" unicode="&#x2021;" horiz-adv-x="400"
d="M360 455h-123v-131h123v-67h-123v-179h-74v179h-123v67h123v131h-123v67h123v65h74v-65h123v-67z" />
    <glyph glyph-name="bullet" unicode="&#x2022;" horiz-adv-x="260"
d="M212 304q0 -34 -24.5 -58t-58.5 -24q-33 0 -57 24t-24 58t24 58.5t57 24.5q35 0 59 -24.5t24 -58.5z" />
    <glyph glyph-name="ellipsis" unicode="&#x2026;" horiz-adv-x="609"
d="M155 51q0 -23 -17 -39.5t-40 -16.5t-39.5 16.5t-16.5 39.5q0 24 16.5 40.5t39.5 16.5t40 -16.5t17 -40.5zM361 51q0 -23 -17 -39.5t-40 -16.5t-39.5 16.5t-16.5 39.5q0 24 16.5 40.5t39.5 16.5t40 -16.5t17 -40.5zM567 51q0 -23 -16.5 -39.5t-40.5 -16.5
q-23 0 -39.5 16.5t-16.5 39.5q0 24 16.5 40.5t39.5 16.5q24 0 40.5 -16.5t16.5 -40.5z" />
    <glyph glyph-name="perthousand" unicode="&#x2030;" horiz-adv-x="1162"
d="M54 489q0 74 44 119.5t122 45.5q81 0 123.5 -45t42.5 -120q0 -74 -42.5 -119t-123.5 -45q-78 0 -122 46t-44 118zM125 0h-61l618 643h60zM342 489q0 57 -31.5 93.5t-90.5 36.5q-58 0 -90.5 -36.5t-32.5 -93.5q0 -56 32.5 -92.5t90.5 -36.5q59 0 90.5 36t31.5 93zM411 151
q0 74 43.5 119.5t121.5 45.5q81 0 123.5 -45t42.5 -120q0 -74 -42.5 -119t-123.5 -45q-77 0 -121 45.5t-44 118.5zM782 151q0 74 44 119.5t122 45.5q81 0 123.5 -45t42.5 -120q0 -74 -42.5 -119t-123.5 -45q-78 0 -122 46t-44 118zM699 151q0 57 -32 93.5t-91 36.5
q-58 0 -90.5 -36.5t-32.5 -93.5q0 -56 33 -92.5t90 -36.5q59 0 91 36t32 93zM1071 151q0 57 -32 93.5t-91 36.5q-58 0 -90.5 -36.5t-32.5 -93.5q0 -56 33 -92.5t90 -36.5q59 0 91 36.5t32 92.5z" />
    <glyph glyph-name="guilsinglleft" unicode="&#x2039;" horiz-adv-x="531"
d="M417 418l-214 -189l214 -191h-89l-214 191l214 189h89z" />
    <glyph glyph-name="guilsinglright" unicode="&#x203a;" horiz-adv-x="531"
d="M203 418l214 -189l-214 -191h-89l214 191l-214 189h89z" />
    <glyph glyph-name="fraction" unicode="&#x2044;" horiz-adv-x="774"
d="M109 0h-61l617 643h61z" />
    <glyph glyph-name="uni2070" unicode="&#x2070;" horiz-adv-x="451"
d="M39 510q0 83 49.5 134t136.5 51q92 0 139.5 -50.5t47.5 -134.5q0 -83 -48 -133.5t-139 -50.5q-87 0 -136.5 51t-49.5 133zM363 510q0 64 -36 105t-102 41q-64 0 -101 -41t-37 -105q0 -62 37 -103.5t101 -41.5q66 0 102 41t36 104z" />
    <glyph glyph-name="uni2074" unicode="&#x2074;" horiz-adv-x="442"
d="M402 448v-38h-79v-80h-45v80h-239v38l239 239h45v-239h79zM93 448h185v183z" />
    <glyph glyph-name="uni2075" unicode="&#x2075;" horiz-adv-x="418"
d="M216 587q67 0 114.5 -33.5t47.5 -97.5q0 -60 -47.5 -95.5t-124.5 -35.5q-45 0 -79 12t-50 28.5t-25.5 33.5t-11.5 29l-1 12h47q0 -3 1 -8t8 -18.5t18 -23.5t35.5 -18t57.5 -8q56 0 90 25t34 67q1 48 -35.5 72.5t-88.5 25.5q-42 0 -77 -16t-44 -43h-43l32 193h282v-37
h-245l-17 -102q46 38 122 38z" />
    <glyph glyph-name="uni2076" unicode="&#x2076;" horiz-adv-x="416"
d="M210 326q-80 0 -126 45.5t-45 122.5q0 37 9 70.5t28 64t54 48.5t81 18q38 0 67.5 -8t44.5 -20t24.5 -24t12.5 -20l2 -8h-49q-1 2 -2 5t-8 10.5t-17 13.5t-29.5 11t-44.5 5q-40 0 -68 -17.5t-39.5 -44t-16 -46.5t-3.5 -34q3 6 11 15t40 24.5t74 15.5q74 0 120.5 -32.5
t46.5 -86.5q0 -56 -45 -92t-122 -36zM90 456q1 -38 34 -64.5t86 -26.5q55 0 87 26.5t33 62.5q0 37 -33.5 60.5t-86.5 23.5q-56 0 -87 -23.5t-33 -58.5z" />
    <glyph glyph-name="uni2077" unicode="&#x2077;" horiz-adv-x="393"
d="M39 687h315v-35q-7 -5 -18.5 -13.5t-42 -39.5t-54 -65.5t-44 -90t-23.5 -113.5h-51q6 102 58 183.5t115 136.5h-255v37z" />
    <glyph glyph-name="uni2078" unicode="&#x2078;" horiz-adv-x="416"
d="M291 523q86 -24 86 -89q0 -51 -43.5 -79.5t-125.5 -28.5t-125.5 28.5t-43.5 79.5q0 64 86 89q-66 20 -66 73q0 44 39.5 71.5t109.5 27.5q69 0 109 -27.5t40 -71.5q0 -52 -66 -73zM105 596q0 -25 29.5 -42t73.5 -17q45 0 74 16.5t29 42.5q0 28 -27 46.5t-76 18.5t-76 -18
t-27 -47zM208 363q58 0 89.5 20t31.5 53q0 34 -33.5 52t-87.5 18q-53 0 -87 -18t-34 -52q0 -33 31.5 -53t89.5 -20z" />
    <glyph glyph-name="uni2079" unicode="&#x2079;" horiz-adv-x="416"
d="M206 694q80 0 125.5 -45t45.5 -123q0 -37 -9 -70t-28 -63.5t-54 -48.5t-81 -18q-38 0 -67.5 8t-44.5 20t-24.5 24t-12.5 20l-2 8h48q1 -2 2 -5t8 -10.5t17.5 -13.5t30 -11t44.5 -5q32 0 57 12.5t37.5 29.5t20.5 38.5t10 36t2 25.5q-3 -6 -11 -15t-40 -24.5t-74 -15.5
q-75 0 -121 32.5t-46 86.5q0 56 44.5 91.5t122.5 35.5zM326 565q-1 38 -34 64.5t-86 26.5q-55 0 -87.5 -26.5t-32.5 -62.5q0 -37 33.5 -60.5t86.5 -23.5q56 0 87 23.5t33 58.5z" />
    <glyph glyph-name="uni2080" unicode="&#x2080;" horiz-adv-x="456"
d="M41 108q0 83 49.5 134t137.5 51q91 0 138.5 -50.5t47.5 -134.5q0 -83 -47.5 -133.5t-138.5 -50.5q-88 0 -137.5 51t-49.5 133zM366 108q0 64 -36 105t-102 41q-65 0 -101.5 -41t-36.5 -105q0 -62 36.5 -103.5t101.5 -41.5q66 0 102 41t36 104z" />
    <glyph glyph-name="uni2081" unicode="&#x2081;" horiz-adv-x="351"
d="M198 -33h111v-37h-267v37h111v232q-9 -4 -23 -4h-88v37h88q14 0 18.5 7t4.5 23v25h45v-320z" />
    <glyph glyph-name="uni2082" unicode="&#x2082;" horiz-adv-x="413"
d="M99 -33h273v-37h-330q0 47 28.5 81.5t69 53.5t81 34.5t69.5 35t30 44.5q2 35 -26.5 55t-82.5 20q-30 0 -52 -7.5t-32.5 -17.5t-16.5 -20.5t-7 -18.5l-1 -7h-47q0 5 1.5 13t10 26.5t23.5 33t46.5 26t74.5 11.5q77 0 117.5 -30.5t39.5 -83.5q-1 -32 -25.5 -55.5
t-60.5 -38.5t-73 -29.5t-68.5 -37t-41.5 -51.5z" />
    <glyph glyph-name="uni2083" unicode="&#x2083;" horiz-adv-x="415"
d="M373 37q1 -48 -44.5 -80.5t-125.5 -32.5q-45 0 -78.5 11.5t-49 28.5t-24 34t-9.5 28l-1 12h49q0 -3 0.5 -8t6.5 -18t16.5 -23t34 -18t55.5 -8q60 0 91 20t31 54q0 29 -27 46t-63.5 19t-74.5 0v39q62 -4 102 10.5t40 47.5q0 25 -24.5 40.5t-75.5 15.5q-29 0 -50 -7
t-30 -17.5t-14 -21t-6 -17.5v-7h-48q0 4 0.5 11.5t8.5 26t21.5 33t44.5 26t73 11.5q70 0 109 -27.5t39 -66.5q0 -50 -69 -74q92 -18 92 -88z" />
    <glyph glyph-name="uni2084" unicode="&#x2084;" horiz-adv-x="446"
d="M405 48v-38h-80v-80h-45v80h-238v38l238 239h45v-239h80zM96 48h184v182z" />
    <glyph glyph-name="uni2085" unicode="&#x2085;" horiz-adv-x="422"
d="M218 186q67 0 115 -33.5t48 -97.5q0 -60 -48 -95.5t-125 -35.5q-45 0 -78.5 12t-49.5 28.5t-25.5 33.5t-10.5 29l-2 12h47q0 -3 1 -8t7.5 -18.5t18 -23.5t36 -18t56.5 -8q56 0 90.5 25t34.5 67q0 48 -36.5 72.5t-87.5 25.5q-42 0 -77 -16t-44 -43h-43l31 193h282v-37
h-244l-17 -101q45 37 121 37z" />
    <glyph glyph-name="uni2086" unicode="&#x2086;" horiz-adv-x="421"
d="M213 -76q-81 0 -126.5 45t-45.5 123q1 81 42.5 141t130.5 60q38 0 67.5 -8t44.5 -20t24 -24t12 -20l2 -8h-48q-1 2 -2 5t-8 10.5t-17.5 13.5t-30 11t-44.5 5q-32 0 -57 -12.5t-37.5 -29.5t-20.5 -38.5t-10 -36t-2 -25.5q1 2 4 6t13.5 13.5t23.5 16.5t35.5 13t49.5 6
q74 0 120.5 -32.5t45.5 -86.5q0 -56 -44.5 -92t-121.5 -36zM93 54q0 -38 33.5 -64.5t86.5 -26.5q55 0 87 26.5t32 62.5q0 37 -33 60.5t-86 23.5q-56 0 -87 -23.5t-33 -58.5z" />
    <glyph glyph-name="uni2087" unicode="&#x2087;" horiz-adv-x="398"
d="M42 287h314v-35q-7 -5 -18.5 -13.5t-42 -39.5t-54 -65.5t-44 -90t-23.5 -113.5h-51q6 102 58 183.5t115 136.5h-254v37z" />
    <glyph glyph-name="uni2088" unicode="&#x2088;" horiz-adv-x="421"
d="M294 121q86 -25 86 -89q0 -51 -44 -79.5t-126 -28.5t-125.5 28.5t-43.5 79.5q0 30 22.5 53.5t63.5 35.5q-66 20 -66 73q0 44 40 71.5t109 27.5q70 0 110 -27.5t40 -71.5q0 -51 -66 -73zM108 194q0 -25 29 -42t73 -17q45 0 74 16.5t29 42.5q0 28 -27 46.5t-76 18.5
t-75.5 -18t-26.5 -47zM210 -39q58 0 89.5 20t31.5 53q0 34 -33.5 52t-87.5 18q-52 0 -86 -18t-34 -52q0 -33 31 -53t89 -20z" />
    <glyph glyph-name="uni2089" unicode="&#x2089;" horiz-adv-x="421"
d="M208 293q80 0 126 -45t45 -123q0 -37 -9 -70t-28 -63.5t-54 -48.5t-81 -18q-38 0 -67.5 8t-44.5 20t-24.5 24t-12.5 20l-2 8h49q1 -2 2 -5t8 -10.5t17.5 -13.5t30 -11t44.5 -5q32 0 57 12.5t37.5 29.5t20.5 38.5t9.5 36t1.5 25.5q-3 -6 -11 -15t-40 -24.5t-74 -15.5
q-74 0 -120.5 32.5t-46.5 86.5q1 56 45.5 91.5t121.5 35.5zM328 164q-1 38 -34 64.5t-86 26.5q-55 0 -87 -26.5t-32 -62.5q-1 -37 32.5 -60.5t86.5 -23.5q56 0 87 23.5t33 58.5z" />
    <glyph glyph-name="Euro" unicode="&#x20ac;" horiz-adv-x="878"
d="M119 285q-2 24 -2 36t2 36h-71v67h85q34 105 132.5 167t241.5 62q223 0 314 -133q21 -31 33 -72h-87q-2 6 -6 15t-23.5 32.5t-45.5 41.5t-75.5 32.5t-109.5 14.5q-108 0 -180.5 -43.5t-103.5 -116.5h373v-67h-391q-2 -24 -2 -36t2 -36h391v-67h-372q32 -72 105 -115.5
t178 -43.5q61 0 110 14t75.5 34t44 40t22.5 34l5 14h87q-1 -8 -7 -25t-29 -50t-57.5 -60.5t-100.5 -48.5t-150 -21q-144 0 -242 61.5t-132 166.5h-85v67h71z" />
    <glyph glyph-name="uni20BF" unicode="&#x20bf;" horiz-adv-x="713"
d="M48 643h150v84h80v-84h87v84h80v-85q214 -12 214 -172q0 -90 -101 -125q127 -37 127 -161q0 -83 -60 -132t-180 -52v-81h-80v81h-87v-81h-80v81h-150v643zM432 67q167 0 167 118q0 61 -42 87.5t-125 26.5h-303v-232h303zM129 576v-210l50 -1h252q71 0 109 26.5t38 77.5
q0 107 -171 107h-278z" />
    <glyph glyph-name="trademark" unicode="&#x2122;" horiz-adv-x="565"
d="M270 642h28l100 -175l99 175h29v-197h-25v158l-90 -158h-26l-90 158v-158h-25v197zM39 642h206v-20h-91v-177h-24v177h-91v20z" />
    <glyph glyph-name="oneeighth" unicode="&#x215b;" horiz-adv-x="876"
d="M48 286v37h112v232q-9 -4 -23 -4h-89v37h89q23 0 23 30v25h45v-320h111v-37h-268zM722 643h60l-617 -643h-61zM742 191q86 -25 86 -90q0 -50 -44 -78.5t-125 -28.5q-82 0 -125.5 28.5t-43.5 78.5q0 65 86 90q-66 20 -66 73q0 44 39.5 71.5t109.5 27.5q69 0 109 -27.5
t40 -71.5q0 -51 -66 -73zM556 264q0 -25 29.5 -42t73.5 -17q45 0 74 16.5t29 42.5q0 29 -27 47t-76 18t-76 -18t-27 -47zM659 31q57 0 88.5 20t31.5 53q0 34 -33.5 52t-86.5 18t-87 -18t-34 -52q0 -33 31.5 -53t89.5 -20z" />
    <glyph glyph-name="threeeighths" unicode="&#x215c;" horiz-adv-x="899"
d="M380 389q1 -48 -45 -80.5t-126 -32.5q-45 0 -78.5 11.5t-48.5 28.5t-23.5 34t-9.5 28l-1 12h48q0 -3 0.5 -8t7 -18t17 -23t33.5 -18t55 -8q60 0 91 20t31 54q0 22 -15.5 37.5t-40 21t-53.5 7.5t-56 -1v39q61 -4 102 11t41 47q0 56 -101 56q-29 0 -50 -7t-30 -17.5
t-14 -21t-6 -17.5v-7h-48q0 4 0.5 11.5t8.5 26t21.5 33t44.5 26t73 11.5q70 0 109 -27.5t39 -66.5q0 -50 -69 -74q92 -18 93 -88zM742 643h61l-618 -643h-60zM766 191q85 -24 85 -90q0 -50 -43.5 -78.5t-124.5 -28.5q-82 0 -125.5 28.5t-43.5 78.5q0 65 86 90q-67 20 -67 73
q0 44 40 71.5t110 27.5q69 0 109 -27.5t40 -71.5q0 -51 -66 -73zM579 264q0 -25 30 -42t74 -17q45 0 74 16.5t29 42.5q0 29 -27 47t-76 18t-76.5 -18t-27.5 -47zM683 31q57 0 88.5 20t31.5 53q0 34 -33.5 52t-86.5 18t-87 -18t-34 -52q0 -33 31.5 -53t89.5 -20z" />
    <glyph glyph-name="fiveeighths" unicode="&#x215d;" horiz-adv-x="894"
d="M387 411q0 -59 -48 -95t-124 -36q-45 0 -79 12t-50 29t-25.5 33.5t-10.5 28.5l-2 12h47q0 -3 1 -8t8 -18.5t18 -23.5t35.5 -18t57.5 -8q56 0 90 25t34 67q0 48 -36.5 73t-87.5 24q-42 1 -77 -15t-44 -42h-43l32 192h282v-37h-245l-17 -102q45 36 121 38q67 0 115 -33.5
t48 -97.5zM742 643h60l-617 -643h-61zM761 191q85 -24 85 -90q0 -50 -43.5 -78.5t-124.5 -28.5q-82 0 -125.5 28.5t-43.5 78.5q0 65 86 90q-66 20 -66 73q0 44 39.5 71.5t109.5 27.5q69 0 109 -27.5t40 -71.5q0 -51 -66 -73zM575 264q0 -25 29.5 -42t73.5 -17q45 0 74 16.5
t29 42.5q0 29 -27 47t-76 18t-76 -18t-27 -47zM678 31q57 0 88.5 20t31.5 53q0 34 -33.5 52t-86.5 18t-87 -18t-34 -52q0 -33 31.5 -53t89.5 -20z" />
    <glyph glyph-name="seveneighths" unicode="&#x215e;" horiz-adv-x="828"
d="M665 643h61l-617 -643h-61zM169 285q6 102 58 183.5t115 136.5h-255v37h315v-35q-7 -5 -18.5 -14t-42 -40t-54.5 -65.5t-44.5 -89.5t-23.5 -113h-50zM695 191q85 -24 85 -90q0 -50 -43.5 -78.5t-124.5 -28.5q-82 0 -125.5 28.5t-43.5 78.5q0 65 86 90q-67 20 -67 73
q0 44 40 71.5t110 27.5q69 0 109 -27.5t40 -71.5q0 -51 -66 -73zM508 264q0 -25 30 -42t74 -17q45 0 74 16.5t29 42.5q0 29 -27 47t-76 18t-76.5 -18t-27.5 -47zM612 31q57 0 88.5 20t31.5 53q0 34 -33.5 52t-86.5 18t-87 -18t-34 -52q0 -33 31.5 -53t89.5 -20z" />
    <glyph glyph-name="arrowleft" unicode="&#x2190;" horiz-adv-x="951"
d="M837 269v-67h-603l153 -147l-46 -46l-227 226l227 227l46 -46l-152 -147h602z" />
    <glyph glyph-name="arrowup" unicode="&#x2191;" horiz-adv-x="549"
d="M501 434l-46 -45l-146 151v-540h-70v538l-145 -149l-46 45l227 227z" />
    <glyph glyph-name="arrowright" unicode="&#x2192;" horiz-adv-x="951"
d="M609 462l228 -227l-228 -226l-45 46l152 147h-602v67h601l-151 147z" />
    <glyph glyph-name="arrowdown" unicode="&#x2193;" horiz-adv-x="549"
d="M455 254l46 -45l-226 -227l-227 227l46 45l145 -149v539h70v-541z" />
    <glyph glyph-name="arrowboth" unicode="&#x2194;" horiz-adv-x="1094"
d="M752 462l228 -227l-228 -226l-45 46l152 147h-625l153 -147l-46 -46l-227 226l227 227l46 -46l-152 -147h623l-151 147z" />
    <glyph glyph-name="arrowupdn" unicode="&#x2195;" horiz-adv-x="549"
d="M308 79l147 152l46 -45l-226 -228l-227 228l46 45l147 -151v472l-147 -151l-46 45l227 228l226 -228l-46 -45l-147 152v-474z" />
    <glyph glyph-name="uni2196" unicode="&#x2196;" horiz-adv-x="614"
d="M566 39l-47 -48l-409 409l3 -213h-65v321h321v-65l-211 3z" />
    <glyph glyph-name="uni2197" unicode="&#x2197;" horiz-adv-x="614"
d="M245 508h320v-321h-65l4 213l-409 -409l-47 48l407 407l-210 -3v65z" />
    <glyph glyph-name="uni2198" unicode="&#x2198;" horiz-adv-x="614"
d="M245 1v65l210 -3l-407 407l47 47l409 -408l-3 212l64 1l1 -321h-321z" />
    <glyph glyph-name="uni2199" unicode="&#x2199;" horiz-adv-x="614"
d="M566 470l-408 -407l211 3v-65h-321v321l65 -1l-3 -212l409 408z" />
    <glyph glyph-name="partialdiff" unicode="&#x2202;" horiz-adv-x="647"
d="M319 -12q144 0 226 82t79 223q-2 75 -32 142.5t-83 119.5t-134.5 79.5t-178.5 20.5l-1 -63q75 6 136.5 -10.5t99 -45.5t64.5 -67t38.5 -72t13.5 -65q-2 4 -7 11t-24 24.5t-42.5 31t-65 24.5t-89.5 11q-132 0 -214 -59.5t-82 -156.5q1 -101 79 -165.5t217 -64.5zM535 224
q-1 -69 -61.5 -118t-154.5 -49q-100 0 -157.5 48t-57.5 113q0 68 59.5 110.5t155.5 42.5q101 0 157 -42.5t59 -104.5z" />
    <glyph glyph-name="emptyset" unicode="&#x2205;" horiz-adv-x="798"
d="M685 541q89 -95 89 -222q0 -141 -106.5 -238t-268.5 -97q-144 0 -248 80l-70 -63l-38 38l68 61q-88 91 -88 219q0 141 107 238.5t269 97.5q146 0 248 -80l71 63l36 -36zM83 319q0 -104 72 -181l448 398q-87 63 -204 63q-138 0 -227 -81.5t-89 -198.5zM399 40
q138 0 227 81.5t89 197.5q0 105 -73 183l-447 -399q87 -63 204 -63z" />
    <glyph glyph-name="product" unicode="&#x220f;" horiz-adv-x="751"
d="M703 643v-67h-121v-576h-75v576h-264v-576h-76v576h-119v67h655z" />
    <glyph glyph-name="summation" unicode="&#x2211;" horiz-adv-x="587"
d="M540 643v-67h-405l211 -253l-211 -256h405v-67h-492v67l212 256l-212 253v67h492z" />
    <glyph glyph-name="minus" unicode="&#x2212;" horiz-adv-x="686"
d="M571 264h-457v67h457v-67z" />
    <glyph glyph-name="radical" unicode="&#x221a;" horiz-adv-x="612"
d="M463 721h101v-67h-105q-34 0 -41 -27l-178 -627h-80l-112 350h77l74 -250l142 530q10 49 37 70t85 21z" />
    <glyph glyph-name="infinity" unicode="&#x221e;" horiz-adv-x="1280"
d="M945 461q144 7 228.5 -57.5t84.5 -176.5t-85 -179.5t-228 -60.5q-57 3 -111 25t-94 54.5t-62 54.5t-38 43q-15 -20 -37.5 -43t-62 -55t-94 -54t-111.5 -25q-143 -7 -228 60.5t-85 179.5t84.5 176.5t228.5 57.5q58 -3 112.5 -26t94 -56.5t61.5 -57.5t37 -45
q12 17 26.5 33.5t45 45t62.5 49.5t78 38t93 19zM335 52q44 3 87.5 21t74 42t54.5 48t36 41l12 16q-4 7 -12.5 18t-35.5 40.5t-55.5 52.5t-72.5 42.5t-88 22.5q-108 6 -170 -38.5t-62 -130.5q0 -78 64 -129.5t168 -45.5zM945 52q105 -6 169 45.5t64 129.5q0 86 -62 130.5
t-171 38.5q-44 -3 -87 -22t-73.5 -44t-54.5 -50t-36 -42l-12 -18q4 -6 12 -17t35 -39t55.5 -49.5t72.5 -40.5t88 -22z" />
    <glyph glyph-name="integral" unicode="&#x222b;" horiz-adv-x="531"
d="M383 643h100v-67h-104q-35 0 -41 -27l-25 -160l-45 -297q-9 -47 -34 -69.5t-80 -22.5h-106v67h105q32 0 38 27l67 438l3 19q8 48 36 70t86 22z" />
    <glyph glyph-name="approxequal" unicode="&#x2248;" horiz-adv-x="745"
d="M582 465h49q0 -40 -42.5 -81.5t-113.5 -41.5q-47 0 -107.5 30.5t-96.5 30.5q-26 0 -47 -6t-32 -14.5t-18 -17.5t-9 -15l-2 -6h-49q0 41 42 82t114 41q51 0 111.5 -30.5t92.5 -30.5q26 0 46.5 6t31.5 14.5t18.5 17.5t9.5 15zM582 282h49q0 -40 -42.5 -82t-113.5 -42
q-47 0 -107.5 31t-96.5 31q-26 0 -47 -6t-32 -15t-18 -18t-9 -15l-2 -6h-49q0 41 42 82.5t114 41.5q51 0 111.5 -31t92.5 -31q26 0 46.5 6t31.5 15t18.5 18t9.5 15z" />
    <glyph glyph-name="notequal" unicode="&#x2260;" horiz-adv-x="686"
d="M571 355h-150l-99 -113h249v-67h-309l-63 -72h-60l63 72h-88v67h148l99 113h-247v67h306l68 77h60l-68 -77h91v-67z" />
    <glyph glyph-name="lessequal" unicode="&#x2264;" horiz-adv-x="686"
d="M571 522v-68l-361 -94l361 -94v-67l-457 121v80zM114 70v67h457v-67h-457z" />
    <glyph glyph-name="greaterequal" unicode="&#x2265;" horiz-adv-x="686"
d="M114 522l457 -122v-80l-457 -121v67l361 94l-361 94v68zM114 70v67h457v-67h-457z" />
    <glyph glyph-name="lozenge" unicode="&#x25ca;" horiz-adv-x="543"
d="M310 643l185 -321l-185 -322h-77l-185 322l185 321h77zM271 52l152 270l-152 269l-152 -269z" />
    <glyph glyph-name="uni2601" unicode="&#x2601;" horiz-adv-x="1359"
d="M1259 268q0 -107 -73.5 -184.5t-179.5 -83.5h-685q-91 0 -156 65t-65 156t65 156t156 65q35 0 65 -10q23 99 104 164t185 65q77 0 142 -36t106 -97q32 9 68 9q111 0 189.5 -79t78.5 -190z" />
    <glyph glyph-name="uni2602" unicode="&#x2602;" horiz-adv-x="921"
d="M476 616q70 -2 127.5 -19t92 -43t60.5 -57.5t38 -62t18.5 -56t7.5 -41.5l1 -16h-5q-35 43 -91 43q-52 0 -88 -39q-36 39 -88 39q-42 0 -73 -25v-268q0 -35 -20 -55.5t-55 -20.5q-32 0 -53 18q-23 21 -23 58h30q0 -46 46 -46q45 0 45 46v268q-31 25 -73 25q-53 0 -89 -39
q-34 39 -88 39q-56 0 -91 -43h-5q0 6 1 16.5t7.5 40.5t18.5 57t38 61t61 58.5t92 42t128 19.5v27h30v-27z" />
    <glyph glyph-name="sun" unicode="&#x263c;" horiz-adv-x="882"
d="M782 306h-141q-5 -67 -48 -115l100 -100l-21 -21l-100 99q-50 -43 -116 -47v-142h-30v142q-66 5 -116 48l-100 -100l-21 21l100 100q-42 49 -47 115h-142v30h142q4 66 47 116l-100 100l21 21l100 -100q50 43 116 48v141h30v-141q68 -5 116 -48l100 100l21 -21l-100 -100
q43 -48 48 -116h141v-30z" />
    <glyph glyph-name="heart" unicode="&#x2665;" horiz-adv-x="992"
d="M685 653q93 0 150 -59t57 -164q0 -71 -41 -142.5t-99 -122.5t-116 -92t-99 -62l-41 -21q-8 4 -22.5 11.5t-55.5 32t-78.5 50.5t-83 67t-78.5 82t-55.5 93.5t-22.5 103.5q0 106 57 164.5t150 58.5q34 0 66 -11.5t53 -28t38 -33t24 -28.5l8 -11q3 5 8.5 12.5t24 26.5t39 34
t52.5 27t65 12z" />
    <glyph glyph-name="uni26C6" unicode="&#x26c6;" horiz-adv-x="990"
d="M707 501q76 0 129.5 -53.5t53.5 -129.5q0 -73 -50 -125.5t-122 -57.5h-20l-21 -52q-7 -13 -20 -8q-14 5 -8 20l17 40h-87l-22 -52q-5 -14 -19 -8q-15 6 -8 20l16 40h-86l-22 -52q-5 -14 -20 -8q-13 6 -8 20l17 40h-87l-21 -52q-7 -13 -20 -8q-14 5 -8 20l17 40h-57
q-62 0 -106.5 44t-44.5 107q0 62 44.5 106t106.5 44q23 0 44 -6q16 67 71 111t126 44q52 0 96.5 -24.5t72.5 -65.5q23 6 46 6zM716 165q61 4 102.5 48t41.5 105q0 63 -45 108q-43 45 -108 45q-18 0 -38 -5l-21 -6l-12 18q-24 37 -62 57t-82 20q-31 0 -58 -10q-28 -9 -50 -27
q-46 -37 -60 -95l-7 -31l-31 9q-18 5 -35 5q-51 0 -86 -35q-35 -37 -35 -85q0 -49 35 -86q35 -35 86 -35h465zM364 74q14 -5 8 -20l-23 -54q-6 -14 -19 -8q-15 6 -8 20l22 54q5 14 20 8zM483 74q14 -5 8 -20l-22 -54q-7 -13 -20 -8q-14 5 -8 20l23 54q5 14 19 8zM603 74
q13 -6 8 -20l-23 -54q-6 -13 -20 -8q-13 6 -8 20l23 54q5 14 20 8z" />
    <glyph glyph-name="uni26F0" unicode="&#x26f0;" horiz-adv-x="1085"
d="M601 661l384 -661h-885l267 459l60 -96zM508 442l59 28l92 -50l34 22l-92 160z" />
    <glyph glyph-name="u1F3A4" unicode="&#x1f3a4;" horiz-adv-x="597"
d="M298 205q-53 0 -91 38.5t-38 91.5v188q0 54 38 92t91 38q54 0 92 -38t38 -92v-188q0 -53 -38 -91.5t-92 -38.5zM313 137v-107h142v-30h-313v30h141v107q-77 5 -130 62t-53 135h30q0 -69 49.5 -118.5t118.5 -49.5q70 0 119.5 49.5t49.5 118.5h30q0 -78 -53.5 -135
t-130.5 -62z" />
    <glyph glyph-name="u1F468" unicode="&#x1f468;" horiz-adv-x="445"
d="M223 538q-25 0 -42.5 17.5t-17.5 42.5t17.5 42t42.5 17t42 -17t17 -42t-17 -42.5t-42 -17.5zM288 522q24 0 40.5 -17t16.5 -40v-186q0 -10 -6.5 -16.5t-15.5 -6.5q-10 0 -16.5 6.5t-6.5 16.5v163h-11v-169v-5v-244q0 -12 -8.5 -21t-20.5 -9q-13 0 -21.5 9t-8.5 21v232
h-14v-232q0 -12 -9 -21t-21 -9q-13 0 -21.5 9t-8.5 21v418h-10v-163q0 -10 -7 -16.5t-16 -6.5q-10 0 -16.5 6.5t-6.5 16.5v186q0 23 17 40t41 17h130z" />
    <glyph glyph-name="u1F469" unicode="&#x1f469;" horiz-adv-x="522"
d="M262 538q-25 0 -42.5 17.5t-17.5 42.5t17.5 42t42.5 17q24 0 41.5 -17t17.5 -42t-17.5 -42.5t-41.5 -17.5zM421 312q5 -22 -17 -27q-21 -5 -27 17l-44 144q-1 -1 -4 -1h-6l73 -241h-69v-180q0 -12 -9 -21t-21 -9q-13 0 -21.5 9t-8.5 21v180h-14v-180q0 -12 -9 -21t-21 -9
q-13 0 -21.5 9t-8.5 21v180h-66l73 241h-7q-3 0 -4 1l-44 -144q-6 -22 -27 -17q-22 6 -17 27l55 182q9 28 37 28h136q30 0 37 -28z" />
    <glyph glyph-name="u1F4F7" unicode="&#x1f4f7;" horiz-adv-x="1130"
d="M752 552h278v-552h-930v552h83v37h140v-37h56l22 91h328zM565 79q85 0 145 60t60 145t-60 144.5t-145 59.5t-145 -59.5t-60 -144.5t60 -145t145 -60zM565 458q73 0 124 -51t51 -123q0 -73 -51 -124t-124 -51q-72 0 -123 51q-52 52 -52 124q0 71 52 123q51 51 123 51z
M929 385v71h-71v-71h71z" />
    <glyph glyph-name="u1F50B" unicode="&#x1f50b;" horiz-adv-x="589"
d="M366 608h123v-608h-389v608h123l7 35h129zM459 28v552h-329v-552h329zM431 517v-461h-273v461h273z" />
    <glyph glyph-name="u1F512" unicode="&#x1f512;" horiz-adv-x="690"
d="M544 376h46v-377h-490v377h45v84q0 83 59 140q59 59 141 59t141 -59q58 -58 58 -140v-84zM474 376v84q0 53 -38 91q-36 38 -91 38q-54 0 -92 -38q-38 -40 -38 -91v-84h259zM369 173q31 15 31 50q0 23 -16 39t-39 16t-39 -16t-16 -39q0 -35 30 -50v-77h49v77z" />
    <glyph glyph-name="u1F525" unicode="&#x1f525;" horiz-adv-x="797"
d="M563 520q56 -36 91.5 -96t40.5 -126.5t-14.5 -129t-76 -111t-139.5 -64.5q32 41 36.5 91t-12.5 92t-39 78t-41 57l-19 21q0 -34 -17 -69t-37 -63t-36 -59t-14 -69t29 -81q-73 11 -123 45.5t-69.5 80.5t-21.5 96.5t14 97t45 78.5q-3 -28 8.5 -49t23.5 -28l13 -8
q1 11 3.5 30t18.5 72.5t41 101t77 102.5t121 90q-2 -10 -3.5 -26.5t-1.5 -61.5t7 -83.5t30 -80t59 -62.5l3.5 3.5t7 12.5t6.5 23.5t-0.5 38.5t-10.5 56z" />
    <glyph glyph-name="u1F5C0" unicode="&#x1f5c0;" horiz-adv-x="1058"
d="M673 555h285v-555h-858v555h61l21 71q5 17 25 17h420q20 0 25 -17zM209 615l-16 -60h448l-16 60h-416zM928 28v499h-798v-499h798z" />
    <glyph glyph-name="A.ss06" horiz-adv-x="761"
d="M339 643h90l328 -643h-89l-285 576l-290 -576h-89z" />
    <glyph glyph-name="I.ss10" horiz-adv-x="177"
d="M48 0v643h81v-643h-81z" />
    <glyph glyph-name="L.ss07" horiz-adv-x="610"
d="M129 643v-546q0 -18 5.5 -24t22.5 -6h424v-67h-424q-59 0 -84 21t-25 76v546h81z" />
    <glyph glyph-name="Q.ss08" horiz-adv-x="828"
d="M23 321q0 142 107 237t284 95q179 0 284.5 -95t105.5 -237q0 -103 -58.5 -184.5t-163.5 -119.5l63 -109h-85l-51 90q-48 -8 -95 -8q-177 0 -284 95t-107 236zM108 321q0 -108 80.5 -185t225.5 -77q34 0 58 4l-72 127h84l63 -110q84 30 128 95.5t44 145.5q0 109 -79 186
t-226 77q-145 0 -225.5 -77.5t-80.5 -185.5z" />
    <glyph glyph-name="R.ss09" horiz-adv-x="694"
d="M48 0v643h365q120 0 183 -53.5t63 -144.5q0 -68 -45.5 -120.5t-119.5 -69.5l155 -255h-87l-149 247h-284v-247h-81zM129 314h290q78 0 117.5 37t39.5 94q0 62 -40.5 96.5t-122.5 34.5h-284v-262z" />
    <glyph glyph-name="a.ss01" horiz-adv-x="631"
d="M98 395q75 65 201 65h4q133 -2 204 -95v85h76v-450h-79v83q-72 -90 -195 -93h-15q-121 0 -196.5 63t-75.5 170q0 105 76 172zM163 100q60 -48 145 -48q88 0 142 49t54 124q0 77 -54 125t-142 48q-87 0 -146 -47.5t-59 -127.5q0 -75 60 -123z" />
    <glyph glyph-name="g.ss02" horiz-adv-x="628"
d="M98 395q75 65 201 65h4q129 -2 201 -91v81h76v-440q0 -92 -66.5 -144.5t-201.5 -52.5q-73 0 -127.5 14.5t-79.5 34.5t-39.5 40.5t-16.5 35.5l-2 14h85q0 -3 1.5 -8.5t11.5 -19t27.5 -24t53.5 -19t85 -8.5q88 0 139 32.5t51 100.5v74q-71 -87 -192 -90h-15
q-121 0 -196.5 63t-75.5 170q0 105 76 172zM163 100q60 -48 145 -48q88 0 142 49t54 124q0 77 -54 125t-142 48q-87 0 -146 -47.5t-59 -127.5q0 -75 60 -123z" />
    <glyph glyph-name="i.ss03" horiz-adv-x="269"
d="M48 383v67h140v-450h-78v383h-62zM88 597q0 24 16.5 40.5t39.5 16.5t40 -16.5t17 -40.5q0 -23 -17 -39q-17 -17 -40 -17t-39.5 16.5t-16.5 39.5z" />
    <glyph glyph-name="j.ss03" horiz-adv-x="209"
d="M104 541q-23 0 -39.5 16.5t-16.5 39.5q0 24 16.5 40.5t39.5 16.5t40 -16.5t17 -40.5q0 -23 -17 -39.5t-40 -16.5zM9 450h140v-536q0 -56 -24 -76.5t-83 -20.5h-103v67h103q17 0 22.5 6t5.5 24v469h-61v67z" />
    <glyph glyph-name="zero.ss04" horiz-adv-x="718"
d="M359 653q164 0 249.5 -90.5t85.5 -241.5q0 -150 -85.5 -240.5t-249.5 -90.5q-158 0 -247 91.5t-89 239.5q0 149 89 240.5t247 91.5zM359 584q-117 0 -182.5 -73.5t-65.5 -189.5q0 -79 33 -140l392 336q-65 67 -177 67zM359 59q118 0 183 74t65 188q0 79 -32 141
l-391 -336q67 -67 175 -67z" />
    <glyph glyph-name="zero.tf" horiz-adv-x="798"
d="M399 657q162 0 268.5 -97.5t106.5 -238.5t-106.5 -238t-268.5 -97t-269 97.5t-107 237.5q0 141 107 238.5t269 97.5zM399 615q-145 0 -238 -85t-93 -209q0 -123 93.5 -208t237.5 -85q145 0 238.5 85t93.5 208q0 125 -94 209.5t-238 84.5zM204 321q0 87 51.5 140.5
t143.5 53.5q96 0 146 -53t50 -141q0 -87 -50 -140t-146 -53q-92 0 -143.5 53.5t-51.5 139.5zM544 321q0 67 -38 110.5t-107 43.5q-68 0 -106 -43t-38 -111q0 -66 38.5 -109.5t105.5 -43.5q69 0 107 43.5t38 109.5z" />
    <glyph glyph-name="one.tf" horiz-adv-x="798"
d="M399 657q162 0 268.5 -97.5t106.5 -238.5t-106.5 -238t-268.5 -97t-269 97.5t-107 237.5q0 141 107 238.5t269 97.5zM399 28q145 0 238.5 85t93.5 208q0 125 -94 209.5t-238 84.5q-145 0 -238 -85t-93 -209q0 -123 93.5 -208t237.5 -85zM442 187h117v-39h-281v39h117v243
q-14 -4 -24 -4h-93v39h93q14 0 19 7.5t5 23.5v27h47v-336z" />
    <glyph glyph-name="two.tf" horiz-adv-x="798"
d="M399 657q162 0 268.5 -97.5t106.5 -238.5t-106.5 -238t-268.5 -97t-269 97.5t-107 237.5q0 141 107 238.5t269 97.5zM399 28q145 0 238.5 85t93.5 208q0 125 -94 209.5t-238 84.5q-145 0 -238 -85t-93 -209q0 -123 93.5 -208t237.5 -85zM575 408q-1 -33 -26.5 -58
t-63.5 -41t-77.5 -31.5t-72.5 -38.5t-43 -54h287v-39h-347q0 50 30 86t72.5 56t85.5 36.5t73.5 37t31.5 46.5q1 36 -28.5 57.5t-86.5 21.5q-31 0 -54.5 -8t-34.5 -18t-17 -23t-7 -18.5t-1 -8.5h-50q0 5 1.5 14t10.5 28.5t24.5 34.5t49 27t78.5 12q81 0 123.5 -32t41.5 -87z
" />
    <glyph glyph-name="three.tf" horiz-adv-x="798"
d="M399 657q162 0 268.5 -97.5t106.5 -238.5t-106.5 -238t-268.5 -97t-269 97.5t-107 237.5q0 141 107 238.5t269 97.5zM399 28q145 0 238.5 85t93.5 208q0 125 -94 209.5t-238 84.5q-145 0 -238 -85t-93 -209q0 -123 93.5 -208t237.5 -85zM486 339q97 -21 97 -93
q1 -50 -47 -84t-132 -34q-48 0 -83 12.5t-51 30t-25 34.5t-10 29l-1 13h51q0 -3 0.5 -8.5t7 -19t18 -24t36 -19t57.5 -8.5q63 0 95.5 21t32.5 57q0 31 -28 49t-66.5 20t-78.5 -1v41q65 -3 107 12t42 49q0 27 -26 43t-79 16q-30 0 -52 -7.5t-32 -18.5t-15 -22t-6 -19v-7h-51
q0 5 1 12.5t9 27t22.5 34.5t47 27.5t76.5 12.5q74 0 114.5 -29t40.5 -70q0 -53 -72 -77z" />
    <glyph glyph-name="four.tf" horiz-adv-x="798"
d="M399 657q162 0 268.5 -97.5t106.5 -238.5t-106.5 -238t-268.5 -97t-269 97.5t-107 237.5q0 141 107 238.5t269 97.5zM399 28q145 0 238.5 85t93.5 208q0 125 -94 209.5t-238 84.5q-145 0 -238 -85t-93 -209q0 -123 93.5 -208t237.5 -85zM503 519v-251h83v-40h-83v-84h-47
v84h-251v40l251 251h47zM262 268h194v192z" />
    <glyph glyph-name="five.tf" horiz-adv-x="798"
d="M399 657q162 0 268.5 -97.5t106.5 -238.5t-106.5 -238t-268.5 -97t-269 97.5t-107 237.5q0 141 107 238.5t269 97.5zM399 28q145 0 238.5 85t93.5 208q0 125 -94 209.5t-238 84.5q-145 0 -238 -85t-93 -209q0 -123 93.5 -208t237.5 -85zM415 399q70 1 120.5 -34.5
t50.5 -102.5q0 -62 -50.5 -99.5t-131.5 -37.5q-47 0 -82.5 12.5t-52.5 30t-27 35t-12 29.5l-1 13h50q0 -3 1 -8.5t8 -19t19 -24t37.5 -19t59.5 -8.5q59 0 95 26t36 70q0 51 -38 77t-92 26q-44 0 -81 -16.5t-46 -44.5h-45l33 202h295v-39h-256l-18 -107q46 37 128 39z" />
    <glyph glyph-name="six.tf" horiz-adv-x="798"
d="M399 657q162 0 268.5 -97.5t106.5 -238.5t-106.5 -238t-268.5 -97t-269 97.5t-107 237.5q0 141 107 238.5t269 97.5zM399 615q-145 0 -238 -85t-93 -209q0 -123 93.5 -208t237.5 -85q145 0 238.5 85t93.5 208q0 125 -94 209.5t-238 84.5zM402 128q-84 0 -132 47.5
t-48 128.5q0 39 10 74.5t29.5 67t56 50.5t85.5 19q40 0 71 -8.5t46.5 -21t25.5 -25t12 -20.5l3 -9h-50l-2.5 5t-8.5 11t-18 14.5t-31.5 11.5t-46.5 5q-42 0 -71.5 -18.5t-41.5 -46t-16.5 -48.5t-3.5 -36q4 6 12 16t41.5 26t77.5 16q78 0 126.5 -34t48.5 -91q0 -58 -46.5 -96
t-128.5 -38zM276 264q1 -40 36 -68t90 -28q58 0 91.5 28t34.5 66q0 40 -35 64.5t-91 24.5q-59 0 -91.5 -25.5t-34.5 -61.5z" />
    <glyph glyph-name="seven.tf" horiz-adv-x="798"
d="M399 657q162 0 268.5 -97.5t106.5 -238.5t-106.5 -238t-268.5 -97t-269 97.5t-107 237.5q0 141 107 238.5t269 97.5zM399 28q145 0 238.5 85t93.5 208q0 125 -94 209.5t-238 84.5q-145 0 -238 -85t-93 -209q0 -123 93.5 -208t237.5 -85zM248 454v39h330v-37
q-7 -5 -19.5 -14.5t-44 -42t-56.5 -68.5t-47 -94t-25 -119h-53q4 75 38.5 147.5t69 113t74.5 75.5h-267z" />
    <glyph glyph-name="eight.tf" horiz-adv-x="798"
d="M399 657q162 0 268.5 -97.5t106.5 -238.5t-106.5 -238t-268.5 -97t-269 97.5t-107 237.5q0 141 107 238.5t269 97.5zM399 28q145 0 238.5 85t93.5 208q0 125 -94 209.5t-238 84.5q-145 0 -238 -85t-93 -209q0 -123 93.5 -208t237.5 -85zM486 335q90 -26 90 -94
q0 -53 -46 -83t-131 -30q-87 0 -132.5 30t-45.5 83q0 32 23.5 56.5t67.5 36.5q-70 22 -70 77q0 46 42 75t115 29t114.5 -29t41.5 -75q0 -55 -69 -76zM291 412q0 -27 31 -45t77 -18q48 0 78 18t30 45q0 29 -28.5 48t-79.5 19q-52 0 -80 -18.5t-28 -48.5zM399 166
q60 0 93 21.5t33 55.5q0 36 -35 55t-91 19q-55 0 -91 -19.5t-36 -54.5q0 -34 33.5 -55.5t93.5 -21.5z" />
    <glyph glyph-name="nine.tf" horiz-adv-x="798"
d="M399 657q162 0 268.5 -97.5t106.5 -238.5t-106.5 -238t-268.5 -97t-269 97.5t-107 237.5q0 141 107 238.5t269 97.5zM399 615q-145 0 -238 -85t-93 -209q0 -123 93.5 -208t237.5 -85q145 0 238.5 85t93.5 208q0 125 -94 209.5t-238 84.5zM407 514q84 0 132 -47t48 -129
q-1 -53 -16.5 -98t-58 -78.5t-106.5 -33.5q-40 0 -71 8.5t-46.5 21t-25.5 25t-13 21.5l-2 8h50l2.5 -5t8.5 -11t18 -14.5t31.5 -11.5t46.5 -5q42 0 71.5 18.5t41.5 46t16.5 48t3.5 35.5q-1 -2 -4 -6t-14 -14t-24.5 -17.5t-37 -13.5t-51.5 -6q-78 -1 -126.5 33.5t-48.5 91.5
q0 58 46.5 95.5t128.5 37.5zM533 378q-1 41 -36 68.5t-90 27.5q-58 0 -91.5 -28t-34.5 -66q0 -39 35 -63.5t91 -24.5q59 0 91.5 25t34.5 61z" />
    <glyph glyph-name="zero.tf.ss12" horiz-adv-x="798"
d="M399 657q162 0 268.5 -97.5t106.5 -238.5t-106.5 -238t-268.5 -97t-269 97.5t-107 237.5q0 141 107 238.5t269 97.5zM203 321q0 -86 52 -139.5t144 -53.5q96 0 145.5 52.5t49.5 140.5t-49.5 141t-145.5 53q-92 0 -144 -53.5t-52 -140.5zM544 321q0 -66 -38 -109t-107 -43
q-68 0 -106.5 43.5t-38.5 108.5q0 67 38.5 110t106.5 43q69 0 107 -43t38 -110z" />
    <glyph glyph-name="one.tf.ss12" horiz-adv-x="798"
d="M399 657q162 0 268.5 -97.5t106.5 -238.5t-106.5 -238t-268.5 -97t-269 97.5t-107 237.5q0 141 107 238.5t269 97.5zM442 187v336h-47v-26q0 -17 -5 -24.5t-20 -7.5h-92v-39h92q15 0 25 5v-244h-117v-39h281v39h-117z" />
    <glyph glyph-name="two.tf.ss12" horiz-adv-x="798"
d="M399 657q162 0 268.5 -97.5t106.5 -238.5t-106.5 -238t-268.5 -97t-269 97.5t-107 237.5q0 141 107 238.5t269 97.5zM290 186q10 31 42.5 54.5t71.5 38.5t77.5 31t64.5 40.5t27 57.5q1 55 -41.5 87.5t-123.5 32.5q-45 0 -78.5 -12t-49 -27.5t-24.5 -35t-10.5 -28.5
t-1.5 -14h49q0 3 1 8.5t7.5 18.5t17.5 23t34.5 18t54.5 8q57 0 86 -21.5t28 -57.5q-1 -22 -23 -40.5t-54.5 -30.5t-70 -29t-69.5 -35.5t-53.5 -51t-21.5 -74.5h346v39h-286z" />
    <glyph glyph-name="three.tf.ss12" horiz-adv-x="798"
d="M399 657q162 0 268.5 -97.5t106.5 -238.5t-106.5 -238t-268.5 -97t-269 97.5t-107 237.5q0 141 107 238.5t269 97.5zM482 338q74 24 74 77q0 42 -41 70.5t-115 28.5q-44 0 -76.5 -11.5t-47 -28t-23 -33.5t-9.5 -29v-11h52q0 3 0.5 8t5.5 17.5t14.5 22t31.5 17.5t52 8
q106 0 106 -59q0 -34 -42.5 -49t-107.5 -11v-41q40 2 79 0t67 -19.5t28 -48.5q0 -36 -33 -57.5t-96 -21.5q-33 0 -57.5 8t-35.5 19.5t-17.5 23.5t-6.5 20l-1 8h-51q0 -5 1 -13t10 -28.5t25 -36t50.5 -28.5t82.5 -13q84 0 132 34t48 84q-1 72 -99 93z" />
    <glyph glyph-name="four.tf.ss12" horiz-adv-x="798"
d="M399 657q162 0 268.5 -97.5t106.5 -238.5t-106.5 -238t-268.5 -97t-269 97.5t-107 237.5q0 141 107 238.5t269 97.5zM586 266h-83v252h-47l-251 -252v-39h251v-84h47v84h83v39zM262 266l194 188v-188h-194z" />
    <glyph glyph-name="five.tf.ss12" horiz-adv-x="798"
d="M399 657q162 0 268.5 -97.5t106.5 -238.5t-106.5 -238t-268.5 -97t-269 97.5t-107 237.5q0 141 107 238.5t269 97.5zM416 399q-85 -2 -129 -40l19 108h256v39h-295l-33 -202h44q9 28 46 44.5t82 16.5q54 0 92 -26t38 -77q0 -44 -36 -70t-95 -26q-34 0 -59.5 8t-37.5 20
t-19 23.5t-8 19.5l-1 8h-50q0 -5 1.5 -13t11.5 -28.5t27 -36.5t52.5 -29t82.5 -13q81 0 131.5 37.5t50.5 99.5q0 67 -50.5 102.5t-120.5 34.5z" />
    <glyph glyph-name="six.tf.ss12" horiz-adv-x="798"
d="M399 657q162 0 268.5 -97.5t106.5 -238.5t-106.5 -238t-268.5 -97t-269 97.5t-107 237.5q0 141 107 238.5t269 97.5zM399 128q81 0 128 37.5t47 96.5q0 57 -48.5 91t-126.5 34q-28 0 -51.5 -6t-38 -14.5t-24.5 -17t-14 -14.5l-4 -6q0 16 4.5 36.5t16.5 48t41 46t71 18.5
t68.5 -12t32.5 -24l6 -11h51q-1 3 -2.5 9t-12 20.5t-26 25.5t-46.5 20t-71 9q-64 0 -106.5 -33.5t-58 -78.5t-16.5 -98q-1 -82 47 -129.5t133 -47.5zM273 264q2 36 34.5 61t91.5 25q56 0 90.5 -24t34.5 -64q0 -38 -33.5 -65.5t-91.5 -27.5q-56 0 -90.5 27.5t-35.5 67.5z" />
    <glyph glyph-name="seven.tf.ss12" horiz-adv-x="798"
d="M399 657q162 0 268.5 -97.5t106.5 -238.5t-106.5 -238t-268.5 -97t-269 97.5t-107 237.5q0 141 107 238.5t269 97.5zM248 506v-39h271q-174 -156 -185 -336h53q3 61 24 118.5t48.5 95.5t55 67.5t45.5 43.5l19 13v37h-331z" />
    <glyph glyph-name="eight.tf.ss12" horiz-adv-x="798"
d="M399 657q162 0 268.5 -97.5t106.5 -238.5t-106.5 -238t-268.5 -97t-269 97.5t-107 237.5q0 141 107 238.5t269 97.5zM482 335q74 20 74 76q0 46 -42 75t-115 29t-114.5 -29t-41.5 -75q0 -56 75 -77q-47 -12 -71.5 -36.5t-24.5 -57.5q0 -53 45.5 -82.5t131.5 -29.5t132 30
t46 82q0 69 -95 95zM399 479q52 0 80.5 -18.5t28.5 -48.5q0 -27 -30.5 -45t-78.5 -18q-46 0 -77 18t-31 45q0 30 28 48.5t80 18.5zM399 166q-61 0 -93.5 21t-32.5 56t35.5 54.5t90.5 19.5q56 0 91.5 -19t35.5 -55q0 -35 -33 -56t-94 -21z" />
    <glyph glyph-name="nine.tf.ss12" horiz-adv-x="798"
d="M399 657q162 0 268.5 -97.5t106.5 -238.5t-106.5 -238t-268.5 -97t-269 97.5t-107 237.5q0 141 107 238.5t269 97.5zM402 515q-81 0 -128 -37.5t-47 -96.5q0 -57 48.5 -91t126.5 -34q28 0 51.5 6t38 14.5t24.5 17t14 14.5l4 6q1 -15 -4 -36t-17 -48.5t-41 -46t-71 -18.5
q-26 0 -46.5 5t-31.5 11.5t-18 13.5t-9 12l-2 5h-51l3 -9t12 -20.5t25.5 -25.5t46.5 -20t71 -9q49 0 85.5 19t56.5 50.5t29.5 66.5t9.5 74q1 82 -47 129.5t-133 47.5zM528 379q-2 -36 -34.5 -61t-91.5 -25q-56 0 -90.5 24t-34.5 64q0 38 33.5 65.5t91.5 27.5
q56 0 90.5 -27.5t35.5 -67.5z" />
    <glyph glyph-name="s_t" horiz-adv-x="486"
d="M39 412h40q0 -2 0.5 -4.5t5.5 -10t12 -13t23 -10t37 -4.5q76 0 76 36v3q-1 17 -30.5 25.5t-64 10.5t-63.5 15.5t-29 39.5q0 23 27 42.5t81 19.5q94 0 109 -60h-40q-1 4 -3.5 9.5t-20 14.5t-45.5 9q-33 0 -51.5 -10t-18.5 -24v-1q0 -15 29 -22t64 -9.5t64.5 -17
t30.5 -42.5v-4q0 -27 -27.5 -45.5t-87.5 -18.5q-31 0 -54 7t-34.5 16.5t-19 21t-9 17.5t-1.5 9zM282 558h42v61h37v-61h86v-32h-86v-135q0 -8 2.5 -10.5t10.5 -2.5h72v-32h-72q-28 0 -39 9.5t-11 35.5v135h-42v32z" />
    <glyph glyph-name="nd" horiz-adv-x="595"
d="M298 449q0 49 34.5 79.5t94.5 30.5q59 -2 92 -41v125h36v-297h-35v38q-33 -42 -90 -43h-4q-58 0 -93 29.5t-35 78.5zM335 449q0 -35 27.5 -57t66.5 -22q41 0 66 23t25 57q0 35 -25 57.5t-66 22.5q-40 0 -67 -22t-27 -59zM40 346v208h35v-42q23 46 86 47h4q108 0 108 -100
v-113h-36v113q0 70 -77 70q-84 0 -84 -81v-102h-36z" />
    <glyph glyph-name="rd" horiz-adv-x="486"
d="M224 528q34 30 91 30h4q57 0 91 -39v124h37v-297h-35v38q-33 -41 -90 -43h-4q-58 0 -93.5 29.5t-35.5 78.5q0 48 35 79zM255 392q27 -22 66 -22q41 0 66 23t25 57q0 35 -25.5 57.5t-65.5 22.5t-67 -22t-27 -59q0 -35 28 -57zM75 554v-42q19 42 69 42h42v-31h-41
q-45 0 -57 -24.5t-12 -88.5v-64h-36v208h35z" />
    <glyph glyph-name="percent.superior" horiz-adv-x="403"
d="M42 572q0 34 20.5 55.5t55.5 21.5q38 0 57.5 -21t19.5 -56q0 -34 -19.5 -54.5t-57.5 -20.5q-35 0 -55.5 21t-20.5 54zM75 346h-28l286 298h27zM175 572q0 27 -15 44t-42 17q-26 0 -41.5 -17t-15.5 -44q0 -26 15.5 -42.5t41.5 -16.5q27 0 42 16.5t15 42.5zM207 416
q0 34 20 55t57 21t56.5 -21t19.5 -55t-19.5 -55t-56.5 -21t-57 21t-20 55zM340 416q0 27 -14.5 43.5t-41.5 16.5t-42.5 -17t-15.5 -43t15.5 -43t42.5 -17t41.5 17t14.5 43z" />
    <glyph glyph-name="primero" horiz-adv-x="439"
d="M89 602q50 42 131 42t131 -42t50 -107q0 -66 -49 -107q-50 -42 -132 -42t-131.5 42t-49.5 107t50 107zM90 495q0 -49 35.5 -79.5t94.5 -30.5q58 0 93.5 30.5t35.5 79.5q0 48 -35 79q-36 31 -94 31t-94 -31t-36 -79z" />
    <glyph glyph-name="primera" horiz-adv-x="440"
d="M39 424q0 14 7 26.5t17.5 22t27 17.5t32 13.5t36.5 10t36.5 7t36.5 4.5l32 3q10 1 26.5 2t17.5 1q-1 74 -99 74q-26 0 -46 -5t-29.5 -12.5t-15 -15t-6.5 -12.5l-1 -5h-54q12 41 43 62q40 26 110 26q72 0 110 -29t38 -83v-119q0 -11 3.5 -15t14.5 -4h25v-42h-26
q-35 0 -50.5 11.5t-16.5 42.5q-48 -61 -149 -61q-59 0 -89.5 22t-30.5 58zM112 394q20 -11 51 -11h4q50 0 95.5 23.5t45.5 60.5v28q-213 -13 -215 -72v-2q0 -17 19 -27z" />
    <glyph glyph-name="colon.ss01" horiz-adv-x="196"
d="M155 389q0 -23 -17 -39.5t-40 -16.5t-39.5 16.5t-16.5 39.5q0 24 16.5 40.5t39.5 16.5t40 -16.5t17 -40.5zM155 111q0 -23 -17 -39.5t-40 -16.5t-39.5 16.5t-16.5 39.5q0 24 16.5 40.5t39.5 16.5t40 -16.5t17 -40.5z" />
    <glyph glyph-name="asterisk.ss01" horiz-adv-x="391"
d="M352 559l-104 -46l103 -46l-25 -43l-107 53l3 -93h-51l1 94l-107 -53l-26 44l102 44l-101 46l26 44l106 -53l-2 93h51l-2 -94l107 54z" />
    <glyph glyph-name="rupia" horiz-adv-x="649"
d="M601 643v-67h-201q55 -35 67 -96h134v-67h-134q-11 -60 -56.5 -103.5t-114.5 -57.5l165 -252h-88l-160 247h-165v67h183q65 0 104 27t49 72h-336v67h335q-21 96 -158 96h-177v67h553z" />
    <glyph glyph-name="ampersand.ss05" horiz-adv-x="761"
d="M678 67h35v-67h-35q-41 0 -66 12t-61 49q-89 -65 -224 -71q-133 -5 -207 43t-72 127q1 57 49.5 99.5t133.5 82.5q-103 78 -112 140q-11 73 49.5 123t172.5 48q94 -2 149.5 -45t49.5 -113q-2 -25 -18 -47.5t-47.5 -43.5t-59 -35.5t-72.5 -35.5q30 -28 102.5 -89.5
t102.5 -88.5q59 69 72 166h77q-2 -23 -8.5 -50.5t-29.5 -77t-57 -87.5l6.5 -6.5l8 -8l6.5 -6.5q15 -12 25 -15t30 -3zM199 484q9 -38 101 -110q53 24 79.5 38t53 36t30.5 44q9 44 -25.5 70t-97.5 28q-75 3 -113.5 -28.5t-27.5 -77.5zM137 163q-2 -49 50 -79t141 -27
q99 3 169 51q-125 102 -220 192q-66 -33 -102.5 -65.5t-37.5 -71.5z" />
    <glyph glyph-name="Iacute.ss10" horiz-adv-x="314"
d="M69 693h62l135 117h-112zM48 0v643h81v-643h-81z" />
    <glyph glyph-name="Icircumflex.ss10" horiz-adv-x="489"
d="M285 643v-643h-81v643h81zM199 810h91l151 -114h-84l-113 84l-113 -84h-83z" />
    <glyph glyph-name="Idieresis.ss10" horiz-adv-x="366"
d="M226 643v-643h-80v643h80zM48 747q0 23 15 38t37 15q23 0 38 -15t15 -38q0 -21 -15.5 -36t-37.5 -15t-37 15t-15 36zM214 747q0 23 15.5 38t36.5 15q22 0 37 -15t15 -38q0 -21 -15 -36t-37 -15q-21 0 -36.5 15t-15.5 36z" />
    <glyph glyph-name="Idotaccent.ss10" horiz-adv-x="203"
d="M61 643h81v-643h-81v643zM48 751q0 22 15.5 38t37.5 16q23 0 38.5 -15.5t15.5 -38.5q0 -22 -16 -37.5t-38 -15.5t-37.5 15.5t-15.5 37.5z" />
    <glyph glyph-name="Igrave.ss10" horiz-adv-x="308"
d="M48 810l135 -117h62l-85 117h-112zM179 0v643h81v-643h-81z" />
    <glyph glyph-name="Imacron.ss10" horiz-adv-x="429"
d="M381 757h-333v-55h333v55zM174 0v643h81v-643h-81z" />
    <glyph glyph-name="Iogonek.ss10" horiz-adv-x="249"
d="M48 643h81v-643h-14v-25q0 -19 19 -19h67v-43h-67q-41 0 -56 12t-15 50v25h-15v643z" />
    <glyph glyph-name="Lacute.ss07" horiz-adv-x="610"
d="M129 643v-546q0 -18 5.5 -24t22.5 -6h424v-67h-424q-59 0 -84 21t-25 76v546h81zM71 693l85 117h111l-135 -117h-61z" />
    <glyph glyph-name="Lcaron.ss07" horiz-adv-x="610"
d="M48 97v546h81v-546q0 -18 5.5 -24t22.5 -6h424v-67h-424q-59 0 -84 21t-25 76zM251 526h-62l85 117h112z" />
    <glyph glyph-name="uni013B.ss07" horiz-adv-x="610"
d="M48 643h81v-546q0 -18 5.5 -24t22.5 -6h424v-67h-424q-59 0 -84 21t-25 76v546zM238 -155l48 117h82l-86 -117h-44z" />
    <glyph glyph-name="Lslash.ss07" horiz-adv-x="704"
d="M48 255l94 48v340h80l1 -299l194 100v-62l-194 -99v-186q0 -18 5.5 -24t22.5 -6h424v-67h-424q-59 0 -84 21t-25 76v145l-94 -48v61z" />
    <glyph glyph-name="uni2116_sign" horiz-adv-x="1167"
d="M48 643h99l501 -556l1 556h80v-643h-96l-504 558v-558h-81v643zM782 510q0 56 49 94.5t124 38.5q76 0 124.5 -38.5t48.5 -94.5t-49 -94.5t-124 -38.5t-124 38.5t-49 94.5zM841 510q0 -32 32 -54q31 -22 82 -22t82.5 22t31.5 54q0 33 -31.5 55t-82.5 22t-82.5 -22.5
t-31.5 -54.5z" />
    <glyph glyph-name="Racute.ss09" horiz-adv-x="694"
d="M48 643h365q120 0 183 -53.5t63 -144.5q0 -68 -45.5 -120.5t-119.5 -69.5l155 -255h-87l-149 247h-284v-247h-81v643zM129 314h290q78 0 117.5 37t39.5 94q0 62 -40.5 96.5t-122.5 34.5h-284v-262zM285 693l85 117h111l-135 -117h-61z" />
    <glyph glyph-name="Rcaron.ss09" horiz-adv-x="694"
d="M48 643h365q120 0 183 -53.5t63 -144.5q0 -68 -45.5 -120.5t-119.5 -69.5l155 -255h-87l-149 247h-284v-247h-81v643zM419 314q78 0 117.5 37t39.5 94q0 62 -40.5 96.5t-122.5 34.5h-284v-262h290zM188 807l114 -84l113 84h83l-151 -114h-91l-151 114h83z" />
    <glyph glyph-name="uni0156.ss09" horiz-adv-x="694"
d="M48 0v643h365q120 0 183 -53.5t63 -144.5q0 -68 -45.5 -120.5t-119.5 -69.5l155 -255h-87l-149 247h-284v-247h-81zM129 314h290q78 0 117.5 37t39.5 94q0 62 -40.5 96.5t-122.5 34.5h-284v-262zM235 -155l49 117h81l-86 -117h-44z" />
    <glyph glyph-name="aacute.ss01" horiz-adv-x="631"
d="M22 223q0 105 75.5 171t201.5 66h4q133 -2 204 -95v85h76v-450h-79v83q-72 -90 -195 -93h-15q-121 0 -196.5 63t-75.5 170zM163 100q60 -48 145 -48q88 0 142 49t54 124q0 77 -54 125t-142 48q-87 0 -146 -47.5t-59 -127.5q0 -75 60 -123zM288 507l85 117h111l-135 -117
h-61z" />
    <glyph glyph-name="abreve.ss01" horiz-adv-x="631"
d="M98 395q75 65 201 65h4q133 -2 204 -95v85h76v-450h-79v83q-72 -90 -195 -93h-15q-121 0 -196.5 63t-75.5 170q0 105 76 172zM163 100q60 -48 145 -48q88 0 142 49t54 124q0 77 -54 125t-142 48q-87 0 -146 -47.5t-59 -127.5q0 -75 60 -123zM124 625h49q1 -3 3.5 -7
t12.5 -14.5t24 -19t39 -15t55 -6.5q48 0 81.5 15.5t43.5 31.5l9 15h50q-1 -5 -3 -12.5t-14.5 -27t-30.5 -34.5t-54 -27q-36 -13 -82 -13t-82 11.5t-54.5 28.5t-30 34t-14.5 29z" />
    <glyph glyph-name="acircumflex.ss01" horiz-adv-x="631"
d="M98 395q75 65 201 65h4q133 -2 204 -95v85h76v-450h-79v83q-72 -90 -195 -93h-15q-121 0 -196.5 63t-75.5 170q0 105 76 172zM103 223q0 -75 60 -123t145 -48q88 0 142 49t54 124q0 77 -54 125t-142 48q-87 0 -146 -47.5t-59 -127.5zM110 509l151 115h91l151 -115h-83
l-113 85l-114 -85h-83z" />
    <glyph glyph-name="adieresis.ss01" horiz-adv-x="631"
d="M22 223q0 105 75.5 171t201.5 66h4q133 -2 204 -95v85h76v-450h-79v83q-72 -90 -195 -93h-15q-121 0 -196.5 63t-75.5 170zM163 100q60 -48 145 -48q88 0 142 49t54 124q0 77 -54 125t-142 48q-87 0 -146 -47.5t-59 -127.5q0 -75 60 -123zM169 561q0 22 15 37.5t37 15.5
q23 0 38 -15t15 -38q0 -21 -15 -36q-16 -16 -38 -16t-37 15.5t-15 36.5zM351 599q15 15 36 15q22 0 37.5 -15.5t15.5 -37.5q0 -21 -15.5 -36.5t-37.5 -15.5q-21 0 -36.5 15.5t-15.5 36.5q0 22 16 38z" />
    <glyph glyph-name="agrave.ss01" horiz-adv-x="631"
d="M22 223q0 105 75.5 171t201.5 66h4q133 -2 204 -95v85h76v-450h-79v83q-72 -90 -195 -93h-15q-121 0 -196.5 63t-75.5 170zM163 100q60 -48 145 -48q88 0 142 49t54 124q0 77 -54 125t-142 48q-87 0 -146 -47.5t-59 -127.5q0 -75 60 -123zM136 624h111l85 -117h-61z" />
    <glyph glyph-name="amacron.ss01" horiz-adv-x="631"
d="M22 223q0 105 75.5 171t201.5 66h4q133 -2 204 -95v85h76v-450h-79v83q-72 -90 -195 -93h-15q-121 0 -196.5 63t-75.5 170zM163 100q60 -48 145 -48q88 0 142 49t54 124q0 77 -54 125t-142 48q-87 0 -146 -47.5t-59 -127.5q0 -75 60 -123zM140 515v56h333v-56h-333z" />
    <glyph glyph-name="aogonek.ss01" horiz-adv-x="689"
d="M98 395q75 65 201 65h4q133 -2 204 -95v85h76v-450h-27v-25q0 -19 19 -19h66v-43h-66q-41 0 -56 12t-15 50v108q-72 -90 -195 -93h-15q-121 0 -196.5 63t-75.5 170q0 105 76 172zM103 223q0 -75 60 -123t145 -48q88 0 142 49t54 124q0 77 -54 125t-142 48
q-87 0 -146 -47.5t-59 -127.5z" />
    <glyph glyph-name="aring.ss01" horiz-adv-x="631"
d="M22 223q0 105 75.5 171t201.5 66h4q133 -2 204 -95v85h76v-450h-79v83q-72 -90 -195 -93h-15q-121 0 -196.5 63t-75.5 170zM163 100q60 -48 145 -48q88 0 142 49t54 124q0 77 -54 125t-142 48q-87 0 -146 -47.5t-59 -127.5q0 -75 60 -123zM190 587q0 36 34 61t83 25
q50 0 83.5 -25t33.5 -61t-33.5 -60.5t-83.5 -24.5q-49 0 -83 25t-34 60zM231 587q0 -20 21 -34t55 -14q33 0 55 14t22 34q0 21 -22 35t-55 14q-34 0 -55 -14t-21 -35z" />
    <glyph glyph-name="atilde.ss01" horiz-adv-x="631"
d="M98 395q75 65 201 65h4q133 -2 204 -95v85h76v-450h-79v83q-72 -90 -195 -93h-15q-121 0 -196.5 63t-75.5 170q0 105 76 172zM103 223q0 -75 60 -123t145 -48q88 0 142 49t54 124q0 77 -54 125t-142 48q-87 0 -146 -47.5t-59 -127.5zM137 583q32 29 84 29h4
q41 -1 90.5 -21t82.5 -21h11q18 0 35 3t26 9t14.5 12.5t6.5 11.5l1 4h25q0 -38 -33 -67.5t-85 -29.5h-3q-42 1 -91.5 19.5t-80.5 20.5h-12q-29 0 -51 -9t-27 -20l-5 -10h-25q0 39 33 69z" />
    <glyph glyph-name="gbreve.ss02" horiz-adv-x="628"
d="M22 223q0 105 75.5 171t201.5 66h4q129 -2 201 -91v81h76v-440q0 -92 -66.5 -144.5t-201.5 -52.5q-73 0 -127.5 14.5t-79.5 34.5t-39.5 40.5t-16.5 35.5l-2 14h85q0 -3 1.5 -8.5t11.5 -19t27.5 -23.5t53.5 -18.5t85 -8.5q88 0 139 32t51 100v74q-71 -87 -192 -90h-15
q-121 0 -196.5 63t-75.5 170zM103 223q0 -75 60 -123t145 -48q88 0 142 49t54 124q0 77 -54 125t-142 48q-87 0 -146 -47.5t-59 -127.5zM127 618h50q1 -2 3.5 -6.5t12.5 -15t23.5 -18.5t38.5 -14.5t56 -6.5q48 0 81.5 15.5t43.5 30.5l9 15h49q-1 -5 -3 -12.5t-14 -27
t-30 -34.5t-54 -27t-82 -12t-82.5 11.5t-54.5 28t-29.5 33.5t-14.5 28z" />
    <glyph glyph-name="uni0123.ss02" horiz-adv-x="628"
d="M98 395q75 65 201 65h4q129 -2 201 -91v81h76v-440q0 -92 -66.5 -144.5t-201.5 -52.5q-73 0 -127.5 14.5t-79.5 34.5t-39.5 40.5t-16.5 35.5l-2 14h85q0 -3 1.5 -8.5t11.5 -19t27.5 -23.5t53.5 -18.5t85 -8.5q88 0 139 32t51 100v74q-71 -87 -192 -90h-15
q-121 0 -196.5 63t-75.5 170q0 105 76 172zM163 100q60 -48 145 -48q88 0 142 49t54 124q0 77 -54 125t-142 48q-87 0 -146 -47.5t-59 -127.5q0 -75 60 -123zM290 502l49 117h82l-87 -117h-44z" />
    <glyph glyph-name="gdotaccent.ss02" horiz-adv-x="628"
d="M22 223q0 105 75.5 171t201.5 66h4q129 -2 201 -91v81h76v-440q0 -92 -66.5 -144.5t-201.5 -52.5q-73 0 -127.5 14.5t-79.5 34.5t-39.5 40.5t-16.5 35.5l-2 14h85q0 -3 1.5 -8.5t11.5 -19t27.5 -23.5t53.5 -18.5t85 -8.5q88 0 139 32t51 100v74q-71 -87 -192 -90h-15
q-121 0 -196.5 63t-75.5 170zM163 100q60 -48 145 -48q88 0 142 49t54 124q0 77 -54 125t-142 48q-87 0 -146 -47.5t-59 -127.5q0 -75 60 -123zM273 596q15 16 37 16t38 -16t16 -38t-16 -37q-16 -16 -38 -16t-37.5 15.5t-15.5 37.5t16 38z" />
    <glyph glyph-name="dotlessi.ss03" horiz-adv-x="236"
d="M188 450v-450h-78v383h-62v67h140z" />
    <glyph glyph-name="iacute.ss03" horiz-adv-x="371"
d="M211 617h112l-135 -117h-62zM48 450h140v-450h-78v383h-62v67z" />
    <glyph glyph-name="icircumflex.ss03" horiz-adv-x="489"
d="M287 450v-450h-78v383h-62v67h140zM199 617h91l151 -114h-84l-113 84l-113 -84h-83z" />
    <glyph glyph-name="idieresis.ss03" horiz-adv-x="366"
d="M88 383v67h140v-450h-78v383h-62zM63 592q15 15 37 15q23 0 38 -15t15 -38q0 -21 -15.5 -36t-37.5 -15t-37 15t-15 36q0 23 15 38zM230 592q15 15 36 15q22 0 37 -15t15 -38q0 -21 -15 -36t-37 -15q-21 0 -36.5 15t-15.5 36q0 23 16 38z" />
    <glyph glyph-name="igrave.ss03" horiz-adv-x="310"
d="M245 500h-62l-135 117h112zM262 450v-450h-79v383h-61v67h140z" />
    <glyph glyph-name="imacron.ss03" horiz-adv-x="429"
d="M48 564h333v-55h-333v55zM117 450h140v-450h-79v383h-61v67z" />
    <glyph glyph-name="iogonek.ss03" horiz-adv-x="297"
d="M143 505q-22 0 -37.5 15.5t-15.5 37.5t15.5 38t37.5 16q23 0 38.5 -16t15.5 -38t-16 -37.5t-38 -15.5zM195 -44h66v-43h-66q-41 0 -56.5 12t-15.5 50v25h-13v383h-62v67h140v-450h-12v-25q0 -19 19 -19z" />
    <glyph glyph-name="uni0237.ss03" horiz-adv-x="197"
d="M149 450v-536q0 -56 -24 -76.5t-83 -20.5h-103v67h103q17 0 22.5 6t5.5 24v469h-61v67h140z" />
    <glyph glyph-name="j_acutecomb" horiz-adv-x="177"
d="M157 617h111l-135 -117h-61zM-61 -182v67h82q30 0 30 30v535h78v-535q0 -52 -24 -74.5t-84 -22.5h-82z" />
    <glyph glyph-name="j_acutecomb.ss03" horiz-adv-x="197"
d="M279 617l-135 -117h-62l85 117h112zM9 450h140v-536q0 -56 -24 -76.5t-83 -20.5h-103v67h103q17 0 22.5 6t5.5 24v469h-61v67z" />
    <glyph glyph-name="jcircumflex.ss03" horiz-adv-x="197"
d="M147 617l151 -114h-84l-113 84l-113 -84h-83l151 114h91zM9 450h140v-536q0 -56 -24 -76.5t-83 -20.5h-103v67h103q17 0 22.5 6t5.5 24v469h-61v67z" />
    <glyph glyph-name="c_f" horiz-adv-x="946"
d="M765 576q-17 0 -22.5 -6t-5.5 -24v-96h185v-66h-185v-384h-78v384h-358q-89 0 -143 -40.5t-54 -116.5q0 -78 54 -127t146 -49q40 0 72 10t49 24.5t28 29.5t14 25l3 10h84q-1 -7 -4 -17.5t-19 -38t-40.5 -48.5t-73.5 -38.5t-113 -17.5q-132 0 -207 63.5t-75 173.5
q0 105 76.5 164t202.5 59h358v96q0 56 23.5 76.5t82.5 20.5h157v-67h-157z" />
    <glyph glyph-name="c_t" horiz-adv-x="958"
d="M927 384h-184v-287q0 -17 6 -23.5t23 -6.5h152v-67h-152q-60 0 -83.5 20.5t-23.5 76.5v287h-364q-92 0 -144.5 -40t-52.5 -117q0 -78 54 -127t146 -49q40 0 72 10t49 24.5t28 29.5t14 25l3 10h84q-1 -7 -4 -17.5t-19 -38t-40.5 -48.5t-73.5 -38.5t-113 -17.5
q-132 0 -207 63.5t-75 173.5q0 105 76.5 164t202.5 59h364v131h78v-131h184v-66z" />
    <glyph glyph-name="f_a" horiz-adv-x="915"
d="M857 67h41v-67h-42q-56 0 -79.5 19t-24.5 70q-73 -99 -236 -99q-93 0 -140.5 34.5t-47.5 90.5q0 28 17 52t40.5 40t61.5 29t69.5 20.5t75 13.5t67 8t58 4t35.5 2q-1 57 -39 78.5t-117 21.5h-412v-384h-78v384h-88v66h88v96q0 56 23.5 76.5t83.5 20.5h156v-67h-156
q-17 0 -23 -6.5t-6 -23.5v-96h412q234 0 234 -166v-188q0 -17 5.5 -23t21.5 -6zM527 51q81 1 153 38t72 94v44q-339 -17 -340 -113q0 -31 32 -47t83 -16z" />
    <glyph glyph-name="f_j" horiz-adv-x="602"
d="M497 654q24 0 40.5 -16.5t16.5 -40.5q0 -23 -16.5 -39.5t-40.5 -16.5q-23 0 -39.5 16.5t-16.5 39.5q0 24 16.5 40.5t39.5 16.5zM537 450v-536q0 -56 -24 -76.5t-83 -20.5h-103v67h103q17 0 22.5 6t5.5 24v470h-274v-384h-78v384h-88v66h88v96q0 56 23.5 76.5t83.5 20.5
h156v-67h-156q-17 0 -23 -6.5t-6 -23.5v-96h353z" />
    <glyph glyph-name="f_f_j" horiz-adv-x="960"
d="M855 654q23 0 40 -16.5t17 -40.5q0 -23 -17 -39.5t-40 -16.5t-39.5 16.5t-16.5 39.5q0 24 16.5 40.5t39.5 16.5zM895 450v-536q0 -56 -24 -76.5t-83 -20.5h-103v67h103q17 0 22.5 6t5.5 24v470h-274v-384h-78v384h-88v2h-7v-2h-185v-384h-78v384h-88v66h88v96
q0 56 23.5 76.5t83.5 20.5h156v-67h-156q-17 0 -23 -6.5t-6 -23.5v-96h280v96q0 56 23.5 76.5t82.5 20.5h157v-67h-157q-17 0 -22.5 -6t-5.5 -24v-96h353z" />
    <glyph glyph-name="f_t" horiz-adv-x="781"
d="M750 384h-183v-287q0 -18 5.5 -24t22.5 -6h153v-67h-153q-59 0 -83 20.5t-24 76.5v287h-89v8h-30v-8h-185v-384h-78v384h-88v66h88v96q0 56 23.5 76.5t83.5 20.5h156v-67h-156q-17 0 -23 -6.5t-6 -23.5v-96h304v131h79v-131h183v-66z" />
    <glyph glyph-name="f_z" horiz-adv-x="893"
d="M452 66h418v-66h-526v66l404 318h-564v-384h-78v384h-88v66h88v96q0 56 23.5 76.5t83.5 20.5h156v-67h-156q-17 0 -23 -6.5t-6 -23.5v-96h672v-63z" />
    <glyph glyph-name="r_f" horiz-adv-x="732"
d="M551 576q-17 0 -22.5 -6t-5.5 -24v-96h185v-66h-185v-384h-78v384h-81h-7h-82q-41 0 -69 -11t-43.5 -28t-24 -51t-10.5 -67t-2 -89v-138h-79v450h76l1 -92q42 92 149 92h84h7h81v96q0 56 23.5 76.5t82.5 20.5h157v-67h-157z" />
    <glyph glyph-name="r_t" horiz-adv-x="759"
d="M727 384h-183v-287q0 -18 5.5 -24t22.5 -6h153v-67h-153q-59 0 -82.5 20.5t-23.5 76.5v287h-90v2h-12v-2h-89q-41 0 -69 -11t-43.5 -28t-24 -51t-10.5 -67t-2 -89v-138h-79v450h76l1 -92q42 92 149 92h58h33h102v131h78v-131h183v-66z" />
    <glyph glyph-name="s_f" horiz-adv-x="907"
d="M726 576q-17 0 -22.5 -6t-5.5 -24v-96h185v-66h-185v-384h-79v384h-397q-57 0 -84.5 -11.5t-23.5 -41.5q3 -25 45 -38t100 -20.5t116.5 -18.5t99.5 -40.5t43 -78.5q2 -64 -58 -104.5t-188 -40.5q-65 0 -114.5 15.5t-74 35.5t-39.5 44t-18.5 37t-3.5 18h84q0 -4 1.5 -10
t11.5 -21t25.5 -27t49 -21.5t78.5 -9.5q81 0 123 22.5t40 61.5q-2 31 -43 48t-99 24.5t-115.5 17t-99 35.5t-43.5 70q-3 60 41.5 90t145.5 30h397v96q0 56 24 76.5t83 20.5h157v-67h-157z" />
    <glyph glyph-name="s_t.1" horiz-adv-x="919"
d="M888 384h-183v-287q0 -18 5.5 -24t22.5 -6h153v-67h-153q-59 0 -83 20.5t-24 76.5v287h-384q-67 0 -99 -12t-29 -41q3 -25 45.5 -38t100.5 -20.5t116 -18.5t99 -40.5t43 -78.5q2 -64 -58 -104.5t-188 -40.5q-65 0 -114.5 15.5t-74 35.5t-39.5 44t-18.5 37t-3.5 18h84
q0 -4 1.5 -10t11.5 -21t25.5 -27t49 -21.5t78.5 -9.5q81 0 123 22.5t40 61.5q-2 31 -43 48t-99 24.5t-115.5 17t-99 35.5t-43.5 70q-3 60 47.5 90t159.5 30h384v131h79v-131h183v-66z" />
    <glyph glyph-name="t_a" horiz-adv-x="1000"
d="M943 67h40v-67h-42q-56 0 -79 19t-25 69q-73 -98 -236 -98q-93 0 -140.5 34.5t-47.5 90.5q0 28 17 52t40.5 40t61.5 29t69 20t75.5 13t67.5 8t57.5 4.5t35.5 2.5q-1 57 -39 78.5t-117 21.5h-504v-287q0 -17 6 -23.5t23 -6.5h152v-67h-152q-60 0 -83.5 20.5t-23.5 76.5
v287h-90v66h90v131h78v-131h504q234 0 234 -166v-188q0 -17 6 -23t22 -6zM606 51q82 -2 156.5 36t74.5 96v44q-339 -17 -340 -113q0 -30 30.5 -46t78.5 -17z" />
    <glyph glyph-name="t_f" horiz-adv-x="790"
d="M609 576q-17 0 -22.5 -6t-5.5 -24v-96h185v-66h-185v-384h-78v384h-326v-287q0 -17 6 -23.5t23 -6.5h152v-67h-152q-60 0 -83.5 20.5t-23.5 76.5v287h-90v66h90v131h78v-131h326v96q0 56 23.5 76.5t82.5 20.5h157v-67h-157z" />
    <glyph glyph-name="t_i" horiz-adv-x="595"
d="M490 654q23 0 40 -16.5t17 -40.5q0 -23 -17 -39.5t-40 -16.5t-39.5 16.5t-16.5 39.5q0 24 16.5 40.5t39.5 16.5zM530 450v-450h-79v384h-274v-287q0 -17 6 -23.5t23 -6.5h152v-67h-152q-60 0 -83.5 20.5t-23.5 76.5v287h-90v66h90v131h78v-131h353z" />
    <glyph glyph-name="t_t" horiz-adv-x="763"
d="M732 384h-184v-287q0 -17 6 -23.5t23 -6.5h152v-67h-152q-60 0 -83.5 20.5t-23.5 76.5v287h-293v-287q0 -17 6 -23.5t23 -6.5h152v-67h-152q-60 0 -83.5 20.5t-23.5 76.5v287h-90v66h90v131h78v-131h293v131h78v-131h184v-66z" />
    <glyph glyph-name="w_w_w" horiz-adv-x="2490"
d="M2396 450h85l-201 -450h-85l-154 371l-155 -371h-85l-158 384l-158 -384h-86l-154 371l-155 -371h-85l-158 384l-158 -384h-85l-155 371l-155 -371h-85l-200 450h85l157 -379l162 379h73l161 -379l158 379h85l157 -380l161 380h74l161 -379l157 379h86l156 -379l162 379
h74l160 -380z" />
    <glyph glyph-name="upArrowsmall" horiz-adv-x="549"
d="M501 221l-46 -46l-147 151v-295h-67v294l-147 -151l-46 46l227 228z" />
    <glyph glyph-name="downArrowsmall" horiz-adv-x="549"
d="M455 278l46 -46l-226 -227l-227 228l46 45l147 -150v294h67v-295z" />
    <glyph glyph-name="rightArrowsmall" horiz-adv-x="645"
d="M304 461l227 -227l-227 -226l-45 46l150 147h-295v67h294l-150 147z" />
    <glyph glyph-name="leftArrowsmall" horiz-adv-x="645"
d="M531 268v-67h-295l151 -148l-46 -46l-227 227l228 227l46 -46l-151 -147h294z" />
    <glyph glyph-name="northEastArrowsmall" horiz-adv-x="417"
d="M48 457h321v-320h-65l2 211l-208 -209l-48 48l207 207l-209 -2v65z" />
    <glyph glyph-name="southEastArrowsmall" horiz-adv-x="417"
d="M304 313h65v-321l-321 1v65l210 -3l-208 208l48 47l208 -208z" />
    <glyph glyph-name="southWestArrowsmall" horiz-adv-x="417"
d="M159 55l210 3v-65l-321 -1v321h65l-2 -211l208 208l48 -47z" />
    <glyph glyph-name="northWestArrowsmall" horiz-adv-x="417"
d="M369 457v-65l-210 2l208 -207l-48 -48l-208 209l2 -211h-65v320h321z" />
    <glyph glyph-name="upArrowsmall_circle" horiz-adv-x="718"
d="M359 659q139 0 237 -98t98 -237t-98 -237.5t-237 -98.5t-237.5 98.5t-98.5 237.5t98.5 237t237.5 98zM359 33q121 0 207.5 85.5t86.5 205.5q0 121 -86.5 206.5t-207.5 85.5q-123 0 -208.5 -86t-85.5 -206q0 -121 86.5 -206t207.5 -85zM202 321l156 157l157 -156l-33 -33
l-101 104v-202h-46v202l-101 -104z" />
    <glyph glyph-name="downArrowsmall_circle" horiz-adv-x="718"
d="M359 655q139 0 237 -98.5t98 -237.5t-98 -237t-237 -98t-237.5 98t-98.5 237t98.5 237.5t237.5 98.5zM359 27q121 0 207.5 85.5t86.5 206.5q0 120 -86.5 205.5t-207.5 85.5t-207.5 -85t-86.5 -206t85.5 -206.5t208.5 -85.5zM381 250l101 104l33 -33l-157 -156l-156 157
l32 32l101 -104v202h46v-202z" />
    <glyph glyph-name="rightArrowsmall_circle" horiz-adv-x="718"
d="M359 657q139 0 237 -98.5t98 -237.5t-98 -237t-237 -98t-237.5 98t-98.5 237t98.5 237.5t237.5 98.5zM359 28q121 0 206.5 86t85.5 207q0 123 -85.5 208.5t-206.5 85.5t-206 -86t-85 -208q0 -121 85 -207t206 -86zM324 447l32 32l158 -157l-157 -157l-33 33l104 101h-202
v47h201z" />
    <glyph glyph-name="leftArrowsmall_circle" horiz-adv-x="718"
d="M358 657q139 0 237.5 -98.5t98.5 -237.5t-98.5 -237t-237.5 -98t-237 98t-98 237t98 237.5t237 98.5zM358 28q121 0 206.5 86t85.5 207q0 122 -85 208t-207 86q-120 0 -205.5 -85.5t-85.5 -208.5q0 -121 85 -207t206 -86zM394 447l-104 -101h202v-47h-201l103 -101
l-33 -33l-156 158l157 156z" />
    <glyph glyph-name="northEastArrowsmall_circle" horiz-adv-x="718"
d="M597 560q97 -98 97 -237t-97 -237q-98 -98 -237.5 -98t-237.5 98t-98 237.5t98 237.5t237 98t238 -99zM567 116q85 86 84.5 207t-85.5 206q-87 87 -208 87t-206 -85q-86 -86 -85 -207t87 -207q85 -85 206 -85.5t207 84.5zM246 432l221 1l1 -222h-46l2 145l-144 -143
l-33 33l144 143l-145 -2v45z" />
    <glyph glyph-name="southEastArrowsmall_circle" horiz-adv-x="718"
d="M597 556q98 -97 97.5 -236.5t-98.5 -237.5t-237 -98t-237 98t-98.5 237.5t97.5 236.5q99 99 238.5 98.5t237.5 -98.5zM565 113q87 87 87 208.5t-85 205.5q-87 86 -207.5 85t-206.5 -87t-86.5 -206.5t85.5 -206.5t206.5 -85.5t206.5 86.5zM423 433h45l1 -222l-222 -1v47
l145 -2l-143 143l33 33l143 -143z" />
    <glyph glyph-name="southWestArrowsmall_circle" horiz-adv-x="718"
d="M596 557q98 -98 98 -237.5t-98 -237.5t-237 -98t-238 99q-97 98 -97 237t97 237q98 98 237.5 98t237.5 -98zM566 112q86 87 85 207.5t-87 206.5q-86 85 -206.5 85.5t-206.5 -84.5q-85 -86 -85 -207t86 -206q87 -87 208 -87t206 85zM470 397l-143 -143l145 2v-45l-222 -1
v222h46l-2 -145l143 143z" />
    <glyph glyph-name="northWestArrowsmall_circle" horiz-adv-x="718"
d="M596 561q98 -98 98 -237.5t-98 -236.5q-98 -99 -237.5 -98.5t-237.5 98.5q-98 97 -98 236.5t99 237.5q98 98 237 98t237 -98zM565 118q86 86 86 206.5t-85 206.5q-86 86 -206.5 85.5t-206.5 -86.5q-87 -87 -87 -208t85 -206q87 -86 207.5 -85t206.5 87zM250 210l-1 222
l222 1v-47l-145 2l143 -143l-33 -33l-143 143l2 -145h-45z" />
    <glyph glyph-name="back" horiz-adv-x="893"
d="M759 364l-143 95l74 30q-64 97 -172 129q-42 12 -85 12q-76 0 -146 -38q-111 -61 -145 -181q-36 -121 25 -231q61 -111 181 -146q42 -12 85 -12q49 0 94 15q72 23 124.5 77t73.5 127l29 -9q-23 -79 -81 -138t-136 -85q-53 -17 -104 -17q-46 0 -93 14q-135 39 -199 160
q-67 121 -28 254q39 132 160 199q76 41 160 41q46 0 94 -14q123 -35 191 -145l75 30z" />
    <glyph glyph-name="circle.001" horiz-adv-x="871"
d="M436 657q28 0 47.5 -98.5t19.5 -237.5t-19.5 -237t-47.5 -98t-48 98.5t-20 236.5q0 139 20 237.5t48 98.5z" />
    <glyph glyph-name="circle.ss20"
d="M432 653q136 0 233.5 -97.5t97.5 -233.5q0 -138 -97 -235t-234 -97q-138 0 -235 97t-97 235q0 137 97 234t235 97zM432 625q-125 0 -213 -88.5t-88 -214.5t88 -215t213 -89q126 0 213.5 89t87.5 215t-87.5 214.5t-213.5 88.5z" />
    <glyph glyph-name="square" horiz-adv-x="843"
d="M100 643h643v-643h-643v643z" />
    <glyph glyph-name="square.ss20" horiz-adv-x="843"
d="M100 643h643v-643h-643v643zM130 616v-589h583v589h-583z" />
    <glyph glyph-name="uni25B3" horiz-adv-x="961"
d="M480 659l381 -659h-761z" />
    <glyph glyph-name="uni25B3.ss20" horiz-adv-x="961"
d="M480 659l381 -659h-761zM480 599l-328 -569h657z" />
    <glyph glyph-name="heart.ss20" horiz-adv-x="991"
d="M685 657q87 0 146.5 -59t59.5 -163q0 -49 -20 -98t-50 -89t-71.5 -79t-78 -66t-76.5 -52t-60 -36t-35 -19l-4 -2l-2 1q-167 84 -275 196q-119 123 -119 244q0 104 59.5 163t146.5 59q34 0 66 -12.5t53.5 -30.5t38 -35.5t24.5 -30.5l8 -12q3 5 8.5 13t23.5 29t38.5 37
t52.5 29t66 13zM495 475l-26 46q0 1 -5 8.5t-16 21t-24 25.5q-22 21 -51 36q-33 15 -67 15q-74 0 -124 -48q-52 -52 -52 -144q0 -77 56 -157q46 -66 129 -133q88 -71 181 -117q95 49 180 117q86 69 129 133q56 78 56 157q0 90 -52 144q-50 48 -124 48q-34 0 -67 -15
q-27 -13 -52 -37q-13 -12 -24 -25.5t-15.5 -20.5t-4.5 -8z" />
    <glyph glyph-name="uni22C6" horiz-adv-x="938"
d="M469 677l88 -268h281l-227 -166l86 -269l-228 166l-228 -166l86 269l-227 166h282z" />
    <glyph glyph-name="uni22C6.ss20" horiz-adv-x="939"
d="M469 677l88 -268h282l-228 -166l87 -269l-229 166l-228 -166l87 269l-228 166h282zM298 53l154 111l17 13l172 -124l-59 180l-6 21l17 13l154 112h-212l-7 21l-59 180l-59 -180l-6 -21h-212l171 -125l-7 -21z" />
    <glyph glyph-name="correct"
d="M432 657q136 0 233.5 -97.5t97.5 -233.5q0 -138 -97 -235t-234 -97q-138 0 -235 97t-97 235q0 137 97 234t235 97zM387 202l216 222l-22 21l-194 -199l-86 88l-21 -21z" />
    <glyph glyph-name="correct.ss20"
d="M432 657q136 0 233.5 -97.5t97.5 -233.5q0 -138 -97 -235t-234 -97q-138 0 -235 97t-97 235q0 137 97 234t235 97zM432 629q-125 0 -213 -88.5t-88 -214.5t88 -215t213 -89q126 0 213.5 89t87.5 215t-87.5 214.5t-213.5 88.5zM386 202l-107 111l21 21l86 -88l194 199
l22 -21z" />
    <glyph glyph-name="incorrect"
d="M432 657q136 0 233.5 -97.5t97.5 -233.5q0 -138 -97 -235t-234 -97q-138 0 -235 97t-97 235q0 137 97 234t235 97zM569 440l-21 21l-116 -116l-117 116l-21 -21l117 -116l-117 -117l21 -21l117 117l116 -117l21 21l-116 117z" />
    <glyph glyph-name="incorrect.ss20"
d="M432 657q136 0 233.5 -97.5t97.5 -233.5q0 -138 -97 -235t-234 -97q-138 0 -235 97t-97 235q0 137 97 234t235 97zM432 22q126 0 213.5 89t87.5 215t-87.5 214.5t-213.5 88.5q-125 0 -213 -88.5t-88 -214.5t88 -215t213 -89zM548 461l21 -21l-116 -116l116 -117l-21 -21
l-116 117l-117 -117l-21 21l117 117l-117 116l21 21l117 -116z" />
    <glyph glyph-name="profile" horiz-adv-x="775"
d="M569 477q0 -75 -53 -128t-128 -53t-128 53t-53 128q0 74 53 127t128 53t128 -53t53 -127zM675 70q0 -36 -90 -56t-197.5 -20t-197.5 20t-90 56q0 76 84.5 129.5t203.5 53.5t203 -53.5t84 -129.5z" />
    <glyph glyph-name="uni21B8" horiz-adv-x="900"
d="M450 663l350 -236h-77v-428h-198v226h-150v-226h-198v428h-77z" />
    <glyph glyph-name="uni21B8.ss20" horiz-adv-x="860"
d="M430 664l330 -236h-58v-428h-207v226h-130v-226h-208v428h-57zM187 28h148v226h190v-226h147v425l-242 174l-243 -174v-425z" />
    <glyph glyph-name="adjustments" horiz-adv-x="842"
d="M650 257q-8 -27 -21 -51l65 -66l-91 -91l-65 64q-27 -15 -52 -22v-91h-130v91q-25 7 -52 22l-64 -64l-92 91l65 66q-13 24 -21 51h-92v129h94q8 28 21 50l-67 67l92 92l68 -68q25 13 48 20v96h130v-96q23 -7 48 -20l69 68l91 -92l-67 -67q13 -22 21 -50h94v-129h-92z
M321 319q0 -42 29 -71t71 -29t71 29t29 71t-29 71t-71 29t-71 -29t-29 -71z" />
    <glyph glyph-name="adjustments.ss20" horiz-adv-x="843"
d="M486 643v-96q26 -8 49 -20l68 68l91 -92l-67 -67q12 -20 22 -50h94v-129h-93q-8 -27 -21 -51l65 -66l-91 -91l-64 64q-30 -16 -53 -22v-91h-129v91q-23 6 -53 22l-64 -64l-92 91l65 66q-13 26 -20 51h-93v129h94q7 25 22 50l-68 67l92 92l68 -68q23 12 49 20v96h129z
M456 613h-69v-89l-22 -6q-19 -5 -43 -17l-19 -11l-63 63l-49 -50l62 -62l-11 -20q-10 -17 -19 -43l-6 -22h-87v-69h86l6 -23q6 -23 18 -44l10 -20l-15 -16l-44 -44l49 -49l59 59l20 -11q23 -13 46 -19l22 -6v-84h69v84l22 6q20 5 46 19l20 11l59 -59l49 49l-60 60l11 20
q12 21 18 44l6 23h86v69h-87l-6 22q-9 26 -19 43l-11 20l62 62l-49 50l-63 -63l-20 11q-21 11 -42 17l-22 6v89zM421 189q-54 0 -92 38t-38 92q0 52 38 92q38 38 92 38q55 0 93 -38q38 -40 38 -92q0 -54 -38 -92t-93 -38zM421 219q42 0 71 29q30 30 30 71t-30 71
q-29 29 -71 29t-71 -29q-29 -31 -29 -71t29 -71q29 -29 71 -29z" />
    <glyph glyph-name="bin" horiz-adv-x="767"
d="M667 593v-30h-36v-563h-495v563h-36v30h200v50h167v-50h200zM330 613v-20h107v20h-107zM270 87v395h-30v-395h30zM398 87v395h-30v-395h30zM526 87v395h-30v-395h30z" />
    <glyph glyph-name="bin.ss20" horiz-adv-x="767"
d="M667 593v-30h-36v-563h-495v563h-36v30h200v50h167v-50h200zM330 613v-20h107v20h-107zM601 30v533h-435v-533h435zM271 482v-395h-30v395h30zM399 482v-395h-30v395h30zM527 482v-395h-30v395h30z" />
    <glyph glyph-name="u1F512.ss20" horiz-adv-x="720"
d="M540 407h80v-407h-520v407h81v75q0 80 52 135q52 57 127 57t127 -57q53 -56 53 -135v-75zM211 482v-75h299v75q0 67 -45 115q-44 47 -105 47t-105 -47t-44 -115zM590 30v347h-460v-347h460zM321 181q-31 21 -31 58q0 29 20.5 49.5t49.5 20.5t49.5 -20.5t20.5 -49.5
q0 -37 -30 -58v-84h-79v84zM360 279q-16 0 -28 -11.5t-12 -28.5q0 -27 28 -40v-72h25v72q27 13 27 40q0 17 -12 28.5t-28 11.5z" />
    <glyph glyph-name="u1F4F7.ss20" horiz-adv-x="1130"
d="M729 643l22 -91h279v-552h-930v552h83v37h139v-37h56l22 91h329zM292 524v35h-79v-35h-83v-496h870v496h-272l-22 91h-282l-23 -91h-109zM565 488q85 0 144.5 -59.5t59.5 -144.5t-59.5 -145t-144.5 -60t-145 60t-60 145t60 144.5t145 59.5zM565 108q72 0 123 51.5
t51 124.5q0 72 -51 123.5t-123 51.5q-74 0 -124.5 -52t-50.5 -123q0 -73 51 -124.5t124 -51.5zM929 456v-71h-71v71h71z" />
    <glyph glyph-name="location" horiz-adv-x="663"
d="M332 -10q-113 129 -173 234.5t-59 204.5q2 94 70 159.5t162 65.5q96 0 164 -68t67 -164q0 -176 -231 -432zM426 422q0 40 -27.5 67.5t-66.5 27.5t-67 -27.5t-28 -67.5q0 -39 28 -66.5t67 -27.5t66.5 27.5t27.5 66.5z" />
    <glyph glyph-name="location.ss20" horiz-adv-x="663"
d="M332 654q97 0 164 -64.5t67 -163.5q0 -52 -24 -116.5t-57.5 -118.5t-67.5 -100.5t-58 -73.5l-24 -27q-10 10 -26 28t-56.5 71t-71 103.5t-55 116t-23.5 117.5q3 102 69.5 165t162.5 63zM332 36q83 100 142 206.5t59 183.5q0 80 -59 139t-142 59q-81 0 -141 -57
q-58 -56 -61 -141q0 -75 60 -183t142 -207zM426 422q0 -39 -27.5 -66.5t-66.5 -27.5q-40 0 -67.5 27.5t-27.5 66.5q0 40 27.5 67.5t67.5 27.5q39 0 66.5 -27.5t27.5 -67.5z" />
    <glyph glyph-name="attention"
d="M432 658q136 0 233.5 -97t97.5 -234q0 -138 -97 -235t-234 -97q-138 0 -235 97t-97 235q0 137 97 234t235 97zM460 506h-56l7 -259h41zM431 147q15 0 25 10t10 24t-10 24.5t-25 10.5q-14 0 -24 -10.5t-10 -24.5t10 -24t24 -10z" />
    <glyph glyph-name="attention.ss20"
d="M432 658q136 0 233.5 -97t97.5 -234q0 -138 -97 -235t-234 -97q-138 0 -235 97t-97 235q0 137 97 234t235 97zM432 630q-125 0 -213 -88.5t-88 -214.5t88 -215t213 -89q126 0 213.5 89t87.5 215t-87.5 214.5t-213.5 88.5zM452 247h-41l-7 259h55zM466 181
q0 -14 -10.5 -24t-24.5 -10t-24 10t-10 24t10 24.5t24 10.5t24.5 -10.5t10.5 -24.5z" />
    <glyph glyph-name="basket" horiz-adv-x="1076"
d="M270 538h706l-72 -320h-564l17 -77h456v-30h-480l-110 502h-123v30h147zM369 89q20 0 34 -14t14 -33q0 -20 -14.5 -34t-33.5 -14t-33 14t-14 34t14 33.5t33 13.5zM804 89q20 0 34 -14t14 -33q0 -20 -14 -34t-34 -14q-19 0 -33 14t-14 34t13.5 33.5t33.5 13.5z" />
    <glyph glyph-name="basket.ss20" horiz-adv-x="1094"
d="M266 553h728l-78 -350h-573l14 -62h455v-30h-479l-111 502h-122v30h146zM892 233l65 290h-684l64 -290h555zM369 89q19 0 33 -13.5t14 -33.5t-14 -34t-33 -14q-20 0 -34 14t-14 34t14 33.5t34 13.5zM804 89q20 0 33.5 -13.5t13.5 -33.5t-14 -34t-33 -14q-20 0 -34 14
t-14 34t14 33.5t34 13.5z" />
    <glyph glyph-name="clock"
d="M432 658q136 0 233.5 -97t97.5 -234q0 -138 -97 -235t-234 -97q-138 0 -235 97t-97 235q0 137 97 234t235 97zM432 23q126 0 213.5 89t87.5 215t-87.5 214.5t-213.5 88.5q-125 0 -213 -88.5t-88 -214.5t88 -215t213 -89zM465 322q0 -4 -2 -14l94 -101l-22 -20l-95 102
q-3 -1 -9 -1q-14 0 -24 10t-10 24q0 20 17 30v230h30v-228q21 -8 21 -32z" />
    <glyph glyph-name="clock12"
d="M432 658q136 0 233.5 -97t97.5 -234q0 -138 -97 -235t-234 -97q-138 0 -235 97t-97 235q0 137 97 234t235 97zM432 23q126 0 213.5 89t87.5 215t-87.5 214.5t-213.5 88.5q-125 0 -213 -88.5t-88 -214.5t88 -215t213 -89zM447 613v-57h-30v57h30zM278 568l26 14l28 -49
l-26 -15zM532 533l28 49l26 -14l-28 -50zM446 353q19 -10 19 -31q0 -14 -10 -24t-24 -10t-24 10t-10 24q0 21 19 31v172h30v-172zM180 457l15 26l49 -29l-15 -26zM684 457l-49 -29l-15 26l48 29zM206 341v-30h-56v30h56zM658 341h56v-30h-56v30zM180 196l49 28l15 -26
l-49 -28zM620 198l15 26l49 -28l-16 -26zM278 85l28 49l26 -14l-28 -50zM532 120l26 14l28 -49l-26 -15zM417 39v57h30v-57h-30z" />
    <glyph glyph-name="clock1"
d="M432 658q136 0 233.5 -97t97.5 -234q0 -138 -97 -235t-234 -97q-138 0 -235 97t-97 235q0 137 97 234t235 97zM432 23q126 0 213.5 89t87.5 215t-87.5 214.5t-213.5 88.5q-125 0 -213 -88.5t-88 -214.5t88 -215t213 -89zM447 613v-57h-30v57h30zM278 568l26 14l28 -49
l-26 -15zM532 533l28 49l26 -14l-28 -50zM543 493l-85 -151q7 -7 7 -20q0 -14 -10 -24t-24 -10t-24 10t-10 24t10 24t24 10l86 151zM180 457l15 26l49 -29l-15 -26zM684 457l-49 -29l-15 26l48 29zM206 341v-30h-56v30h56zM658 341h56v-30h-56v30zM180 196l49 28l15 -26
l-49 -28zM620 198l15 26l49 -28l-16 -26zM278 85l28 49l26 -14l-28 -50zM532 120l26 14l28 -49l-26 -15zM417 39v57h30v-57h-30z" />
    <glyph glyph-name="clock2"
d="M432 658q136 0 233.5 -97t97.5 -234q0 -138 -97 -235t-234 -97q-138 0 -235 97t-97 235q0 137 97 234t235 97zM432 23q126 0 213.5 89t87.5 215t-87.5 214.5t-213.5 88.5q-125 0 -213 -88.5t-88 -214.5t88 -215t213 -89zM447 613v-57h-30v57h30zM278 568l26 14l28 -49
l-26 -15zM586 568l-28 -50l-26 15l28 49zM180 457l15 26l49 -29l-15 -26zM684 457l-49 -29l-15 26l48 29zM447 352l148 89l15 -26l-145 -87v-6q0 -14 -10 -24t-24 -10t-24 10t-10 24t10 24t24 10q9 0 16 -4zM206 341v-30h-56v30h56zM658 341h56v-30h-56v30zM180 196l49 28
l15 -26l-49 -28zM620 198l15 26l49 -28l-16 -26zM278 85l28 49l26 -14l-28 -50zM532 120l26 14l28 -49l-26 -15zM417 39v57h30v-57h-30z" />
    <glyph glyph-name="clock3"
d="M432 658q136 0 233.5 -97t97.5 -234q0 -138 -97 -235t-234 -97q-138 0 -235 97t-97 235q0 137 97 234t235 97zM432 23q126 0 213.5 89t87.5 215t-87.5 214.5t-213.5 88.5q-125 0 -213 -88.5t-88 -214.5t88 -215t213 -89zM447 613v-57h-30v57h30zM278 568l26 14l28 -49
l-26 -15zM586 568l-28 -50l-26 15l28 49zM180 457l15 26l49 -29l-15 -26zM684 457l-49 -29l-15 26l48 29zM631 311l-168 -1q-8 -22 -32 -22q-14 0 -24 10t-10 24t10 24t24 10q19 0 29 -16l171 1v-30zM206 341v-30h-56v30h56zM658 341h56v-30h-56v30zM180 196l49 28l15 -26
l-49 -28zM620 198l15 26l49 -28l-16 -26zM278 85l28 49l26 -14l-28 -50zM532 120l26 14l28 -49l-26 -15zM417 39v57h30v-57h-30z" />
    <glyph glyph-name="clock4"
d="M432 658q136 0 233.5 -97t97.5 -234q0 -138 -97 -235t-234 -97q-138 0 -235 97t-97 235q0 137 97 234t235 97zM432 23q126 0 213.5 89t87.5 215t-87.5 214.5t-213.5 88.5q-125 0 -213 -88.5t-88 -214.5t88 -215t213 -89zM447 613v-57h-30v57h30zM278 568l26 14l28 -49
l-26 -15zM586 568l-28 -50l-26 15l28 49zM180 457l15 26l49 -29l-15 -26zM684 457l-49 -29l-15 26l48 29zM464 330l156 -50l-9 -28l-153 50q-9 -14 -27 -14q-14 0 -24 10t-10 24t10 24t24 10q12 0 21.5 -7.5t11.5 -18.5zM206 341v-30h-56v30h56zM658 341h56v-30h-56v30z
M180 196l49 28l15 -26l-49 -28zM620 198l15 26l49 -28l-16 -26zM278 85l28 49l26 -14l-28 -50zM532 120l26 14l28 -49l-26 -15zM417 39v57h30v-57h-30z" />
    <glyph glyph-name="clock5"
d="M432 658q136 0 233.5 -97t97.5 -234q0 -138 -97 -235t-234 -97q-138 0 -235 97t-97 235q0 137 97 234t235 97zM432 23q126 0 213.5 89t87.5 215t-87.5 214.5t-213.5 88.5q-125 0 -213 -88.5t-88 -214.5t88 -215t213 -89zM447 613v-57h-30v57h30zM278 568l26 14l28 -49
l-26 -15zM532 533l28 49l26 -14l-28 -50zM180 457l15 26l49 -29l-15 -26zM684 457l-49 -29l-15 26l48 29zM461 305l84 -148l-26 -15l-82 146h-6q-14 0 -24 10t-10 24t10 24t24 10t24 -10t10 -24q0 -7 -4 -17zM206 341v-30h-56v30h56zM658 341h56v-30h-56v30zM180 196l49 28
l15 -26l-49 -28zM620 198l15 26l49 -28l-16 -26zM278 85l28 49l26 -14l-28 -50zM532 120l26 14l28 -49l-26 -15zM417 39v57h30v-57h-30z" />
    <glyph glyph-name="clock6"
d="M432 658q136 0 233.5 -97t97.5 -234q0 -138 -97 -235t-234 -97q-138 0 -235 97t-97 235q0 137 97 234t235 97zM432 23q126 0 213.5 89t87.5 215t-87.5 214.5t-213.5 88.5q-125 0 -213 -88.5t-88 -214.5t88 -215t213 -89zM447 613v-57h-30v57h30zM278 568l26 14l28 -49
l-26 -15zM532 533l28 49l26 -14l-28 -50zM180 457l15 26l49 -29l-15 -26zM684 457l-49 -29l-15 26l48 29zM431 356q14 0 24 -10t10 -24q0 -20 -17 -30v-168h-30v167q-21 9 -21 31q0 14 10 24t24 10zM206 341v-30h-56v30h56zM658 341h56v-30h-56v30zM180 196l49 28l15 -26
l-49 -28zM620 198l15 26l49 -28l-16 -26zM278 85l28 49l26 -14l-28 -50zM532 120l26 14l28 -49l-26 -15zM417 39v57h30v-57h-30z" />
    <glyph glyph-name="clock7"
d="M432 658q136 0 233.5 -97t97.5 -234q0 -138 -97 -235t-234 -97q-138 0 -235 97t-97 235q0 137 97 234t235 97zM432 23q126 0 213.5 89t87.5 215t-87.5 214.5t-213.5 88.5q-125 0 -213 -88.5t-88 -214.5t88 -215t213 -89zM447 613v-57h-30v57h30zM332 533l-26 -15l-28 50
l26 14zM532 533l28 49l26 -14l-28 -50zM180 457l15 26l49 -29l-15 -26zM684 457l-49 -29l-15 26l48 29zM431 356q14 0 24 -10t10 -24t-10 -24t-24 -10h-2l-84 -145l-26 15l84 145q-6 7 -6 19q0 14 10 24t24 10zM206 341v-30h-56v30h56zM658 341h56v-30h-56v30zM180 196
l49 28l15 -26l-49 -28zM620 198l15 26l49 -28l-16 -26zM278 85l28 49l26 -14l-28 -50zM532 120l26 14l28 -49l-26 -15zM417 39v57h30v-57h-30z" />
    <glyph glyph-name="clock8"
d="M432 658q136 0 233.5 -97t97.5 -234q0 -138 -97 -235t-234 -97q-138 0 -235 97t-97 235q0 137 97 234t235 97zM432 23q126 0 213.5 89t87.5 215t-87.5 214.5t-213.5 88.5q-125 0 -213 -88.5t-88 -214.5t88 -215t213 -89zM447 613v-57h-30v57h30zM332 533l-26 -15l-28 50
l26 14zM532 533l28 49l26 -14l-28 -50zM180 457l15 26l49 -29l-15 -26zM684 457l-49 -29l-15 26l48 29zM431 356q14 0 24 -10t10 -24t-10 -24t-24 -10q-11 0 -20 6l-145 -84l-15 26l146 85v1q0 14 10 24t24 10zM206 341v-30h-56v30h56zM658 341h56v-30h-56v30zM180 196
l49 28l15 -26l-49 -28zM620 198l15 26l49 -28l-16 -26zM278 85l28 49l26 -14l-28 -50zM532 120l26 14l28 -49l-26 -15zM417 39v57h30v-57h-30z" />
    <glyph glyph-name="clock9"
d="M432 658q136 0 233.5 -97t97.5 -234q0 -138 -97 -235t-234 -97q-138 0 -235 97t-97 235q0 137 97 234t235 97zM432 23q126 0 213.5 89t87.5 215t-87.5 214.5t-213.5 88.5q-125 0 -213 -88.5t-88 -214.5t88 -215t213 -89zM447 613v-57h-30v57h30zM332 533l-26 -15l-28 50
l26 14zM532 533l28 49l26 -14l-28 -50zM244 454l-15 -26l-49 29l15 26zM684 457l-49 -29l-15 26l48 29zM431 356q14 0 24 -10t10 -24t-10 -24t-24 -10q-23 0 -31 20l-169 3v30l170 -3q10 18 30 18zM206 341v-30h-56v30h56zM658 341h56v-30h-56v30zM180 196l49 28l15 -26
l-49 -28zM620 198l15 26l49 -28l-16 -26zM278 85l28 49l26 -14l-28 -50zM532 120l26 14l28 -49l-26 -15zM417 39v57h30v-57h-30z" />
    <glyph glyph-name="clock10"
d="M432 658q136 0 233.5 -97t97.5 -234q0 -138 -97 -235t-234 -97q-138 0 -235 97t-97 235q0 137 97 234t235 97zM432 23q126 0 213.5 89t87.5 215t-87.5 214.5t-213.5 88.5q-125 0 -213 -88.5t-88 -214.5t88 -215t213 -89zM447 613v-57h-30v57h30zM332 533l-26 -15l-28 50
l26 14zM532 533l28 49l26 -14l-28 -50zM180 457l15 26l49 -29l-15 -26zM684 457l-49 -29l-15 26l48 29zM431 356q14 0 24 -10t10 -24t-10 -24t-24 -10t-24 10t-10 24v5l-145 89l16 25l146 -89q10 4 17 4zM206 341v-30h-56v30h56zM658 341h56v-30h-56v30zM180 196l49 28
l15 -26l-49 -28zM620 198l15 26l49 -28l-16 -26zM278 85l28 49l26 -14l-28 -50zM532 120l26 14l28 -49l-26 -15zM417 39v57h30v-57h-30z" />
    <glyph glyph-name="clock11"
d="M432 658q136 0 233.5 -97t97.5 -234q0 -138 -97 -235t-234 -97q-138 0 -235 97t-97 235q0 137 97 234t235 97zM432 23q126 0 213.5 89t87.5 215t-87.5 214.5t-213.5 88.5q-125 0 -213 -88.5t-88 -214.5t88 -215t213 -89zM447 613v-57h-30v57h30zM332 533l-26 -15l-28 50
l26 14zM532 533l28 49l26 -14l-28 -50zM431 356q14 0 24 -10t10 -24t-10 -24t-24 -10t-24 10t-10 24q0 11 6 20l-84 149l26 15l85 -150h1zM180 457l15 26l49 -29l-15 -26zM684 457l-49 -29l-15 26l48 29zM206 341v-30h-56v30h56zM658 341h56v-30h-56v30zM180 196l49 28
l15 -26l-49 -28zM620 198l15 26l49 -28l-16 -26zM278 85l28 49l26 -14l-28 -50zM532 120l26 14l28 -49l-26 -15zM417 39v57h30v-57h-30z" />
    <glyph glyph-name="on" horiz-adv-x="804"
d="M425 327h-30v321h30v-321zM520 580q84 -36 133 -109q51 -77 51 -169q0 -126 -88 -214t-214 -88q-125 0 -213 88q-89 89 -89 214q0 93 52 169q49 73 133 109l11 -27q-76 -33 -119 -99q-47 -68 -47 -152q0 -112 80 -192q78 -80 192 -80q113 0 193 80q79 79 79 192
q0 83 -46 152q-46 67 -120 99z" />
    <glyph glyph-name="play"
d="M432 657q136 0 233.5 -97.5t97.5 -233.5q0 -138 -97 -235t-234 -97q-138 0 -235 97t-97 235q0 137 97 234t235 97zM593 321l-249 144v-288z" />
    <glyph glyph-name="play.ss20"
d="M432 657q136 0 233.5 -97.5t97.5 -233.5q0 -138 -97 -235t-234 -97q-138 0 -235 97t-97 235q0 137 97 234t235 97zM432 629q-125 0 -213 -88.5t-88 -214.5t88 -215t213 -89q126 0 213.5 89t87.5 215t-87.5 214.5t-213.5 88.5zM593 321l-249 -144v288z" />
    <glyph glyph-name="pause"
d="M432 657q136 0 233.5 -97.5t97.5 -233.5q0 -138 -97 -235t-234 -97q-138 0 -235 97t-97 235q0 137 97 234t235 97zM392 184v277h-70v-277h70zM542 184v277h-70v-277h70z" />
    <glyph glyph-name="pause.ss20"
d="M432 657q136 0 233.5 -97.5t97.5 -233.5q0 -138 -97 -235t-234 -97q-138 0 -235 97t-97 235q0 137 97 234t235 97zM432 629q-125 0 -213 -88.5t-88 -214.5t88 -215t213 -89q126 0 213.5 89t87.5 215t-87.5 214.5t-213.5 88.5zM392 184h-70v277h70v-277zM542 184h-70v277
h70v-277z" />
    <glyph glyph-name="skip.for"
d="M432 657q136 0 233.5 -97.5t97.5 -233.5q0 -138 -97 -235t-234 -97q-138 0 -235 97t-97 235q0 137 97 234t235 97zM571 184v277h-30v-140l-249 144v-288l249 144v-137h30z" />
    <glyph glyph-name="skip.for.ss20"
d="M432 657q136 0 233.5 -97.5t97.5 -233.5q0 -138 -97 -235t-234 -97q-138 0 -235 97t-97 235q0 137 97 234t235 97zM432 629q-125 0 -213 -88.5t-88 -214.5t88 -215t213 -89q126 0 213.5 89t87.5 215t-87.5 214.5t-213.5 88.5zM541 321l-249 -144v288zM571 184v277h-30
v-277h30z" />
    <glyph glyph-name="skip.back"
d="M432 657q136 0 233.5 -97.5t97.5 -233.5q0 -138 -97 -235t-234 -97q-138 0 -235 97t-97 235q0 137 97 234t235 97zM572 177v288l-249 -144v137h-30v-276h30v139z" />
    <glyph glyph-name="skip.back.ss20"
d="M432 657q136 0 233.5 -97.5t97.5 -233.5q0 -138 -97 -235t-234 -97q-138 0 -235 97t-97 235q0 137 97 234t235 97zM432 629q-125 0 -213 -88.5t-88 -214.5t88 -215t213 -89q126 0 213.5 89t87.5 215t-87.5 214.5t-213.5 88.5zM323 321l249 144v-288zM323 182v276h-30
v-276h30z" />
    <glyph glyph-name="audio.on" horiz-adv-x="909"
d="M486 643v-643l-229 203h-157v234h153zM702 580q9 -9 25 -27q39 -49 60 -107q22 -60 22 -126t-22 -126q-21 -59 -60 -107q-16 -18 -25 -27l-22 21q16 16 23 25q37 46 56 99q20 51 20 115q0 62 -20 115q-19 53 -56 99q-14 16 -23 25zM644 517q8 -8 22 -26q59 -74 59 -171
t-59 -171q-14 -18 -22 -26l-22 21q7 7 21 23q52 67 52 153t-52 153q-14 16 -21 23zM583 451q13 -13 21 -25q33 -47 33 -106q0 -60 -33 -106q-8 -12 -21 -25l-21 21q12 14 17 21q28 38 28 89t-28 89q-5 7 -17 21z" />
    <glyph glyph-name="audio.off" horiz-adv-x="900"
d="M100 437h154l232 206v-643l-229 203h-157v234zM800 416l-96 -96l96 -96l-21 -22l-96 97l-97 -97l-21 22l96 96l-96 96l21 21l97 -96l96 96z" />
    <glyph glyph-name="music" horiz-adv-x="766"
d="M259 571l407 79v-482q0 -44 -31 -74.5t-74 -30.5t-74 30.5t-31 74.5t31 74.5t74 30.5q30 0 54 -15v250l-305 -59v-354q0 -43 -31 -74t-74 -31t-74 31t-31 74t31 74t74 31q30 0 54 -15v386z" />
    <glyph glyph-name="mail" horiz-adv-x="1146"
d="M100 643h946v-643h-946v643zM999 615h-850l424 -276zM130 28h886v569l-443 -294l-443 295v-570z" />
    <glyph glyph-name="send" horiz-adv-x="1015"
d="M915 663l-386 -683l-146 174l-76 -77v165l432 305l-498 -225l-141 167z" />
    <glyph glyph-name="upload" horiz-adv-x="681"
d="M581 642v-30h-481v30h481zM524 260l-144 149v-409h-81v408l-143 -148l-54 53l238 239l238 -239z" />
    <glyph glyph-name="download" horiz-adv-x="681"
d="M524 383l54 -53l-238 -239l-238 239l54 53l143 -148v408h81v-409zM581 1h-481v30h481v-30z" />
    <glyph glyph-name="upload.cloud" horiz-adv-x="1014"
d="M721 181l-136 1v30l136 -1q72 0 118 51q45 48 45 117t-48.5 117.5t-117.5 48.5q-26 0 -42 -5l-11 -3l-6 9q-25 39 -66.5 61t-88.5 22q-65 0 -116 -40t-65 -103l-4 -15l-15 4q-20 6 -40 6q-56 0 -95 -39.5t-39 -94.5q0 -56 39.5 -95.5t94.5 -39.5h166v-30h-166
q-68 0 -116 48.5t-48 116.5t48 116t116 48q18 0 34 -3q20 62 71 104q58 47 135 47q52 0 98 -23t76 -65q17 4 40 4q81 0 138.5 -57.5t57.5 -138.5q0 -80 -53 -138q-55 -60 -140 -60zM402 307l-30 30l135 136l135 -136l-30 -30l-82 84v-391h-46v392z" />
    <glyph glyph-name="download.cloud" horiz-adv-x="1015"
d="M721 181l-135 1v30l135 -1q73 0 119 51q45 48 45 117t-49 117.5t-118 48.5q-26 0 -42 -5l-11 -3l-6 9q-25 39 -66.5 61t-88.5 22q-65 0 -116 -40q-49 -40 -65 -103l-3 -15l-16 4q-20 6 -39 6q-56 0 -95.5 -39.5t-39.5 -94.5t40 -95t95 -40h166v-30h-166
q-68 0 -116.5 48.5t-48.5 116.5t48.5 116t116.5 48q17 0 33 -3q20 62 71 104q58 47 135 47q52 0 98 -23t76 -65q17 4 40 4q81 0 139 -57.5t58 -138.5q0 -80 -53 -138q-57 -60 -141 -60zM612 155l31 -30l-136 -136l-135 136l31 30l81 -84v389h46v-390z" />
    <glyph glyph-name="wifi" horiz-adv-x="941"
d="M470 575q92 0 179 -31q87 -33 153 -87q26 -22 39 -36l-21 -21q-18 18 -37 34q-65 52 -144 81q-84 30 -169 30q-86 0 -168 -30q-80 -29 -144 -81q-19 -16 -37 -34l-21 21q18 19 39 36q66 54 153 87q85 31 178 31zM470 453q71 0 131 -22q58 -20 112 -61q13 -10 37 -32
l-22 -22q-13 14 -34 30q-44 37 -103 57q-58 20 -121 20q-62 0 -120 -20t-104 -57q-22 -18 -33 -30l-22 22q24 22 37 32q51 40 112 61q60 22 130 22zM470 327q39 0 80 -13q38 -12 70 -35q18 -12 34 -28l-21 -22q-11 12 -30 26q-31 21 -62 31q-35 11 -71 11q-35 0 -70 -11
q-31 -10 -62 -31q-19 -14 -30 -26l-21 22q16 16 34 28q32 23 70 35q41 13 79 13zM530 138q0 -24 -17.5 -41.5t-42.5 -17.5q-24 0 -41.5 17.5t-17.5 41.5q0 25 17.5 42.5t41.5 17.5q25 0 42.5 -17.5t17.5 -42.5z" />
    <glyph glyph-name="search" horiz-adv-x="872"
d="M772 21l-21 -21l-206 206q-76 -68 -178 -68q-110 0 -188.5 78.5t-78.5 188.5q0 111 78.5 189t188.5 78q111 0 189 -78t78 -189q0 -100 -68 -178zM367 168q46 0 92 19q43 18 76 51q35 37 50 75q19 42 19 92q0 49 -19 93q-15 38 -50 75q-33 33 -76 51q-44 18 -92 18
q-49 0 -92 -18q-45 -19 -75 -51q-33 -33 -51 -75q-19 -44 -19 -93q0 -50 19 -92q18 -42 51 -75q30 -32 75 -51q46 -19 92 -19z" />
    <glyph glyph-name="zoom.in" horiz-adv-x="873"
d="M773 21l-22 -21l-206 206q-76 -68 -178 -68q-110 0 -188.5 78.5t-78.5 188.5q0 111 78.5 189t188.5 78q111 0 189 -78t78 -189q0 -100 -68 -178zM367 168q46 0 92 19q43 18 76 51t51 75q18 43 18 92q0 48 -18 93q-18 42 -51 75t-76 51q-44 18 -92 18q-49 0 -92 -18
q-45 -19 -75 -51q-33 -33 -51 -75q-19 -44 -19 -93q0 -50 19 -92q18 -42 51 -75q30 -32 75 -51q46 -19 92 -19zM382 539v-119h118v-30h-118v-118h-30v118h-118v30h118v119h30z" />
    <glyph glyph-name="zoom.out" horiz-adv-x="873"
d="M773 21l-21 -21l-207 206q-76 -68 -178 -68q-110 0 -188.5 78.5t-78.5 188.5q0 111 78.5 189t188.5 78q111 0 189 -78t78 -189q0 -101 -67 -178zM367 168q47 0 93 19q42 18 75 51t51 75q18 43 18 92q0 48 -18 93q-18 42 -51 75t-75 51q-44 18 -93 18t-92 -18
q-42 -18 -75 -51t-51 -75q-19 -48 -19 -93q0 -46 19 -92q18 -42 51 -75t75 -51q46 -19 92 -19zM234 390v30h267v-30h-267z" />
    <glyph glyph-name="speech" horiz-adv-x="1026"
d="M805 643q50 0 85.5 -35t35.5 -85v-283q0 -50 -35.5 -85t-85.5 -35h-92l30 -130l-154 130h-369q-50 0 -85 35t-35 85v283q0 49 35 84.5t85 35.5h585z" />
    <glyph glyph-name="speech.ss20" horiz-adv-x="1026"
d="M806 643q50 0 85 -35.5t35 -84.5v-283q0 -50 -35 -85t-85 -35h-93l30 -130l-154 130h-369q-50 0 -85 35t-35 85v283q0 49 35 84.5t85 35.5h586zM220 150h380l93 -83l-18 83h131q37 0 63 26q27 26 27 64v283q0 37 -27 63q-27 27 -63 27h-586q-36 0 -63 -27
q-27 -26 -27 -63v-283q0 -38 27 -64q26 -26 63 -26z" />
    <glyph glyph-name="speech2" horiz-adv-x="1014"
d="M354 318v-21h-37l-100 -78l20 78h-60q-32 0 -54.5 22.5t-22.5 54.5v191q0 32 22.5 55t54.5 23h377q32 0 55 -23t23 -55v-139h-171q-44 0 -75.5 -32t-31.5 -76zM836 400q32 0 55 -23t23 -55v-191q0 -32 -23 -54.5t-55 -22.5h-59l19 -78l-99 78h-238q-32 0 -54.5 22.5
t-22.5 54.5v191q0 32 22.5 55t54.5 23h377z" />
    <glyph glyph-name="bluetooth" horiz-adv-x="587"
d="M272 -9v294l-151 -151l-21 21l166 166l-166 167l21 21l151 -151v294l215 -152l-178 -179l178 -178zM302 594v-236l139 138zM302 285v-236l139 98z" />
    <glyph glyph-name="phone" horiz-adv-x="571"
d="M431 643q17 0 28.5 -11.5t11.5 -28.5v-563q0 -16 -11.5 -28t-28.5 -12h-291q-16 0 -28 12t-12 28v563q0 17 12 28.5t28 11.5h291zM431 613h-291q-10 0 -10 -10v-563q0 -10 10 -10h291q10 0 10 10v563q0 10 -10 10zM347 555h-123v30h123v-30zM311 83q0 -10 -8 -17.5
t-18 -7.5t-17.5 7.5t-7.5 17.5q0 11 7.5 18.5t17.5 7.5q11 0 18.5 -7.5t7.5 -18.5z" />
    <glyph glyph-name="disabled" horiz-adv-x="758"
d="M612 90h46v-50h-84l-49 173h-222l-13 138q-59 -5 -99.5 -49.5t-40.5 -104.5q0 -64 45 -110t109 -46q61 0 105.5 44t48.5 105h50q-3 -82 -62 -139.5t-142 -57.5q-85 0 -144.5 60t-59.5 144q0 80 54 138.5t132 65.5l-14 150q-23 16 -23 47q0 25 17 42t42 17t42.5 -17
t17.5 -42q0 -21 -12.5 -37t-32.5 -21l13 -138h197v-50h-192l8 -89h214z" />
    <glyph glyph-name="plane" horiz-adv-x="843"
d="M743 183l-271 49l-3 -145l119 -80v-25l-167 30l-167 -30v25l119 80l-3 145l-270 -49v35l267 172l-3 169q-1 36 19 66.5t38 30.5t38 -30.5t19 -66.5l-3 -169l268 -172v-35z" />
    <glyph glyph-name="take.off" horiz-adv-x="1099"
d="M891 495l-654 -246l-137 137l73 30l93 -40l192 89l-202 114l80 35l321 -57l172 80q50 21 113 1q56 -18 57 -51q3 -45 -106 -91q-1 -1 -2 -1zM130 0v30h852v-30h-852z" />
    <glyph glyph-name="landing" horiz-adv-x="1058"
d="M799 202l-672 193l-27 192l76 -18l50 -89l208 -43l-93 212l84 -19l223 -238l186 -39q50 -13 88 -64q40 -52 17 -81q-28 -35 -140 -6zM106 30h852v-30h-852v30z" />
    <glyph glyph-name="luggage" horiz-adv-x="1037"
d="M666 569v-9h105v-560h-504v560h105v9q0 31 21.5 52.5t52.5 21.5h146q31 0 52.5 -21.5t21.5 -52.5zM402 569v-9h234v9q0 18 -13 31t-31 13h-146q-18 0 -31 -13q-13 -12 -13 -31zM100 509q0 21 15 36t36 15h70v-560h-70q-21 0 -36 15t-15 36v458zM887 560q21 0 35.5 -15
t14.5 -36v-458q0 -21 -14.5 -36t-35.5 -15h-70v560h70z" />
    <glyph glyph-name="luggage.ss20" horiz-adv-x="1036"
d="M886 560q21 0 35.5 -15t14.5 -36v-458q0 -21 -14.5 -36t-35.5 -15h-736q-21 0 -35.5 15t-14.5 36v458q0 21 14.5 36t35.5 15h229v10q0 31 22.5 52t54.5 21h124q32 0 54.5 -21t22.5 -52v-10h229zM409 570v-10h218v10q0 18 -13.5 30.5t-33.5 12.5h-124q-20 0 -33.5 -12.5
t-13.5 -30.5zM130 51q0 -9 6 -16t14 -7h70v504h-70q-8 0 -14 -7t-6 -16v-458zM770 532h-504v-504h504v504zM906 51v458q0 9 -6 16t-14 7h-70v-504h70q8 0 14 7t6 16z" />
    <glyph glyph-name="info"
d="M432 653q136 0 233.5 -97.5t97.5 -233.5q0 -138 -97 -235t-234 -97q-138 0 -235 97t-97 235q0 137 97 234t235 97zM473 505q0 17 -11.5 28t-27.5 11t-27 -11.5t-11 -27.5t11 -27t27 -11t27.5 11t11.5 27zM465 188v231h-87v-48h33v-183h-33v-48h120v48h-33z" />
    <glyph glyph-name="info.ss20"
d="M432 653q136 0 233.5 -97.5t97.5 -233.5q0 -138 -97 -235t-234 -97q-138 0 -235 97t-97 235q0 137 97 234t235 97zM432 18q126 0 213.5 89t87.5 215t-87.5 214.5t-213.5 88.5q-125 0 -213 -88.5t-88 -214.5t88 -215t213 -89zM434 467q-16 0 -27 11t-11 27t11 27.5
t27 11.5t27.5 -11t11.5 -28q0 -16 -11.5 -27t-27.5 -11zM465 419v-231h33v-48h-120v48h33v183h-33v48h87z" />
    <glyph glyph-name="help"
d="M432 653q136 0 233.5 -97.5t97.5 -233.5q0 -138 -97 -235t-234 -97q-138 0 -235 97t-97 235q0 137 97 234t235 97zM432 625q-125 0 -213 -88.5t-88 -214.5t88 -215t213 -89q126 0 213.5 89t87.5 215t-87.5 214.5t-213.5 88.5zM453 226h-48q-1 39 13.5 66.5t32.5 39.5
t34 28.5t18 35.5q3 28 -15.5 45.5t-48.5 17.5q-33 0 -50.5 -18t-18.5 -36l-1 -18h-57v13t6 28t17.5 35.5t38.5 28.5t65 13q57 0 90 -32t33 -77q0 -28 -17 -49.5t-37.5 -33.5t-37.5 -35t-17 -52zM466 157q0 -15 -11 -25.5t-27 -10.5q-15 0 -25.5 10.5t-10.5 25.5t10.5 25.5
t25.5 10.5q16 0 27 -10.5t11 -25.5z" />
    <glyph glyph-name="help.ss20"
d="M432 653q136 0 233.5 -97.5t97.5 -233.5q0 -138 -97 -235t-234 -97q-138 0 -235 97t-97 235q0 137 97 234t235 97zM453 226q0 29 17 52t37.5 35t37.5 33.5t17 49.5q0 45 -33 77t-90 32q-38 0 -65 -12t-38.5 -29.5t-17.5 -35t-6 -29.5v-12h57v8t3 17t9.5 21.5t21.5 17.5
t36 8q30 0 48.5 -17.5t15.5 -45.5q-2 -19 -18 -35.5t-34 -28.5t-32.5 -39.5t-13.5 -66.5h48zM466 157q0 15 -11 25.5t-27 10.5q-15 0 -25.5 -10.5t-10.5 -25.5t10.5 -25.5t25.5 -10.5q16 0 27 10.5t11 25.5z" />
    <glyph glyph-name="sun.ss20" horiz-adv-x="882"
d="M782 307h-147q-4 -64 -46 -112l103 -104l-21 -21l-103 103q-50 -42 -112 -46v-146h-30v146q-63 4 -113 46l-103 -103l-21 21l103 103q-42 50 -46 113h-146v30h146q4 64 46 112l-103 103l21 21l103 -102q50 42 113 46v146h30v-146q62 -4 112 -46l103 102l21 -21l-102 -103
q40 -48 45 -112h147v-30zM558 204q48 50 48 118q0 69 -48 117q-49 49 -117 49q-67 0 -118 -49q-48 -48 -48 -117q0 -68 48 -118q50 -48 118 -48q69 0 117 48z" />
    <glyph glyph-name="moon" horiz-adv-x="836"
d="M420 653q-78 -34 -125.5 -105t-47.5 -158q0 -93 51.5 -164t125.5 -101t160.5 -15t151.5 81q-39 -90 -121.5 -145.5t-182.5 -55.5q-137 0 -234.5 97.5t-97.5 234.5q0 134 93.5 230t226.5 101z" />
    <glyph glyph-name="uni2601.ss20" horiz-adv-x="1359"
d="M675 662q76 0 141 -36t106 -97q35 8 68 8q112 0 190.5 -78.5t78.5 -189.5q0 -107 -73.5 -184.5t-179.5 -83.5h-685q-91 0 -156 64.5t-65 156.5t65 156.5t156 64.5q30 0 65 -10q24 99 104 164t185 65zM675 632q-44 0 -90 -16q-44 -16 -77 -43q-35 -27 -59 -65
q-23 -36 -34 -82l-8 -31l-30 9q-27 9 -56 9q-79 0 -135 -56t-56 -135t56 -135t135 -56h683q94 5 159.5 74t65.5 164q0 45 -19 93q-19 45 -51 75q-34 34 -76 52q-43 18 -93 18q-32 0 -60 -7l-21 -6l-12 18q-37 56 -96 88t-126 32z" />
    <glyph glyph-name="sunny" horiz-adv-x="1043"
d="M760 501q76 0 129.5 -53.5t53.5 -129.5q0 -73 -50 -125.5t-122 -56.5v-1h-467q-62 0 -106.5 44.5t-44.5 106.5q0 65 48 110q-6 10 -8 16l-85 -22l-8 29l84 22q-6 39 10 74l-74 43l15 26l74 -43q24 32 60 44l-21 84l29 8l22 -85q37 4 72 -11l45 76l26 -15l-45 -77
q16 -14 23 -23q53 44 125 44q52 0 97 -24.5t72 -66.5q22 6 46 6zM227 513q-29 -50 -2 -99q35 23 79 23q20 0 44 -7q12 52 49 92q-13 18 -30 28q-38 20 -78 10q-40 -9 -62 -47zM769 165q61 4 102.5 48t41.5 105q0 63 -45 108q-43 45 -108 45q-18 0 -38 -5l-21 -5l-12 17
q-24 37 -62 57.5t-82 20.5q-26 0 -58 -10q-29 -11 -50 -28q-46 -37 -60 -95l-7 -31l-31 9q-17 6 -35 6q-50 0 -86 -36q-35 -37 -35 -85q0 -50 35 -85q36 -36 86 -36h465z" />
    <glyph glyph-name="cloudy" horiz-adv-x="1075"
d="M856 355q53 -20 86 -66.5t33 -104.5q0 -73 -50.5 -126t-122.5 -57h-467q-62 0 -106 44t-44 106q0 36 15 66q-39 15 -66 48q-34 42 -34 96q0 64 45 109t109 45q16 0 31 -3q19 59 66 97q57 44 126 44q103 0 163 -82q16 4 36 4q76 0 130 -54t54 -130q0 -20 -4 -36zM158 284
q23 -29 58 -40q46 58 119 58q25 0 45 -7q16 68 71 112t126 44q51 0 96 -24.5t73 -65.5q23 5 46 5q18 0 35 -3q3 13 3 28q0 64 -45 109t-109 45q-17 0 -39 -5l-10 -3l-6 9q-24 36 -62.5 56.5t-81.5 20.5q-60 0 -107 -38q-46 -35 -60 -94l-4 -16l-15 5q-15 5 -37 5
q-51 0 -87.5 -36t-36.5 -88q0 -43 28 -77zM801 31q60 3 102 47.5t42 105.5q0 63 -45 108q-44 44 -108 44q-23 0 -39 -5l-21 -5l-11 18q-53 77 -144 77q-32 0 -58 -10q-26 -9 -50 -28q-46 -37 -60 -95l-8 -31l-30 10q-20 5 -36 5q-48 0 -85 -35q-35 -35 -35 -86q0 -50 35 -85
t85 -35h466z" />
    <glyph glyph-name="sunny.rain" horiz-adv-x="1043"
d="M760 501q76 0 129.5 -53.5t53.5 -129.5q0 -73 -50 -125.5t-122 -56.5v-1h-25l-19 -47q-7 -13 -20 -8q-14 5 -8 20l15 35h-87l-20 -47q-5 -14 -19 -8q-15 6 -8 20l14 35h-86l-20 -47q-5 -14 -20 -8q-13 6 -8 20l15 35h-87l-19 -47q-7 -13 -20 -8q-14 5 -8 20l15 35h-52
q-62 0 -106.5 44.5t-44.5 106.5q0 65 48 110q-6 10 -8 16l-85 -22l-8 29l84 22q-6 39 10 74l-74 43l15 26l74 -43q24 32 60 44l-21 84l29 8l22 -85q37 4 72 -11l45 76l26 -15l-45 -77q16 -14 23 -23q53 44 125 44q52 0 97 -24.5t72 -66.5q22 6 46 6zM227 513q-29 -50 -2 -99
q35 23 79 23q20 0 44 -7q12 52 49 92q-13 18 -30 28q-38 20 -78 10q-40 -9 -62 -47zM769 165q61 4 102.5 48t41.5 105q0 63 -45 108q-43 45 -108 45q-18 0 -38 -5l-21 -5l-12 17q-24 37 -62 57.5t-82 20.5q-26 0 -58 -10q-29 -11 -50 -28q-46 -37 -60 -95l-7 -31l-31 9
q-17 6 -35 6q-50 0 -86 -36q-35 -37 -35 -85q0 -50 35 -85q36 -36 86 -36h465zM414 79q14 -5 8 -20l-23 -54q-6 -14 -19 -8q-15 6 -8 20l22 54q5 14 20 8zM533 79q14 -5 8 -20l-22 -54q-7 -13 -20 -8q-14 5 -8 20l23 54q5 14 19 8zM653 79q13 -6 8 -20l-23 -54
q-6 -13 -20 -8q-13 6 -8 20l23 54q5 14 20 8z" />
    <glyph glyph-name="snow" horiz-adv-x="990"
d="M492 595q52 0 96 -24.5t72 -65.5q22 6 47 6q76 0 129.5 -53.5t53.5 -129.5q0 -73 -50.5 -125.5t-122.5 -57.5h-467q-62 0 -106 44t-44 107q0 62 44 106t106 44q24 0 45 -6q16 67 71 111t126 44zM492 565q-32 0 -59 -10t-49 -27q-48 -38 -60 -95l-8 -31l-30 9q-20 5 -36 5
q-50 0 -85 -35t-35 -85q0 -51 35 -86t85 -35h466q60 4 102 48t42 105q0 63 -45 108t-108 45q-17 0 -39 -5l-21 -6l-12 18q-50 77 -143 77zM334 102q0 -8 -6.5 -14.5t-15.5 -6.5q-8 0 -14.5 6.5t-6.5 14.5q0 9 6.5 15.5t14.5 6.5q9 0 15.5 -6.5t6.5 -15.5zM455 102
q0 -8 -6 -14.5t-15 -6.5t-15.5 6.5t-6.5 14.5q0 9 6.5 15.5t15.5 6.5t15 -6.5t6 -15.5zM577 102q0 -8 -6.5 -14.5t-15.5 -6.5q-8 0 -14.5 6.5t-6.5 14.5q0 9 6.5 15.5t14.5 6.5q9 0 15.5 -6.5t6.5 -15.5zM698 102q0 -8 -6 -14.5t-15 -6.5t-15.5 6.5t-6.5 14.5q0 9 6.5 15.5
t15.5 6.5t15 -6.5t6 -15.5zM393 31q0 -9 -6 -15.5t-15 -6.5t-15 6.5t-6 15.5q0 8 6 14.5t15 6.5t15 -6.5t6 -14.5zM515 31q0 -9 -6.5 -15.5t-15.5 -6.5q-8 0 -14.5 6.5t-6.5 15.5q0 8 6.5 14.5t14.5 6.5q9 0 15.5 -6.5t6.5 -14.5zM636 31q0 -9 -6 -15.5t-15 -6.5t-15.5 6.5
t-6.5 15.5q0 8 6.5 14.5t15.5 6.5t15 -6.5t6 -14.5z" />
    <glyph glyph-name="storm" horiz-adv-x="990"
d="M707 511q76 0 129.5 -53.5t53.5 -129.5q0 -73 -50.5 -125.5t-122.5 -57.5h-207l-99 -160l42 160h-203q-62 0 -106 44t-44 107q0 62 44 106t106 44q24 0 45 -6q16 67 71 111t126 44q52 0 96 -24.5t72 -65.5q22 6 47 6zM716 175q60 4 102 48t42 105q0 63 -45 108t-108 45
q-17 0 -39 -5l-21 -6l-12 18q-50 77 -143 77q-32 0 -59 -10t-49 -27q-48 -38 -60 -95l-8 -31l-30 9q-20 5 -36 5q-50 0 -85 -35t-35 -85q0 -51 35 -86t85 -35h211l14 51h-92l89 232h113l-71 -156h94l-79 -127h187z" />
    <glyph glyph-name="winter" horiz-adv-x="777"
d="M657 221l-40 -13l60 -34l-14 -26l-61 34l9 -40l-29 -7l-16 68l-45 26l20 -88l-30 -7l-26 115l-42 24l-39 -22v-48l87 -80l-20 -22l-67 61v-52l51 -47l-20 -22l-31 28v-69h-30v69l-31 -28l-20 22l51 47v52l-67 -61l-20 22l87 80v48l-39 22l-42 -24l-26 -115l-30 7l20 88
l-45 -26l-16 -68l-29 7l9 40l-61 -34l-15 26l61 34l-40 13l9 28l67 -20l45 26l-87 26l9 29l114 -35l43 25v43l-43 25l-114 -35l-9 28l87 27l-45 26l-67 -21l-9 29l40 12l-61 35l15 26l61 -35l-9 41l29 7l16 -68l45 -26l-20 88l30 6l26 -114l43 -25l38 21v50l-87 80l20 22
l67 -61v52l-51 47l20 22l31 -29v70h30v-70l31 29l20 -22l-51 -47v-52l67 61l20 -22l-87 -80v-50l38 -21l43 25l26 114l30 -6l-20 -88l45 26l16 68l29 -7l-9 -41l61 35l14 -26l-60 -35l40 -12l-9 -29l-67 21l-45 -26l86 -27l-8 -28l-114 35l-43 -25v-43l43 -25l114 35l8 -29
l-86 -26l45 -26l67 20zM389 277l38 22v44l-38 21l-38 -21v-44z" />
    <glyph glyph-name="thunder" horiz-adv-x="524"
d="M264 643h160l-133 -261h132l-309 -415l114 308h-128z" />
    <glyph glyph-name="thunder.ss20" horiz-adv-x="524"
d="M424 643l-132 -262h131l-309 -445l114 339h-128l164 368h160zM375 613h-91l-138 -308h124l-69 -198l164 244h-122z" />
    <glyph glyph-name="water" horiz-adv-x="663"
d="M331 657q15 -39 56.5 -94.5t78.5 -101t67 -110.5t30 -128q0 -26 -6.5 -54.5t-23 -61.5t-41.5 -58t-67 -42t-94 -17t-94 17t-67 42t-41.5 58t-22.5 61.5t-6 54.5q0 51 19 102t48.5 94.5t60.5 82t60.5 80.5t42.5 75zM331 20q103 0 161 77q41 56 41 126q0 34 -11 73
q-10 33 -30 70t-91 130q-57 75 -70 96q-22 -37 -70 -96q-69 -91 -91 -130q-22 -41 -29 -70q-11 -34 -11 -73q0 -70 41 -126q58 -77 160 -77zM331 62v30q61 0 94 33q35 32 35 92h30q0 -73 -44 -114q-43 -41 -115 -41z" />
    <glyph glyph-name="drop" horiz-adv-x="663"
d="M331 657q15 -39 56.5 -94.5t78.5 -101t67 -110.5t30 -128q0 -26 -6.5 -54.5t-23 -61.5t-41.5 -58t-67 -42t-94 -17t-94 17t-67 42t-41.5 58t-22.5 61.5t-6 54.5q0 51 19 102t48.5 94.5t60.5 82t60.5 80.5t42.5 75z" />
    <glyph glyph-name="drop.ss20" horiz-adv-x="663"
d="M332 657q13 -33 42.5 -75t60.5 -80.5t60.5 -82t48.5 -94.5t19 -102q0 -26 -6 -54.5t-22.5 -61.5t-41.5 -58t-67 -42t-94 -17t-94 17t-67 42t-41.5 58t-23 61.5t-6.5 54.5q0 51 19 102t48.5 94.5t60.5 82t61 80.5t43 75zM332 20q102 0 160 77q41 56 41 126q0 39 -11 73
q-11 38 -29 70q-23 41 -91 130q-53 67 -70 96q-20 -32 -70 -96q-64 -82 -91 -130q-21 -40 -30 -70q-11 -39 -11 -73q0 -70 41 -126q58 -77 161 -77z" />
    <glyph glyph-name="wave" horiz-adv-x="1296"
d="M1196 30v-30h-1096v30q36 0 71.5 23.5t65.5 63t63.5 90t67 105t75.5 108t88.5 98.5t107 77t130.5 43.5t159 -1.5q112 -18 146 -92q22 -48 0 -82q-12 -18 -31 -18q18 20 -1 45.5t-58 29.5q-60 6 -102 -20t-58 -70.5t-14 -100t24 -108.5q31 -74 123 -132.5t239 -58.5z" />
    <glyph glyph-name="sea" horiz-adv-x="836"
d="M630 643q32 0 64 -34q21 -24 42 -24v-30q-35 0 -64 33q-23 25 -42 25q-21 0 -42 -25q-31 -33 -64 -33q-35 0 -64 33q-23 25 -42 25q-21 0 -42 -25q-31 -33 -64 -33t-64 33q-21 25 -42 25t-42 -25q-31 -33 -64 -33v30q21 0 42 24q32 34 64 34t64 -34q21 -24 42 -24
q20 0 42 24q32 34 64 34t64 -34q21 -24 42 -24q20 0 42 24q29 34 64 34zM630 501q32 0 64 -34q22 -24 42 -24v-30q-35 0 -64 34q-24 24 -42 24q-20 0 -42 -24q-32 -34 -64 -34q-35 0 -64 34q-24 24 -42 24q-20 0 -42 -24q-32 -34 -64 -34t-64 34q-22 24 -42 24t-42 -24
q-32 -34 -64 -34v30q20 0 42 24q32 34 64 34t64 -34q22 -24 42 -24q18 0 42 24q32 34 64 34t64 -34q22 -24 42 -24q18 0 42 24q29 34 64 34zM630 363q32 0 64 -34q22 -24 42 -24v-30q-35 0 -64 34q-24 24 -42 24q-20 0 -42 -24q-32 -34 -64 -34q-35 0 -64 34q-24 24 -42 24
q-20 0 -42 -24q-32 -34 -64 -34t-64 34q-22 24 -42 24t-42 -24q-32 -34 -64 -34v30q20 0 42 24q32 34 64 34t64 -34q22 -24 42 -24q18 0 42 24q32 34 64 34t64 -34q22 -24 42 -24q18 0 42 24q29 34 64 34zM630 226q32 0 64 -34q21 -24 42 -24v-30q-35 0 -64 33
q-23 25 -42 25q-21 0 -42 -25q-31 -33 -64 -33q-35 0 -64 33q-23 25 -42 25q-21 0 -42 -25q-31 -33 -64 -33t-64 33q-21 25 -42 25t-42 -25q-31 -33 -64 -33v30q21 0 42 24q32 34 64 34t64 -34q21 -24 42 -24q20 0 42 24q32 34 64 34t64 -34q21 -24 42 -24q20 0 42 24
q29 34 64 34zM630 88q32 0 64 -34q22 -24 42 -24v-30q-35 0 -64 34q-24 24 -42 24q-20 0 -42 -24q-32 -34 -64 -34q-35 0 -64 34q-24 24 -42 24q-20 0 -42 -24q-32 -34 -64 -34t-64 34q-22 24 -42 24t-42 -24q-32 -34 -64 -34v30q20 0 42 24q32 34 64 34t64 -34
q22 -24 42 -24q18 0 42 24q32 34 64 34t64 -34q22 -24 42 -24q18 0 42 24q29 34 64 34z" />
    <glyph glyph-name="green" horiz-adv-x="614"
d="M514 297q0 -48 -22 -89t-58 -69t-61 -42.5t-51 -25.5v-71h-30v71q-26 11 -51.5 25.5t-61 42.5t-57.5 69t-22 89q0 64 21.5 124.5t52 101.5t60.5 72.5t52 46.5l21 15q8 -5 22 -15.5t50 -45.5t63 -74t49.5 -100t22.5 -125zM292 609q-38 -32 -67 -67q-14 -18 -26 -35l3 4
l90 -83v181zM388 542q-26 32 -66 67v-181l89 83l4 -4q-13 20 -27 35zM185 486q-16 -25 -26 -50q-13 -29 -21 -62l154 -141v155zM475 374q-8 33 -21 62q-9 21 -25 50l-107 -98v-155zM220 145q34 -25 72 -41v88l-160 146q-2 -26 -2 -41q0 -48 27 -88q22 -34 63 -64zM394 145
q41 30 63 64q27 40 27 88q0 21 -3 41l-159 -146v-88q37 17 72 41z" />
    <glyph glyph-name="bike" horiz-adv-x="1229"
d="M923 406q85 0 145.5 -60.5t60.5 -145.5t-60.5 -145.5t-145.5 -60.5t-145.5 60.5t-60.5 145.5q0 58 29 106t78 75l-49 110l-167 -310h-9h-1h-87q-8 -79 -66.5 -133t-138.5 -54q-85 0 -145.5 60.5t-60.5 145.5q0 86 60 146t146 60q39 0 75 -14l58 124l-28 63h-65
q-6 0 -10.5 4.5t-4.5 10.5t4.5 10.5t10.5 4.5h74h161q15 0 15 -15t-15 -15h-137l17 -39h300v103h144q42 0 70 -25q27 -24 27 -61q0 -36 -27 -60q-28 -25 -70 -25q-6 0 -10.5 4.5t-4.5 10.5t4.5 10.5t10.5 4.5q31 0 50 17q17 15 17 38q0 24 -17 39q-19 17 -50 17h-114v-85
l61 -134q33 12 71 12zM600 230l151 280h-276zM455 480l-47 -101q45 -26 72.5 -70.5t30.5 -97.5h64zM430 76q44 44 50 105h-171q-9 0 -14 8q-6 8 -1 17l74 159q-31 11 -62 11q-74 0 -125 -51q-51 -53 -51 -125q0 -73 51 -124q52 -52 125 -52q72 0 124 52zM1047 76
q52 52 52 124q0 71 -52 125q-51 51 -124 51q-32 0 -59 -10l72 -160q8 -13 -7 -19q-4 -2 -6 -2q-9 0 -14 9l-72 160q-21 -12 -38 -29q-52 -52 -52 -125q0 -74 52 -124q52 -52 124 -52t124 52zM481 211q-5 68 -51 114q-19 17 -35 27l-66 -141h152z" />
    <glyph glyph-name="peaceout" horiz-adv-x="676"
d="M575 588l-41 -259q4 -5 6.5 -9t4.5 -10t3 -9.5t1 -13.5v-17v-24.5v-30.5q0 -101 -65 -163t-164 -62q-94 2 -157 64.5t-63 163.5v131q0 46 45 60t71 -26q30 43 74 24l-28 182q-8 51 33 70q35 16 66 -6q21 -15 24 -42l34 -220l32 220q6 39 40 51t62.5 -10t21.5 -64z
M477 607l-39 -256q58 0 71 -6l40 249q4 25 -12.5 39t-36 6.5t-23.5 -32.5zM288 594l28 -204q14 -18 14 -58q13 13 25 16t46 3l-42 256q-3 24 -22.5 32t-36 -5t-12.5 -40zM231 351v-78q0 -22 18.5 -31t37 0t18.5 31v78q0 22 -18.5 30.5t-37 -0.5t-18.5 -30zM129 351v-78
q0 -21 18.5 -30.5t37 -1t18.5 31.5v78q0 21 -18.5 29.5t-37 0t-18.5 -29.5zM519 215v71q0 40 -36 40h-108q-25 0 -36 -18t0 -36.5t36 -18.5h66q11 0 11.5 -12.5t-11.5 -12.5q-40 0 -70 -31.5t-30 -75.5q0 -13 -13.5 -12.5t-13.5 12.5q0 69 60 107q-28 0 -49 23
q-11 -36 -47.5 -41t-61.5 28q-18 -26 -42.5 -28.5t-44.5 16.5q0 -95 53 -150.5t139 -57.5q85 -3 141.5 53t56.5 144z" />
    <glyph glyph-name="smiley"
d="M432 653q136 0 233.5 -97.5t97.5 -233.5q0 -138 -97 -235t-234 -97q-138 0 -235 97t-97 235q0 137 97 234t235 97zM432 625q-125 0 -213 -88.5t-88 -214.5t88 -215t213 -89q126 0 213.5 89t87.5 215t-87.5 214.5t-213.5 88.5zM355 431q0 14 -10 24t-24 10t-23.5 -10
t-9.5 -24q0 -13 10 -23t23 -10q14 0 24 9.5t10 23.5zM576 431q0 14 -10 24t-24 10t-23.5 -10t-9.5 -24q0 -13 9.5 -23t23.5 -10t24 9.5t10 23.5zM631 301q0 -80 -58.5 -137t-140.5 -57t-140 57t-58 137h27q0 -64 47.5 -114.5t123.5 -50.5t124 50.5t48 114.5h27z" />
    <glyph glyph-name="beer" horiz-adv-x="628"
d="M100 643h428l-49 -625q-2 -18 -20 -18h-290q-18 0 -20 18zM495 613h-362l8 -103h346z" />
    <glyph glyph-name="drink" horiz-adv-x="956"
d="M493 288v-259h207v-30h-442v30h205v259l-363 358h756zM783 616h-610l111 -110h388z" />
    <glyph glyph-name="globe"
d="M763 321q0 -136 -96.5 -233t-233.5 -98h-1h-1q-137 0 -234 97t-97 234t97 234.5t234 97.5h1h1q136 -1 233 -98t97 -234zM447 474q57 1 112 12q-20 56 -50.5 91.5t-61.5 43.5v-147zM417 621q-31 -8 -61.5 -43.5t-50.5 -92.5q49 -10 112 -11v147zM662 517q-57 69 -145 94
q45 -45 71 -119q34 8 74 25zM347 611q-88 -26 -145 -94q27 -14 74 -25q26 74 71 119zM615 337h118q-4 86 -53 157q-37 -17 -84 -29q18 -61 19 -128zM249 337q1 67 19 128q-47 12 -84 29q-49 -70 -53 -157h118zM585 337q-1 60 -17 121q-54 -11 -121 -14v-107h138zM417 444
q-59 1 -121 14q-16 -61 -17 -121h138v107zM249 307h-118q4 -85 52 -156q36 17 84 30q-17 61 -18 126zM279 307q1 -64 17 -120q53 13 121 14v106h-138zM447 201q67 -3 121 -14q16 54 17 120h-138v-106zM615 307q-1 -64 -18 -127q56 -15 83 -29q49 71 53 156h-118zM417 171
q-63 -1 -112 -11q20 -57 50.5 -93.5t61.5 -44.5v149zM447 22q31 8 62 44t51 93q-57 11 -113 12v-149zM201 127q60 -70 145 -95q-45 45 -71 121q-43 -10 -74 -26zM517 32q86 25 146 95q-31 16 -74 26q-26 -75 -72 -121z" />
    <glyph glyph-name="globe.ss20" horiz-adv-x="1143"
d="M972 500q71 -82 71 -179q0 -139 -134.5 -235t-337.5 -96t-337 96t-134 235q0 97 71 179l2 2q62 70 166 110.5t232 40.5q118 0 216.5 -35t162.5 -96h1zM586 470q107 1 193 13q-34 65 -89 99t-104 40v-152zM556 470v152q-49 -6 -104 -40t-89 -99q86 -12 193 -13zM919 511
q-84 74 -219 100q73 -45 111 -123q61 9 108 23zM331 487q38 80 110 124q-131 -25 -218 -99q52 -16 108 -25zM320 462q-67 11 -120 28q-64 -69 -70 -153h166q3 71 24 125zM1012 337q-6 84 -70 153q-53 -17 -120 -28q21 -54 24 -125h166zM586 441v-104h228q-3 67 -23 120
q-91 -15 -205 -16zM556 441q-114 1 -205 16q-20 -53 -23 -120h228v104zM200 155q49 16 119 29q-20 54 -23 123h-166q6 -83 70 -152zM328 307q3 -67 23 -118q96 14 205 15v103h-228zM586 204q114 -1 205 -16q20 53 23 119h-228v-103zM823 183q67 -11 120 -28q63 69 69 152
h-166q-3 -68 -23 -124zM556 175q-107 -1 -193 -13q34 -66 89 -100.5t104 -40.5v154zM586 175v-154q49 6 104 40.5t89 100.5q-86 12 -193 13zM222 133q85 -74 218 -101q-74 48 -110 125q-61 -10 -108 -24zM812 157q-36 -77 -111 -125q134 27 219 101q-45 14 -108 24z" />
    <glyph glyph-name="EU" horiz-adv-x="918"
d="M459 678l13 -39h41l-34 -24l13 -39l-33 24l-34 -24l13 39l-33 24h41zM306 635l13 -39h41l-33 -24l13 -39l-34 24l-33 -24l13 39l-34 24h42zM611 635l13 -39h41l-33 -24l13 -39l-34 24l-33 -24l13 39l-34 24h42zM195 524l12 -39l42 -1l-34 -24l13 -39l-33 24l-34 -24
l13 39l-33 24l41 1zM723 524l13 -39l41 -1l-33 -24l12 -39l-33 24l-33 -24l12 39l-33 24l41 1zM154 371l13 -39h41l-34 -24l13 -39l-33 24l-34 -24l13 39l-33 24h41zM764 371l13 -39h41l-34 -24l13 -39l-33 24l-34 -24l13 39l-33 24h41zM195 219l12 -39l42 -1l-34 -24
l13 -39l-33 24l-34 -24l13 39l-33 24l41 1zM723 219l13 -39l41 -1l-33 -24l12 -39l-33 24l-33 -24l12 39l-33 24l41 1zM306 107l13 -39h41l-33 -24l13 -40l-34 25l-33 -25l13 40l-34 24h42zM611 107l13 -39h41l-33 -24l13 -40l-34 25l-33 -25l13 40l-34 24h42zM459 72
l13 -39h41l-34 -24l13 -39l-33 24l-34 -24l13 39l-33 24h41z" />
    <glyph glyph-name="GB" horiz-adv-x="1442"
d="M721 663q286 0 453.5 -94.5t167.5 -236.5q0 -143 -167.5 -237.5t-453.5 -94.5t-453.5 94.5t-167.5 237.5q0 142 167.5 236.5t453.5 94.5zM721 28q160 0 292.5 35t215 105.5t82.5 163.5q0 73 -52 132t-137 95.5t-188.5 56t-212.5 19.5q-111 0 -215 -19.5t-188.5 -56.5
t-135.5 -96t-51 -131q0 -73 51 -132.5t136 -96t188.5 -56t214.5 -19.5zM727 336v-3q2 -44 -14 -79q-15 -38 -57 -64q-42 -27 -115 -27q-60 0 -105 20q-45 21 -67 58q-24 37 -24 88q0 49 24 87q23 36 68 58q45 21 104 21q58 0 96 -16q37 -15 60 -41q22 -27 28 -55h-75
q-3 10 -18 27q-13 11 -36 19q-26 8 -55 8q-38 0 -64 -13q-29 -14 -43 -38q-14 -25 -14 -57t15 -56q15 -26 43 -38q30 -14 63 -14q35 0 62 11q25 9 37 26q8 11 13 24h-120v57h194v-3zM1080 314q19 -22 19 -51q0 -27 -16 -49q-17 -21 -48 -33q-29 -13 -72 -13h-208v322h199
q44 0 71 -10q26 -9 42 -29q14 -22 14 -49q0 -26 -20 -43q-12 -9 -27 -15q28 -10 46 -30zM954 433h-129v-72h129q28 0 44 8q16 7 16 28q0 18 -16 28q-15 8 -44 8zM1007 235q16 9 16 31q0 16 -7 24q-9 9 -23 13q-12 4 -35 4h-133v-82h134q32 0 48 10z" />
    <glyph glyph-name="recycle" horiz-adv-x="976"
d="M488 598l-130 -225l-26 15l156 270l155 -268l38 22l1 -117l-101 58l36 21zM281 253l-129 -223h261v-30h-313l155 268l-35 21l101 58v-117zM876 0h-306v-43l-101 58l101 58v-43h254l-130 225l26 15z" />
    <glyph glyph-name="halfCircle"
d="M432 653q136 0 233.5 -97.5t97.5 -233.5q0 -138 -97 -235t-234 -97q-138 0 -235 97t-97 235q0 137 97 234t235 97zM432 625q-121 0 -208 -84t-93 -205h602q-5 121 -92 205t-209 84zM432 18q122 0 208.5 84.5t92.5 205.5h-602q6 -121 93 -205.5t208 -84.5z" />
    <glyph glyph-name="no"
d="M432 653q136 0 233.5 -97.5t97.5 -233.5q0 -138 -97 -235t-234 -97q-138 0 -235 97t-97 235q0 137 97 234t235 97zM432 625q-125 0 -213 -88.5t-88 -214.5q0 -116 77 -203l428 427q-87 79 -204 79zM432 18q126 0 213.5 89t87.5 215q0 117 -77 204l-428 -427
q86 -81 204 -81z" />
    </font>
</defs>
</svg>
